{
.appVersion = "3343";
.formatVersion = 3;
DisplayStrings = (
" LOGO 🦎💚🐧  /uniF8EF    /uni1F98E_uni1F49A_uni1F427.liga 
 NEG 🐧💚🦎      /uni1F427_uni1F49A_uni1F98E.liga",
"AaB­"
);
axes = (
{
name = Weight;
tag = wght;
}
);
classes = (
{
automatic = 1;
code = "A Aacute Abreve Abreveacute Abrevedotbelow Abrevegrave Abrevehookabove Abrevetilde Acaron Acircumflex Acircumflexacute Acircumflexdotbelow Acircumflexgrave Acircumflexhookabove Acircumflextilde Adieresis Adotbelow Agrave Ahookabove Amacron Aogonek Aring Atilde AE B C Cacute Ccaron Ccedilla Cdotaccent D Dcaron Dcroat Eth E Eacute Ecaron Ecircumflex Ecircumflexacute Ecircumflexdotbelow Ecircumflexgrave Ecircumflexhookabove Ecircumflextilde Edieresis Edotaccent Edotbelow Egrave Ehookabove Emacron Eogonek Etilde F G Gbreve Gcommaaccent Gdotaccent H Hbar I Iacute Icircumflex Idieresis Idotaccent Idotbelow Igrave Ihookabove Imacron Iogonek Itilde J K Kcommaaccent L Lacute Lcaron Lcommaaccent Lslash M N Nacute Ncaron Ncommaaccent Ntilde Eng O Oacute Ocircumflex Ocircumflexacute Ocircumflexdotbelow Ocircumflexgrave Ocircumflexhookabove Ocircumflextilde Odieresis Odotbelow Ograve Ohookabove Ohorn Ohornacute Ohorndotbelow Ohorngrave Ohornhookabove Ohorntilde Ohungarumlaut Omacron Oslash Otilde OE P Thorn Q R Racute Rcaron Rcommaaccent S Sacute Scaron Scedilla Scommaaccent Germandbls T Tbar Tcaron Tcedilla Tcommaaccent U Uacute Ubreve Ucircumflex Udieresis Udotbelow Ugrave Uhookabove Uhorn Uhornacute Uhorndotbelow Uhorngrave Uhornhookabove Uhorntilde Uhungarumlaut Umacron Uogonek Uring Utilde V W Wacute Wcircumflex Wdieresis Wgrave X Y Yacute Ycircumflex Ydieresis Ydotbelow Ygrave Yhookabove Ytilde Z Zacute Zcaron Zdotaccent";
name = Uppercase;
}
);
customParameters = (
{
name = "Instance Preview";
value = (
A,
a,
B,
b,
C,
c,
"0",
"1",
"2",
"3"
);
},
{
name = fsType;
value = (
);
},
{
name = "Family Alignment Zones";
value = (
{
pos = 700;
size = 20;
},
{
pos = 470;
size = 10;
},
{
pos = 0;
size = -10;
},
{
pos = -200;

glyphs = (
{
glyphname = A;
kernLeft = A;
kernRight = A;
lastChange = "2025-07-25 14:12:02 +0000";
layers = (
{
anchors = (
{
name = bottom;
pos = (300,0);
},
{
name = ogonek;
pos = (502,0);
},
{
name = top;
pos = (301,700);
}
);
hints = (
{
horizontal = 1;
origin = (0,7);
target = up;
type = BottomGhost;
},
{
horizontal = 1;
origin = (1,3);
target = (1,2);
type = Stem;
},
{
horizontal = 1;
origin = (0,6);
target = (0,1,0,3);
type = Stem;
}
);
layerId = "D56600E4-3CB1-46B6-994E-4E22114E2E10";
shapes = (
{
closed = 1;
nodes = (
(169,0,l),
(311,579,l),
(290,579,l),
(431,0,l),
(595,0,l),
(400,700,l),
(201,700,l),
(5,0,l)
);
},
{
closed = 1;
nodes = (
(504,133,l),
(452,257,l),
(151,257,l),
(100,133,l)
);
}
);
width = 600;
},
{
anchors = (
{
name = bottom;
pos = (300,0);
},
{
name = ogonek;
pos = (531,0);
},
{
name = top;
pos = (300,700);
}
);
layerId = "FF94DDBB-E62A-4F15-93F9-F4255DC66883";
shapes = (
{
closed = 1;
nodes = (
(83,0,l),
(305,675,l),
(296,675,l),
(516,0,l),
(547,0,l),
(315,700,l),
(284,700,l),
(53,0,l)
);
},
{
closed = 1;
nodes = (
(461,219,l),
(449,247,l),
(151,247,l),
(139,219,l)
);
}
);
width = 600;
}
);
unicode = 65;
},
{
glyphname = AE;
kernRight = E;
lastChange = "2025-07-25 14:12:02 +0000";
layers = (
{
hints = (
{
horizontal = 1;
origin = (0,18);
target = (0,9);
type = Stem;
},
{
horizontal = 1;
origin = (2,3);
target = (2,2);
type = Stem;
},
{
horizontal = 1;
origin = (0,17);
target = (0,15);
type = Stem;
},
{
horizontal = 1;
origin = (1,3);
target = (1,2);
type = Stem;
},
{
origin = (0,3);
target = (0,13);
type = Stem;
}
);
layerId = "D56600E4-3CB1-46B6-994E-4E22114E2E10";
shapes = (
{
closed = 1;
nodes = (
(147,0,l),
(263,565,l),
(282,565,l),
(282,122,ls),
(282,49,o),
(330,0,o),
(402,0,cs),
(567,0,l),
(567,135,l),
(449,135,ls),
(434,135,o),
(428,144,o),
(428,155,cs),
(428,622,l),
(372,565,l),
(567,565,l),
(567,700,l),
(177,700,l),
(-7,0,l)
);
},
{
closed = 1;
nodes = (
(363,143,l),
(363,267,l),
(131,267,l),
(94,143,l)
);
},
{
closed = 1;
nodes = (
(552,288,l),
(552,416,l),
(383,416,l),
(383,288,l)
);
}
);
width = 600;
},
{
layerId = "FF94DDBB-E62A-4F15-93F9-F4255DC66883";
shapes = (
{
closed = 1;
nodes = (
(75,0,l),
(292,672,l),
(322,672,l),
(322,103,ls),
(322,41,o),
(361,0,o),
(420,0,cs),
(554,0,l),
(554,28,l),
(425,28,ls),
(381,28,o),
(351,59,o),
(351,106,cs),
(351,685,l),
(336,672,l),
(554,672,l),
(554,700,l),
(272,700,l),
(44,0,l)
);
},
{
closed = 1;
nodes = (
(336,228,l),
(336,256,l),
(150,256,l),
(136,228,l)
);
},
{
closed = 1;
nodes = (
(542,336,l),
(542,364,l),
(339,364,l),
(339,336,l)
);
}
);
width = 600;
}
);
unicode = 198;
},
{
glyphname = B;
kernLeft = H;
lastChange = "2025-07-25 16:39:52 +0000";
layers = (
{
hints = (
{
horizontal = 1;
origin = (0,15);
target = (1,18);
type = Stem;
},
{
horizontal = 1;
origin = (1,11);
target = (1,9);
type = Stem;
},
{
horizontal = 1;
origin = (0,14);
target = (1,2);
type = Stem;
},
{
origin = (0,15);
target = (1,19);
type = Stem;
},
{
origin = (1,14);
target = (0,3);
type = Stem;
}
);
layerId = "D56600E4-3CB1-46B6-994E-4E22114E2E10";
shapes = (
{
closed = 1;
nodes = (
(313,0,ls),
(463,0,o),
(557,76,o),
(557,196,cs),
(557,282,o),
(496,363,o),
(374,363,c),
(371,358,l),
(485,358,o),
(528,443,o),
(528,518,cs),
(528,630,o),
(438,700,o),
(294,700,cs),
(80,700,l),
(80,0,l)
);
},
{
closed = 1;
nodes = (
(237,624,l),
(174,579,l),
(274,579,ls),
(331,579,o),
(366,551,o),
(366,496,cs),
(366,448,o),
(332,415,o),
(277,415,cs),
(185,415,l),
(185,300,l),
(299,300,ls),
(360,300,o),
(391,257,o),
(391,211,cs),
(391,151,o),
(351,121,o),
(286,121,cs),
(174,121,l),
(237,76,l)
);
}
);
width = 600;
},
{
layerId = "FF94DDBB-E62A-4F15-93F9-F4255DC66883";
shapes = (
{
closed = 1;
nodes = (
(294,0,ls),
(445,0,o),
(518,76,o),
(518,190,cs),
(518,292,o),
(434,367,o),
(307,367,c),
(307,355,l),
(430,355,o),
(497,430,o),
(497,529,cs),
(497,632,o),
(421,700,o),
(292,700,cs),
(110,700,l),
(110,0,l)
);
},
{
closed = 1;
nodes = (
(139,685,l),
(126,673,l),
(291,673,ls),
(401,673,o),
(468,615,o),
(468,528,cs),
(468,439,o),
(409,374,o),
(300,374,cs),
(126,374,l),
(126,347,l),
(302,347,ls),
(413,347,o),
(488,281,o),
(488,191,cs),
(488,94,o),
(425,27,o),
(292,27,cs),
(126,27,l),
(139,15,l)
);
}
);
width = 600;
}
);
unicode = 66;
},
{
glyphname = C;
kernLeft = O;
kernRight = C;
lastChange = "2025-07-25 16:40:08 +0000";
layers = (
{
anchors = (
{
name = bottom;
pos = (329,0);
},
{
name = top;
pos = (333,700);
}
);
hints = (
{
horizontal = 1;
place = (-15,136);
target = (0,6);
type = Stem;
},
{
horizontal = 1;
origin = (0,13);
target = (0,20);
type = Stem;
},
{
origin = (0,23);
target = (0,10);
type = Stem;
}
);
layerId = "D56600E4-3CB1-46B6-994E-4E22114E2E10";
shapes = (
{
closed = 1;
nodes = (
(450,-15,o),
(531,43,o),
(571,155,c),
(422,206,l),
(407,152,o),
(375,121,o),
(332,121,cs),
(256,121,o),
(221,185,o),
(221,346,cs),
(221,353,ls),
(221,515,o),
(256,579,o),
(332,579,cs),
(375,579,o),
(407,548,o),
(419,494,c),
(568,552,l),
(527,660,o),
(447,715,o),
(328,715,cs),
(157,715,o),
(57,581,o),
(57,353,cs),
(57,346,ls),
(57,119,o),
(157,-15,o),
(328,-15,cs)
);
}
);
width = 600;
},
{
anchors = (
{
name = bottom;
pos = (322,0);
},
{
name = top;
pos = (332,700);
}
);
layerId = "FF94DDBB-E62A-4F15-93F9-F4255DC66883";
shapes = (
{
closed = 1;
nodes = (
(417,-10,o),
(470,34,o),
(514,110,c),
(490,126,l),
(451,58,o),
(407,19,o),
(330,19,cs),
(198,19,o),
(121,141,o),
(121,350,cs),
(121,360,ls),
(121,562,o),
(198,681,o),
(330,681,cs),
(406,681,o),
(449,644,o),
(488,580,c),
(513,595,l),
(469,668,o),
(417,710,o),
(330,710,cs),
(180,710,o),
(92,581,o),
(92,360,cs),
(92,350,ls),
(92,123,o),
(180,-10,o),
(330,-10,cs)
);
}
);
width = 600;
}
);
unicode = 67;
},
{
glyphname = D;
kernLeft = H;
kernRight = D;
lastChange = "2025-07-25 14:12:02 +0000";
layers = (
{
anchors = (
{
name = center;
pos = (174,357);
},
{
name = top;
pos = (316,700);
}
);
hints = (
{
horizontal = 1;
origin = (0,9);
target = (1,10);
type = Stem;
},
{
horizontal = 1;
origin = (0,8);
target = (1,2);
type = Stem;
},
{
origin = (0,9);
target = (1,11);
type = Stem;
},
{
origin = (1,6);
target = (0,4);
type = Stem;
}
);
layerId = "D56600E4-3CB1-46B6-994E-4E22114E2E10";
shapes = (
{
closed = 1;
nodes = (
(281,0,ls),
(456,0,o),
(570,127,o),
(570,344,cs),
(570,354,ls),
(570,572,o),
(456,700,o),
(281,700,cs),
(60,700,l),
(60,0,l)
);
},
{
closed = 1;
nodes = (
(220,618,l),
(154,561,l),
(275,561,ls),
(361,561,o),
(406,494,o),
(406,354,cs),
(406,344,ls),
(406,205,o),
(361,139,o),
(275,139,cs),
(154,139,l),
(220,82,l)
);
}
);
width = 600;
},
{
anchors = (
{
name = center;
pos = (186,360);
},
{
name = top;
pos = (338,700);
}
);
layerId = "FF94DDBB-E62A-4F15-93F9-F4255DC66883";
shapes = (
{
closed = 1;
nodes = (
(253,0,ls),
(424,0,o),
(536,142,o),
(536,355,cs),
(536,368,ls),
(536,567,o),
(424,700,o),
(253,700,cs),
(110,700,l),
(110,0,l)
);
},
{
closed = 1;
nodes = (
(139,684,l),
(126,671,l),
(252,671,ls),
(407,671,o),
(507,550,o),
(507,368,cs),
(507,355,ls),
(507,159,o),
(407,29,o),
(252,29,cs),
(126,29,l),
(139,16,l)
);
}
);
width = 600;
}
);
unicode = 68;
},
{
glyphname = E;
kernLeft = E;
kernRight = E;
lastChange = "2025-07-25 14:12:02 +0000";
layers = (
{
anchors = (
{
name = bottom;
pos = (335,0);
},
{
name = ogonek;
pos = (535,0);
},
{
name = top;
pos = (327,700);
}
);
hints = (
{
horizontal = 1;
origin = (0,19);
target = (0,2);
type = Stem;
},
{
horizontal = 1;
origin = (1,3);
target = (1,2);
type = Stem;
},
{
horizontal = 1;
origin = (0,12);
target = (0,10);
type = Stem;
},
{
origin = (0,16);
target = (0,6);
type = Stem;
}
);
layerId = "D56600E4-3CB1-46B6-994E-4E22114E2E10";
shapes = (
{
closed = 1;
nodes = (
(535,0,l),
(535,135,l),
(252,135,ls),
(241,135,o),
(232,144,o),
(232,155,cs),
(232,545,ls),
(232,556,o),
(241,565,o),
(252,565,cs),
(535,565,l),
(535,700,l),
(196,700,ls),
(125,700,o),
(74,649,o),
(74,578,cs),
(74,122,ls),
(74,51,o),
(125,0,o),
(196,0,cs)
);
},
{
closed = 1;
nodes = (
(514,288,l),
(514,416,l),
(150,416,l),
(150,288,l)
);
}
);
width = 600;
},
{
anchors = (
{
name = bottom;
pos = (325,0);
},
{
name = ogonek;
pos = (512,0);
},
{
name = top;
pos = (318,700);
}
);
layerId = "FF94DDBB-E62A-4F15-93F9-F4255DC66883";
shapes = (
{
closed = 1;
nodes = (
(512,0,l),
(512,28,l),
(221,28,ls),
(176,28,o),
(143,62,o),
(143,106,cs),
(143,594,ls),
(143,638,o),
(176,672,o),
(221,672,cs),
(512,672,l),
(512,700,l),
(217,700,ls),
(157,700,o),
(114,656,o),
(114,597,cs),
(114,103,ls),
(114,44,o),
(157,0,o),
(217,0,cs)
);
},
{
closed = 1;
nodes = (
(491,336,l),
(491,364,l),
(132,364,l),
(132,336,l)
);
}
);
width = 600;
}
);
unicode = 69;
},
{
glyphname = F;
lastChange = "2025-07-25 14:12:02 +0000";
layers = (
{
hints = (
{
horizontal = 1;
origin = (0,11);
target = up;
type = BottomGhost;
},
{
horizontal = 1;
origin = (1,3);
target = (1,2);
type = Stem;
},
{
horizontal = 1;
origin = (0,7);
target = (0,5);
type = Stem;
},
{
origin = (0,11);
target = (0,1);
type = Stem;
}
);
layerId = "D56600E4-3CB1-46B6-994E-4E22114E2E10";
shapes = (
{
closed = 1;
nodes = (
(238,0,l),
(238,545,ls),
(238,556,o),
(247,565,o),
(258,565,cs),
(540,565,l),
(540,700,l),
(200,700,ls),
(129,700,o),
(78,649,o),
(78,578,cs),
(78,0,l)
);
},
{
closed = 1;
nodes = (
(515,256,l),
(515,389,l),
(160,389,l),
(160,256,l)
);
}
);
width = 600;
},
{
layerId = "FF94DDBB-E62A-4F15-93F9-F4255DC66883";
shapes = (
{
closed = 1;
nodes = (
(136,0,l),
(136,594,ls),
(136,638,o),
(170,672,o),
(214,672,cs),
(513,672,l),
(513,700,l),
(210,700,ls),
(150,700,o),
(107,656,o),
(107,597,cs),
(107,0,l)
);
},
{
closed = 1;
nodes = (
(493,320,l),
(493,348,l),
(123,348,l),
(123,320,l)
);
}
);
width = 600;
}
);
unicode = 70;
},
{
glyphname = G;
kernLeft = O;
kernRight = G;
lastChange = "2025-07-25 16:40:48 +0000";
layers = (
{
anchors = (
{
name = bottom;
pos = (295,0);
},
{
name = top;
pos = (314,700);
}
);
hints = (
{
horizontal = 1;
origin = (0,30);
target = (0,9);
type = Stem;
},
{
horizontal = 1;
origin = (0,5);
target = (0,3);
type = Stem;
},
{
horizontal = 1;
origin = (0,23);
target = (0,16);
type = Stem;
},
{
origin = (0,27);
target = (0,13);
type = Stem;
},
{
origin = (0,6);
target = (0,2);
type = Stem;
}
);
layerId = "D56600E4-3CB1-46B6-994E-4E22114E2E10";
shapes = (
{
closed = 1;
nodes = (
(492,-15,o),
(602,146,o),
(566,396,c),
(315,396,l),
(315,276,l),
(478,276,l),
(421,308,l),
(434,187,o),
(381,115,o),
(322,115,cs),
(233,115,o),
(193,180,o),
(193,346,cs),
(193,353,ls),
(193,518,o),
(228,583,o),
(309,583,cs),
(354,583,o),
(386,550,o),
(399,494,c),
(548,552,l),
(507,660,o),
(435,715,o),
(316,715,cs),
(135,715,o),
(33,581,o),
(33,353,cs),
(33,346,ls),
(33,119,o),
(139,-15,o),
(319,-15,cs)
);
}
);
width = 600;
},
{
anchors = (
{
name = bottom;
pos = (315,0);
},
{
name = top;
pos = (315,700);
}
);
layerId = "FF94DDBB-E62A-4F15-93F9-F4255DC66883";
shapes = (
{
closed = 1;
nodes = (
(452,-15,o),
(521,96,o),
(527,348,c),
(356,348,l),
(356,321,l),
(511,321,l),
(497,335,l),
(493,114,o),
(434,14,o),
(308,14,cs),
(183,14,o),
(110,134,o),
(110,339,cs),
(110,360,ls),
(110,565,o),
(186,686,o),
(316,686,cs),
(382,686,o),
(439,654,o),
(471,599,c),
(496,615,l),
(459,678,o),
(393,715,o),
(316,715,cs),
(167,715,o),
(80,584,o),
(80,360,cs),
(80,339,ls),
(80,116,o),
(164,-15,o),
(306,-15,cs)
);
}
);
width = 600;
}
);
unicode = 71;
},
{
glyphname = H;
kernLeft = H;
kernRight = H;
lastChange = "2025-07-25 14:12:02 +0000";
layers = (
{
hints = (
{
horizontal = 1;
origin = (1,3);
target = up;
type = BottomGhost;
},
{
horizontal = 1;
origin = (2,3);
target = (2,2);
type = Stem;
},
{
horizontal = 1;
origin = (1,2);
target = down;
type = TopGhost;
},
{
origin = (1,3);
target = (1,1);
type = Stem;
},
{
origin = (0,3);
target = (0,1);
type = Stem;
}
);
layerId = "D56600E4-3CB1-46B6-994E-4E22114E2E10";
shapes = (
{
closed = 1;
nodes = (
(541,0,l),
(541,700,l),
(380,700,l),
(380,0,l)
);
},
{
closed = 1;
nodes = (
(220,0,l),
(220,700,l),
(59,700,l),
(59,0,l)
);
},
{
closed = 1;
nodes = (
(442,294,l),
(442,429,l),
(141,429,l),
(141,294,l)
);
}
);
width = 600;
},
{
layerId = "FF94DDBB-E62A-4F15-93F9-F4255DC66883";
shapes = (
{
closed = 1;
nodes = (
(508,0,l),
(508,700,l),
(479,700,l),
(479,0,l)
);
},
{
closed = 1;
nodes = (
(122,0,l),
(122,700,l),
(93,700,l),
(93,0,l)
);
},
{
closed = 1;
nodes = (
(491,346,l),
(491,374,l),
(110,374,l),
(110,346,l)
);
}
);
width = 600;
}
);
unicode = 72;
},
{
glyphname = Hbar;
kernLeft = H;
kernRight = H;
lastChange = "2025-07-25 16:41:37 +0000";
layers = (
{
hints = (
{
horizontal = 1;
origin = (3,0);
target = (3,1);
type = Stem;
},
{
horizontal = 1;
origin = (0,0);
target = (0,1);
type = Stem;
},
{
origin = (2,3);
target = (2,0);
type = Stem;
},
{
origin = (1,3);
target = (1,0);
type = Stem;
}
);
layerId = "D56600E4-3CB1-46B6-994E-4E22114E2E10";
shapes = (
{
closed = 1;
nodes = (
(594,480,l),
(594,589,l),
(6,589,l),
(6,480,l)
);
},
{
closed = 1;
nodes = (
(541,0,l),
(541,700,l),
(380,700,l),
(380,0,l)
);
},
{
closed = 1;
nodes = (
(220,0,l),
(220,700,l),
(59,700,l),
(59,0,l)
);
},
{
closed = 1;
nodes = (
(442,254,l),
(442,389,l),
(141,389,l),
(141,254,l)
);
}
);
width = 600;
},
{
layerId = "FF94DDBB-E62A-4F15-93F9-F4255DC66883";
shapes = (
{
closed = 1;
nodes = (
(591,512,l),
(591,536,l),
(9,536,l),
(9,512,l)
);
},
{
closed = 1;
nodes = (
(508,0,l),
(508,700,l),
(479,700,l),
(479,0,l)
);
},
{
closed = 1;
nodes = (
(122,0,l),
(122,700,l),
(93,700,l),
(93,0,l)
);
},
{
closed = 1;
nodes = (
(491,346,l),
(491,374,l),
(110,374,l),
(110,346,l)
);
}
);
width = 600;
}
);
unicode = 294;
},
{
glyphname = I;
kernLeft = I;
kernRight = I;
lastChange = "2025-07-25 14:12:02 +0000";
layers = (
{
anchors = (
{
name = bottom;
pos = (301,0);
},
{
name = ogonek;
pos = (381,0);
},
{
name = top;
pos = (301,700);
}
);
hints = (
{
horizontal = 1;
origin = (2,3);
target = (2,2);
type = Stem;
},
{
horizontal = 1;
origin = (1,2);
target = (1,3);
type = Stem;
},
{
origin = (0,3);
target = (0,1);
type = Stem;
}
);
layerId = "D56600E4-3CB1-46B6-994E-4E22114E2E10";
shapes = (
{
closed = 1;
nodes = (
(381,50,l),
(381,650,l),
(220,650,l),
(220,50,l)
);
},
{
closed = 1;
nodes = (
(524,575,l),
(524,700,l),
(77,700,l),
(77,575,l)
);
},
{
closed = 1;
nodes = (
(524,0,l),
(524,125,l),
(77,125,l),
(77,0,l)
);
}
);
width = 600;
},
{
anchors = (
{
name = bottom;
pos = (299,0);
},
{
name = ogonek;
pos = (311,0);
},
{
name = top;
pos = (300,700);
}
);
layerId = "FF94DDBB-E62A-4F15-93F9-F4255DC66883";
shapes = (
{
closed = 1;
nodes = (
(314,10,l),
(314,690,l),
(284,690,l),
(284,10,l)
);
},
{
closed = 1;
nodes = (
(509,672,l),
(509,700,l),
(91,700,l),
(91,672,l)
);
},
{
closed = 1;
nodes = (
(509,0,l),
(509,28,l),
(91,28,l),
(91,0,l)
);
}
);
width = 600;
}
);
unicode = 73;
},
{
glyphname = J;
lastChange = "2025-07-25 14:12:02 +0000";
layers = (
{
anchors = (
{
name = top;
pos = (361,700);
}
);
hints = (
{
horizontal = 1;
origin = (0,14);
target = (0,13);
type = Stem;
},
{
horizontal = 1;
origin = (0,5);
target = (0,7);
type = Stem;
},
{
origin = (0,4);
target = (0,9);
type = Stem;
}
);
layerId = "D56600E4-3CB1-46B6-994E-4E22114E2E10";
shapes = (
{
closed = 1;
nodes = (
(286,0,ls),
(438,0,o),
(513,70,o),
(513,212,cs),
(513,700,l),
(131,700,l),
(131,575,l),
(419,575,l),
(352,632,l),
(352,186,ls),
(352,157,o),
(330,135,o),
(301,135,cs),
(101,135,l),
(101,0,l)
);
}
);
width = 600;
},
{
anchors = (
{
name = top;
pos = (346,700);
}
);
layerId = "FF94DDBB-E62A-4F15-93F9-F4255DC66883";
shapes = (
{
closed = 1;
nodes = (
(342,0,ls),
(407,0,o),
(452,45,o),
(452,109,cs),
(452,700,l),
(148,700,l),
(148,672,l),
(435,672,l),
(423,685,l),
(423,108,ls),
(423,62,o),
(388,28,o),
(343,28,cs),
(91,28,l),
(91,0,l)
);
}
);
width = 600;
}
);
unicode = 74;
},
{
glyphname = K;
kernLeft = H;
kernRight = K;
lastChange = "2025-07-25 14:12:02 +0000";
layers = (
{
anchors = (
{
name = bottom;
pos = (356,0);
},
{
name = top;
pos = (354,700);
}
);
hints = (
{
horizontal = 1;
origin = (2,3);
target = up;
type = BottomGhost;
},
{
horizontal = 1;
origin = (1,2);
target = down;
type = TopGhost;
},
{
origin = (1,3);
target = (1,1);
type = Stem;
}
);
layerId = "D56600E4-3CB1-46B6-994E-4E22114E2E10";
shapes = (
{
closed = 1;
nodes = (
(603,700,l),
(428,700,l),
(159,303,l),
(166,87,l)
);
},
{
closed = 1;
nodes = (
(230,0,l),
(230,700,l),
(70,700,l),
(70,0,l)
);
},
{
closed = 1;
nodes = (
(613,0,l),
(353,479,l),
(239,361,l),
(422,0,l)
);
}
);
width = 600;
},
{
anchors = (
{
name = bottom;
pos = (312,0);
},
{
name = top;
pos = (312,700);
}
);
layerId = "FF94DDBB-E62A-4F15-93F9-F4255DC66883";
shapes = (
{
closed = 1;
nodes = (
(552,700,l),
(516,700,l),
(118,224,l),
(120,184,l)
);
},
{
closed = 1;
nodes = (
(132,0,l),
(132,700,l),
(103,700,l),
(103,0,l)
);
},
{
closed = 1;
nodes = (
(549,0,l),
(285,402,l),
(264,381,l),
(512,0,l)
);
}
);
width = 600;
}
);
unicode = 75;
},
{
glyphname = L;
kernLeft = L;
kernRight = L;
lastChange = "2025-07-25 14:12:02 +0000";
layers = (
{
anchors = (
{
name = bottom;
pos = (322,0);
},
{
name = center;
pos = (195,360);
},
{
name = top;
pos = (170,700);
},
{
name = topright;
pos = (339,700);
}
);
hints = (
{
horizontal = 1;
origin = (0,11);
target = (0,2);
type = Stem;
},
{
horizontal = 1;
origin = (0,7);
target = down;
type = TopGhost;
},
{
origin = (0,6);
target = (0,8);
type = Stem;
}
);
layerId = "D56600E4-3CB1-46B6-994E-4E22114E2E10";
shapes = (
{
closed = 1;
nodes = (
(542,0,l),
(542,135,l),
(268,135,ls),
(257,135,o),
(248,144,o),
(248,155,cs),
(248,700,l),
(88,700,l),
(88,122,ls),
(88,51,o),
(139,0,o),
(210,0,cs)
);
}
);
width = 600;
},
{
anchors = (
{
name = bottom;
pos = (344,0);
},
{
name = center;
pos = (180,351);
},
{
name = top;
pos = (152,700);
},
{
name = topright;
pos = (352,700);
}
);
layerId = "FF94DDBB-E62A-4F15-93F9-F4255DC66883";
shapes = (
{
closed = 1;
nodes = (
(520,0,l),
(520,29,l),
(244,29,ls),
(200,29,o),
(166,62,o),
(166,107,cs),
(166,700,l),
(137,700,l),
(137,103,ls),
(137,44,o),
(180,0,o),
(240,0,cs)
);
}
);
width = 600;
}
);
unicode = 76;
},
{
glyphname = M;
kernLeft = H;
kernRight = H;
lastChange = "2025-07-25 14:12:02 +0000";
layers = (
{
hints = (
{
horizontal = 1;
origin = (0,15);
target = up;
type = BottomGhost;
},
{
horizontal = 1;
origin = (0,14);
target = down;
type = TopGhost;
},
{
origin = (0,15);
target = (0,1);
type = Stem;
},
{
origin = (0,7);
target = (0,9);
type = Stem;
}
);
layerId = "D56600E4-3CB1-46B6-994E-4E22114E2E10";
shapes = (
{
closed = 1;
nodes = (
(180,0,l),
(180,627,l),
(152,627,l),
(252,230,l),
(349,230,l),
(449,627,l),
(421,627,l),
(421,0,l),
(557,0,l),
(557,700,l),
(362,700,l),
(283,369,l),
(318,369,l),
(239,700,l),
(44,700,l),
(44,0,l)
);
}
);
width = 600;
},
{
layerId = "FF94DDBB-E62A-4F15-93F9-F4255DC66883";
shapes = (
{
closed = 1;
nodes = (
(114,0,l),
(114,668,l),
(108,667,l),
(285,225,l),
(315,225,l),
(492,667,l),
(486,668,l),
(486,0,l),
(515,0,l),
(515,700,l),
(476,700,l),
(294,249,l),
(306,249,l),
(123,700,l),
(85,700,l),
(85,0,l)
);
}
);
width = 600;
}
);
unicode = 77;
},
{
glyphname = N;
kernLeft = H;
kernRight = H;
lastChange = "2025-07-25 14:12:02 +0000";
layers = (
{
anchors = (
{
name = bottom;
pos = (300,0);
},
{
name = top;
pos = (300,700);
}
);
hints = (
{
horizontal = 1;
origin = (0,11);
target = up;
type = BottomGhost;
},
{
horizontal = 1;
origin = (0,10);
target = down;
type = TopGhost;
},
{
origin = (0,11);
target = (0,1);
type = Stem;
},
{
origin = (0,5);
target = (0,7);
type = Stem;
}
);
layerId = "D56600E4-3CB1-46B6-994E-4E22114E2E10";
shapes = (
{
closed = 1;
nodes = (
(205,0,l),
(205,521,l),
(152,510,l),
(406,0,l),
(545,0,l),
(545,700,l),
(395,700,l),
(395,172,l),
(454,183,l),
(198,700,l),
(55,700,l),
(55,0,l)
);
}
);
width = 600;
},
{
anchors = (
{
name = bottom;
pos = (301,0);
},
{
name = top;
pos = (301,700);
}
);
layerId = "FF94DDBB-E62A-4F15-93F9-F4255DC66883";
shapes = (
{
closed = 1;
nodes = (
(121,0,l),
(121,663,l),
(113,661,l),
(474,0,l),
(508,0,l),
(508,700,l),
(479,700,l),
(479,36,l),
(486,39,l),
(124,700,l),
(92,700,l),
(92,0,l)
);
}
);
width = 600;
}
);
unicode = 78;
},
{
glyphname = Eng;
kernLeft = H;
kernRight = H;
lastChange = "2025-07-25 14:12:02 +0000";
layers = (
{
hints = (
{
horizontal = 1;
origin = (1,11);
target = (1,10);
type = Stem;
},
{
horizontal = 1;
origin = (0,4);
target = up;
type = BottomGhost;
},
{
horizontal = 1;
origin = (1,5);
target = down;
type = TopGhost;
},
{
origin = (0,3);
target = (0,5);
type = Stem;
},
{
origin = (1,6);
target = (1,4);
type = Stem;
}
);
layerId = "D56600E4-3CB1-46B6-994E-4E22114E2E10";
shapes = (
{
closed = 1;
nodes = (
(436,219,l),
(198,700,l),
(56,700,l),
(56,0,l),
(206,0,l),
(206,508,l),
(160,497,l),
(421,-34,l)
);
},
{
closed = 1;
nodes = (
(345,-200,ls),
(482,-200,o),
(546,-130,o),
(546,12,cs),
(546,700,l),
(395,700,l),
(395,-19,ls),
(395,-51,o),
(379,-70,o),
(351,-70,cs),
(261,-70,l),
(261,-200,l)
);
}
);
width = 600;
},
{
layerId = "FF94DDBB-E62A-4F15-93F9-F4255DC66883";
shapes = (
{
closed = 1;
nodes = (
(490,32,l),
(124,700,l),
(92,700,l),
(92,0,l),
(121,0,l),
(121,662,l),
(114,659,l),
(490,-29,l)
);
},
{
closed = 1;
nodes = (
(398,-200,ls),
(463,-200,o),
(508,-155,o),
(508,-91,cs),
(508,700,l),
(479,700,l),
(479,-92,ls),
(479,-138,o),
(444,-172,o),
(399,-172,cs),
(322,-172,l),
(322,-200,l)
);
}
);
width = 600;
}
);
unicode = 330;
},
{
glyphname = O;
kernLeft = O;
kernRight = O;
lastChange = "2025-07-25 14:12:02 +0000";
layers = (
{
anchors = (
{
name = bottom;
pos = (301,-1);
},
{
name = center;
pos = (301,350);
},
{
name = tail.Q;
pos = (301,0);
},
{
name = top;
pos = (301,700);
},
{
name = topright;
pos = (363,700);
}
);
hints = (
{
horizontal = 1;
origin = (0,13);
target = (1,13);
type = Stem;
},
{
horizontal = 1;
origin = (0,6);
target = (1,6);
type = Stem;
},
{
origin = (0,10);
target = (1,3);
type = Stem;
},
{
origin = (1,10);
target = (0,3);
type = Stem;
}
);
layerId = "D56600E4-3CB1-46B6-994E-4E22114E2E10";
shapes = (
{
closed = 1;
nodes = (
(471,-15,o),
(571,119,o),
(571,346,cs),
(571,353,ls),
(571,581,o),
(471,715,o),
(301,715,cs),
(130,715,o),
(30,581,o),
(30,353,cs),
(30,346,ls),
(30,119,o),
(130,-15,o),
(301,-15,cs)
);
},
{
closed = 1;
nodes = (
(227,121,o),
(194,185,o),
(194,346,cs),
(194,353,ls),
(194,515,o),
(227,579,o),
(301,579,cs),
(374,579,o),
(407,515,o),
(407,353,cs),
(407,346,ls),
(407,185,o),
(374,121,o),
(301,121,cs)
);
}
);
width = 600;
},
{
anchors = (
{
name = bottom;
pos = (300,-1);
},
{
name = center;
pos = (300,350);
},
{
name = tail.Q;
pos = (300,0);
},
{
name = top;
pos = (300,700);
},
{
name = topright;
pos = (343,700);
}
);
layerId = "FF94DDBB-E62A-4F15-93F9-F4255DC66883";
shapes = (
{
closed = 1;
nodes = (
(444,-10,o),
(529,123,o),
(529,350,cs),
(529,360,ls),
(529,581,o),
(444,710,o),
(300,710,cs),
(156,710,o),
(71,581,o),
(71,360,cs),
(71,350,ls),
(71,123,o),
(156,-10,o),
(300,-10,cs)
);
},
{
closed = 1;
nodes = (
(174,19,o),
(100,141,o),
(100,350,cs),
(100,360,ls),
(100,562,o),
(174,681,o),
(300,681,cs),
(426,681,o),
(500,562,o),
(500,360,cs),
(500,350,ls),
(500,141,o),
(426,19,o),
(300,19,cs)
);
}
);
width = 600;
},
{
anchors = (
{
name = center;
pos = (387,350);
},
{
name = tail.Q;
pos = (387,0);
},
{
name = top;
pos = (387,700);
},
{
name = topright;
pos = (449,700);
}
);
associatedMasterId = "FF94DDBB-E62A-4F15-93F9-F4255DC66883";
layerId = "7D2C21F8-4F98-4D4C-8CCB-8A1DB30060B9";
name = "30. Apr. 25, 13:56";
shapes = (
{
closed = 1;
nodes = (
(580,-10,o),
(716,138,o),
(716,350,cs),
(716,360,ls),
(716,566,o),
(580,710,o),
(387,710,cs),
(194,710,o),
(58,566,o),
(58,360,cs),
(58,350,ls),
(58,138,o),
(194,-10,o),
(387,-10,cs)
);
},
{
closed = 1;
nodes = (
(212,19,o),
(88,154,o),
(88,350,cs),
(88,360,ls),
(88,549,o),
(212,681,o),
(387,681,cs),
(562,681,o),
(686,549,o),
(686,360,cs),
(686,350,ls),
(686,154,o),
(562,19,o),
(387,19,cs)
);
}
);
width = 600;
}
);
unicode = 79;
},
{
color = 8;
glyphname = Ohorn;
kernLeft = O;
kernRight = Ohorn;
lastChange = "2025-07-25 14:12:02 +0000";
layers = (
{
anchors = (
{
name = bottom;
pos = (300,0);
},
{
name = top;
pos = (304,700);
}
);
layerId = "FF94DDBB-E62A-4F15-93F9-F4255DC66883";
shapes = (
{
closed = 1;
nodes = (
(443,-10,o),
(529,123,o),
(529,350,cs),
(529,360,ls),
(529,494,o),
(487,604,o),
(425,661,c),
(418,656,l),
(430,653,o),
(440,653,o),
(443,653,cs),
(500,653,o),
(525,705,o),
(517,788,c),
(493,788,l),
(499,720,o),
(483,680,o),
(438,680,cs),
(401,680,o),
(349,710,o),
(301,710,cs),
(158,710,o),
(71,581,o),
(71,360,cs),
(71,350,ls),
(71,123,o),
(158,-10,o),
(301,-10,cs)
);
},
{
closed = 1;
nodes = (
(175,19,o),
(100,141,o),
(100,350,cs),
(100,360,ls),
(100,562,o),
(175,681,o),
(301,681,cs),
(417,681,o),
(500,549,o),
(500,360,cs),
(500,350,ls),
(500,141,o),
(426,19,o),
(301,19,cs)
);
}
);
width = 600;
},
{
anchors = (
{
name = bottom;
pos = (295,0);
},
{
name = top;
pos = (283,700);
}
);
hints = (
{
horizontal = 1;
origin = (0,27);
target = (1,13);
type = Stem;
},
{
horizontal = 1;
origin = (0,20);
target = (1,6);
type = Stem;
},
{
origin = (0,24);
target = (1,3);
type = Stem;
},
{
origin = (1,10);
target = (0,3);
type = Stem;
}
);
layerId = "D56600E4-3CB1-46B6-994E-4E22114E2E10";
shapes = (
{
closed = 1;
nodes = (
(473,-15,o),
(565,108,o),
(565,346,cs),
(565,353,ls),
(565,463,o),
(556,556,o),
(488,617,c),
(452,579,l),
(466,575,o),
(480,573,o),
(487,573,cs),
(576,573,o),
(617,660,o),
(587,788,c),
(462,788,l),
(476,732,o),
(483,680,o),
(439,680,cs),
(395,680,o),
(376,715,o),
(295,715,cs),
(123,715,o),
(34,592,o),
(34,353,cs),
(34,346,ls),
(34,108,o),
(123,-15,o),
(295,-15,cs)
);
},
{
closed = 1;
nodes = (
(225,121,o),
(198,184,o),
(198,346,cs),
(198,353,ls),
(198,516,o),
(225,579,o),
(295,579,cs),
(371,579,o),
(401,516,o),
(401,353,cs),
(401,346,ls),
(401,184,o),
(371,121,o),
(295,121,cs)
);
}
);
width = 600;
},
{
associatedMasterId = "D56600E4-3CB1-46B6-994E-4E22114E2E10";
layerId = "AA2B3D9E-4CC8-4C34-AB27-B8FD3E861C0F";
name = "16. Apr. 25, 12:19";
shapes = (
{
ref = O;
},
{
pos = (63,0);
ref = horncomb.case;
}
);
width = 600;
},
{
associatedMasterId = "FF94DDBB-E62A-4F15-93F9-F4255DC66883";
layerId = "35CC6ECA-E10F-45A4-A7C0-4D09A66640C8";
name = "16. Apr. 25, 12:19";
shapes = (
{
ref = O;
},
{
pos = (43,0);
ref = horncomb.case;
}
);
width = 600;
}
);
unicode = 416;
},
{
glyphname = OE;
kernRight = E;
lastChange = "2025-07-25 14:12:02 +0000";
layers = (
{
hints = (
{
horizontal = 1;
origin = (0,17);
target = (0,2);
type = Stem;
},
{
horizontal = 1;
origin = (2,3);
target = (2,2);
type = Stem;
},
{
horizontal = 1;
origin = (0,11);
target = (0,9);
type = Stem;
},
{
origin = (0,14);
target = (0,5);
type = Stem;
},
{
origin = (1,3);
target = (1,1);
type = Stem;
}
);
layerId = "D56600E4-3CB1-46B6-994E-4E22114E2E10";
shapes = (
{
closed = 1;
nodes = (
(583,0,l),
(583,135,l),
(300,135,ls),
(198,135,o),
(161,197,o),
(161,353,cs),
(161,505,o),
(198,565,o),
(300,565,cs),
(583,565,l),
(583,700,l),
(288,700,ls),
(111,700,o),
(7,572,o),
(7,353,cs),
(7,131,o),
(111,0,o),
(288,0,cs)
);
},
{
closed = 1;
nodes = (
(432,57,l),
(432,634,l),
(282,634,l),
(282,57,l)
);
},
{
closed = 1;
nodes = (
(562,288,l),
(562,416,l),
(360,416,l),
(360,288,l)
);
}
);
width = 600;
},
{
layerId = "FF94DDBB-E62A-4F15-93F9-F4255DC66883";
shapes = (
{
closed = 1;
nodes = (
(559,0,l),
(559,28,l),
(320,28,ls),
(178,28,o),
(92,120,o),
(92,356,cs),
(92,584,o),
(178,672,o),
(320,672,cs),
(559,672,l),
(559,700,l),
(320,700,ls),
(157,700,o),
(62,604,o),
(62,356,cs),
(62,100,o),
(157,0,o),
(320,0,cs)
);
},
{
closed = 1;
nodes = (
(370,13,l),
(370,686,l),
(341,686,l),
(341,13,l)
);
},
{
closed = 1;
nodes = (
(538,336,l),
(538,364,l),
(356,364,l),
(356,336,l)
);
}
);
width = 600;
}
);
unicode = 338;
},
{
glyphname = P;
kernLeft = H;
lastChange = "2025-07-25 14:12:02 +0000";
layers = (
{
hints = (
{
horizontal = 1;
origin = (0,20);
target = up;
type = BottomGhost;
},
{
horizontal = 1;
origin = (0,12);
target = (0,10);
type = Stem;
},
{
horizontal = 1;
origin = (0,19);
target = (0,3);
type = Stem;
},
{
origin = (0,20);
target = (0,1);
type = Stem;
},
{
origin = (0,6);
target = (0,15);
type = Stem;
}
);
layerId = "D56600E4-3CB1-46B6-994E-4E22114E2E10";
shapes = (
{
closed = 1;
nodes = (
(230,0,l),
(230,636,l),
(164,575,l),
(311,575,ls),
(379,575,o),
(413,534,o),
(413,471,cs),
(413,408,o),
(379,366,o),
(311,366,cs),
(144,366,l),
(144,244,l),
(313,244,ls),
(470,244,o),
(571,329,o),
(571,471,cs),
(571,614,o),
(470,700,o),
(313,700,cs),
(70,700,l),
(70,0,l)
);
}
);
width = 600;
},
{
layerId = "FF94DDBB-E62A-4F15-93F9-F4255DC66883";
shapes = (
{
closed = 1;
nodes = (
(129,0,l),
(129,685,l),
(116,672,l),
(311,672,ls),
(419,672,o),
(497,610,o),
(497,503,cs),
(497,396,o),
(419,333,o),
(311,333,cs),
(114,333,l),
(114,306,l),
(310,306,ls),
(437,306,o),
(526,378,o),
(526,503,cs),
(526,628,o),
(437,700,o),
(310,700,cs),
(100,700,l),
(100,0,l)
);
}
);
width = 600;
}
);
unicode = 80;
},
{
glyphname = Thorn;
kernLeft = H;
lastChange = "2025-07-25 14:12:02 +0000";
layers = (
{
hints = (
{
horizontal = 1;
origin = (1,3);
target = up;
type = BottomGhost;
},
{
horizontal = 1;
origin = (0,17);
target = (0,16);
type = Stem;
},
{
horizontal = 1;
origin = (0,9);
target = (0,7);
type = Stem;
},
{
horizontal = 1;
origin = (1,2);
target = down;
type = TopGhost;
},
{
origin = (1,3);
target = (1,1);
type = Stem;
},
{
origin = (0,12);
target = (0,3);
type = Stem;
}
);
layerId = "D56600E4-3CB1-46B6-994E-4E22114E2E10";
shapes = (
{
closed = 1;
nodes = (
(323,122,ls),
(480,122,o),
(581,207,o),
(581,349,cs),
(581,492,o),
(480,578,o),
(323,578,cs),
(144,578,l),
(144,453,l),
(321,453,ls),
(389,453,o),
(423,412,o),
(423,349,cs),
(423,286,o),
(389,244,o),
(321,244,cs),
(144,244,l),
(144,122,l)
);
},
{
closed = 1;
nodes = (
(230,0,l),
(230,700,l),
(70,700,l),
(70,0,l)
);
}
);
width = 600;
},
{
layerId = "FF94DDBB-E62A-4F15-93F9-F4255DC66883";
shapes = (
{
closed = 1;
nodes = (
(310,153,ls),
(437,153,o),
(526,225,o),
(526,350,cs),
(526,475,o),
(437,547,o),
(310,547,cs),
(124,547,l),
(124,520,l),
(311,520,ls),
(419,520,o),
(497,457,o),
(497,350,cs),
(497,243,o),
(419,180,o),
(311,180,cs),
(124,180,l),
(124,153,l)
);
},
{
closed = 1;
nodes = (
(139,0,l),
(139,700,l),
(110,700,l),
(110,0,l)
);
}
);
width = 600;
}
);
unicode = 222;
},
{
glyphname = R;
kernLeft = H;
kernRight = R;
lastChange = "2025-07-25 14:12:02 +0000";
layers = (
{
anchors = (
{
name = bottom;
pos = (327,0);
},
{
name = top;
pos = (314,700);
}
);
hints = (
{
horizontal = 1;
origin = (1,3);
target = up;
type = BottomGhost;
},
{
horizontal = 1;
origin = (0,12);
target = (0,10);
type = Stem;
},
{
horizontal = 1;
origin = (0,19);
target = (0,3);
type = Stem;
},
{
origin = (0,20);
target = (0,1);
type = Stem;
},
{
origin = (0,6);
target = (0,15);
type = Stem;
}
);
layerId = "D56600E4-3CB1-46B6-994E-4E22114E2E10";
shapes = (
{
closed = 1;
nodes = (
(230,0,l),
(230,626,l),
(164,576,l),
(308,576,ls),
(373,576,o),
(406,539,o),
(406,467,cs),
(406,396,o),
(373,360,o),
(308,360,cs),
(143,360,l),
(143,237,l),
(316,237,ls),
(469,237,o),
(570,319,o),
(570,470,cs),
(570,618,o),
(469,700,o),
(316,700,cs),
(70,700,l),
(70,0,l)
);
},
{
closed = 1;
nodes = (
(601,0,l),
(438,306,l),
(266,306,l),
(419,0,l)
);
}
);
width = 600;
},
{
anchors = (
{
name = bottom;
pos = (289,0);
},
{
name = top;
pos = (266,700);
}
);
layerId = "FF94DDBB-E62A-4F15-93F9-F4255DC66883";
shapes = (
{
closed = 1;
nodes = (
(129,0,l),
(129,685,l),
(116,672,l),
(297,672,ls),
(412,672,o),
(488,617,o),
(488,506,cs),
(488,386,o),
(412,342,o),
(297,342,cs),
(114,342,l),
(114,314,l),
(297,314,ls),
(430,314,o),
(518,368,o),
(518,506,cs),
(518,635,o),
(430,700,o),
(297,700,cs),
(100,700,l),
(100,0,l)
);
},
{
closed = 1;
nodes = (
(539,0,l),
(307,327,l),
(270,327,l),
(502,0,l)
);
}
);
width = 600;
}
);
unicode = 82;
},
{
glyphname = S;
kernLeft = S;
kernRight = S;
lastChange = "2025-07-25 14:12:02 +0000";
layers = (
{
anchors = (
{
name = bottom;
pos = (297,0);
},
{
name = top;
pos = (311,700);
}
);
hints = (
{
horizontal = 1;
origin = (0,31);
target = (0,24);
type = Stem;
},
{
horizontal = 1;
origin = (0,15);
target = (0,8);
type = Stem;
},
{
origin = (0,18);
target = (0,5);
type = Stem;
},
{
origin = (0,21);
target = (0,2);
type = Stem;
}
);
layerId = "D56600E4-3CB1-46B6-994E-4E22114E2E10";
shapes = (
{
closed = 1;
nodes = (
(444,-15,o),
(553,77,o),
(553,216,cs),
(553,468,o),
(213,378,o),
(213,512,cs),
(213,558,o),
(250,586,o),
(307,586,cs),
(357,586,o),
(399,563,o),
(440,521,c),
(538,618,l),
(487,676,o),
(406,715,o),
(307,715,cs),
(155,715,o),
(54,630,o),
(54,494,cs),
(54,250,o),
(389,326,o),
(389,191,cs),
(389,145,o),
(349,114,o),
(290,114,cs),
(238,114,o),
(190,138,o),
(136,195,c),
(37,97,l),
(95,30,o),
(173,-15,o),
(284,-15,cs)
);
}
);
width = 600;
},
{
anchors = (
{
name = bottom;
pos = (287,0);
},
{
name = top;
pos = (322,700);
}
);
layerId = "FF94DDBB-E62A-4F15-93F9-F4255DC66883";
shapes = (
{
closed = 1;
nodes = (
(418,-10,o),
(509,64,o),
(509,187,cs),
(509,442,o),
(125,307,o),
(125,523,cs),
(125,618,o),
(199,683,o),
(313,683,cs),
(377,683,o),
(427,663,o),
(464,625,c),
(483,646,l),
(445,687,o),
(387,710,o),
(314,710,cs),
(182,710,o),
(96,635,o),
(96,520,cs),
(96,280,o),
(479,410,o),
(479,184,cs),
(479,84,o),
(405,17,o),
(288,17,cs),
(210,17,o),
(144,47,o),
(102,100,c),
(83,79,l),
(127,23,o),
(199,-10,o),
(287,-10,cs)
);
}
);
width = 600;
}
);
unicode = 83;
},
{
glyphname = Germandbls;
lastChange = "2025-07-25 14:12:02 +0000";
layers = (
{
hints = (
{
horizontal = 1;
origin = (0,37);
target = (0,30);
type = Stem;
},
{
horizontal = 1;
origin = (0,10);
target = (0,19);
type = Stem;
},
{
horizontal = 1;
origin = (0,15);
target = (0,34);
type = Stem;
},
{
origin = (0,14);
target = (0,16);
type = Stem;
},
{
origin = (0,27);
target = (0,2);
type = Stem;
}
);
layerId = "D56600E4-3CB1-46B6-994E-4E22114E2E10";
shapes = (
{
closed = 1;
nodes = (
(496,-10,o),
(589,76,o),
(589,201,cs),
(589,276,o),
(553,337,o),
(491,374,c),
(491,348,l),
(589,560,l),
(516,666,o),
(427,715,o),
(311,715,cs),
(150,715,o),
(46,614,o),
(46,457,cs),
(46,0,l),
(205,0,l),
(205,468,ls),
(205,537,o),
(241,579,o),
(311,579,cs),
(357,579,o),
(400,557,o),
(426,513,c),
(417,547,l),
(313,315,l),
(398,285,o),
(426,250,o),
(426,205,cs),
(426,156,o),
(395,128,o),
(349,128,cs),
(326,128,o),
(299,138,o),
(274,152,c),
(230,23,l),
(264,3,o),
(304,-10,o),
(357,-10,cs)
);
}
);
width = 600;
},
{
layerId = "FF94DDBB-E62A-4F15-93F9-F4255DC66883";
shapes = (
{
closed = 1;
nodes = (
(466,-10,o),
(550,69,o),
(550,180,cs),
(550,267,o),
(496,333,o),
(432,360,c),
(432,348,l),
(541,577,l),
(493,661,o),
(409,710,o),
(312,710,cs),
(179,710,o),
(82,632,o),
(82,472,cs),
(82,0,l),
(111,0,l),
(111,472,ls),
(111,614,o),
(196,682,o),
(311,682,cs),
(395,682,o),
(471,637,o),
(514,562,c),
(513,583,l),
(400,346,l),
(469,321,o),
(521,259,o),
(521,181,cs),
(521,86,o),
(450,19,o),
(353,19,cs),
(308,19,o),
(262,33,o),
(229,59,c),
(217,35,l),
(248,11,o),
(301,-10,o),
(357,-10,cs)
);
}
);
width = 600;
}
);
unicode = 7838;
},
{
glyphname = T;
kernLeft = T;
kernRight = T;
lastChange = "2025-07-25 14:12:02 +0000";
layers = (
{
anchors = (
{
name = bottom;
pos = (299,0);
},
{
name = center;
pos = (299,338);
},
{
name = top;
pos = (300,700);
}
);
hints = (
{
horizontal = 1;
origin = (0,3);
target = up;
type = BottomGhost;
},
{
horizontal = 1;
origin = (1,2);
target = (1,3);
type = Stem;
},
{
origin = (0,3);
target = (0,1);
type = Stem;
}
);
layerId = "D56600E4-3CB1-46B6-994E-4E22114E2E10";
shapes = (
{
closed = 1;
nodes = (
(379,0,l),
(379,633,l),
(218,633,l),
(218,0,l)
);
},
{
closed = 1;
nodes = (
(570,565,l),
(570,700,l),
(30,700,l),
(30,565,l)
);
}
);
width = 600;
},
{
anchors = (
{
name = bottom;
pos = (300,0);
},
{
name = center;
pos = (300,368);
},
{
name = top;
pos = (300,700);
}
);
layerId = "FF94DDBB-E62A-4F15-93F9-F4255DC66883";
shapes = (
{
closed = 1;
nodes = (
(315,0,l),
(315,686,l),
(285,686,l),
(285,0,l)
);
},
{
closed = 1;
nodes = (
(543,672,l),
(543,700,l),
(57,700,l),
(57,672,l)
);
}
);
width = 600;
}
);
unicode = 84;
},
{
glyphname = Tbar;
kernLeft = T;
kernRight = T;
lastChange = "2025-07-25 16:43:10 +0000";
layers = (
{
hints = (
{
horizontal = 1;
origin = (0,3);
target = up;
type = BottomGhost;
},
{
horizontal = 1;
origin = (1,2);
target = (1,3);
type = Stem;
},
{
origin = (0,3);
target = (0,1);
type = Stem;
},
{
horizontal = 1;
origin = (2,0);
target = (2,1);
type = Stem;
}
);
layerId = "D56600E4-3CB1-46B6-994E-4E22114E2E10";
shapes = (
{
closed = 1;
nodes = (
(379,0,l),
(379,633,l),
(218,633,l),
(218,0,l)
);
},
{
closed = 1;
nodes = (
(570,565,l),
(570,700,l),
(30,700,l),
(30,565,l)
);
},
{
closed = 1;
nodes = (
(506,282,l),
(506,401,l),
(92,401,l),
(92,282,l)
);
}
);
width = 600;
},
{
layerId = "FF94DDBB-E62A-4F15-93F9-F4255DC66883";
shapes = (
{
closed = 1;
nodes = (
(315,0,l),
(315,686,l),
(285,686,l),
(285,0,l)
);
},
{
closed = 1;
nodes = (
(543,672,l),
(543,700,l),
(57,700,l),
(57,672,l)
);
},
{
closed = 1;
nodes = (
(466,354,l),
(466,381,l),
(134,381,l),
(134,354,l)
);
}
);
width = 600;
}
);
unicode = 358;
},
{
glyphname = U;
kernLeft = U;
kernRight = U;
lastChange = "2025-07-25 14:12:02 +0000";
layers = (
{
anchors = (
{
name = bottom;
pos = (300,0);
},
{
name = ogonek;
pos = (392,0);
},
{
name = top;
pos = (301,700);
},
{
name = topright;
pos = (391,700);
}
);
hints = (
{
horizontal = 1;
origin = (0,17);
target = (0,8);
type = Stem;
},
{
horizontal = 1;
origin = (0,13);
target = down;
type = TopGhost;
},
{
origin = (0,12);
target = (0,14);
type = Stem;
},
{
origin = (0,3);
target = (0,5);
type = Stem;
}
);
layerId = "D56600E4-3CB1-46B6-994E-4E22114E2E10";
shapes = (
{
closed = 1;
nodes = (
(469,-15,o),
(552,67,o),
(552,248,cs),
(552,700,l),
(391,700,l),
(391,249,ls),
(391,161,o),
(363,121,o),
(300,121,cs),
(237,121,o),
(209,161,o),
(209,249,cs),
(209,700,l),
(48,700,l),
(48,248,ls),
(48,67,o),
(129,-15,o),
(300,-15,cs)
);
}
);
width = 600;
},
{
anchors = (
{
name = bottom;
pos = (300,0);
},
{
name = ogonek;
pos = (371,0);
},
{
name = top;
pos = (301,700);
},
{
name = topright;
pos = (478,700);
}
);
layerId = "FF94DDBB-E62A-4F15-93F9-F4255DC66883";
shapes = (
{
closed = 1;
nodes = (
(436,-10,o),
(506,71,o),
(506,228,cs),
(506,700,l),
(478,700,l),
(478,229,ls),
(478,90,o),
(417,18,o),
(300,18,cs),
(183,18,o),
(123,90,o),
(123,229,cs),
(123,700,l),
(95,700,l),
(95,228,ls),
(95,71,o),
(165,-10,o),
(300,-10,cs)
);
}
);
width = 600;
}
);
unicode = 85;
},
{
color = 8;
glyphname = Uhorn;
kernLeft = U;
kernRight = Uhorn;
lastChange = "2025-07-25 14:12:02 +0000";
layers = (
{
anchors = (
{
name = bottom;
pos = (294,0);
},
{
name = top;
pos = (295,700);
}
);
layerId = "FF94DDBB-E62A-4F15-93F9-F4255DC66883";
shapes = (
{
closed = 1;
nodes = (
(423,-10,o),
(490,71,o),
(490,218,cs),
(490,689,l),
(479,676,l),
(572,673,o),
(612,722,o),
(600,808,c),
(572,808,l),
(581,739,o),
(554,700,o),
(489,700,cs),
(462,700,l),
(462,219,ls),
(462,90,o),
(405,18,o),
(294,18,cs),
(184,18,o),
(127,90,o),
(127,219,cs),
(127,700,l),
(99,700,l),
(99,218,ls),
(99,71,o),
(165,-10,o),
(294,-10,cs)
);
}
);
width = 600;
},
{
anchors = (
{
name = bottom;
pos = (302,0);
},
{
name = top;
pos = (282,700);
}
);
hints = (
{
horizontal = 1;
origin = (0,25);
target = (0,16);
type = Stem;
},
{
horizontal = 1;
origin = (0,21);
target = down;
type = TopGhost;
},
{
origin = (0,20);
target = (0,22);
type = Stem;
},
{
origin = (0,3,0,7);
stem = 1000;
target = (0,13);
type = Stem;
}
);
layerId = "D56600E4-3CB1-46B6-994E-4E22114E2E10";
shapes = (
{
closed = 1;
nodes = (
(471,-15,o),
(554,67,o),
(554,248,cs),
(554,685,l),
(461,634,l),
(583,641,o),
(618,694,o),
(592,808,c),
(470,808,l),
(489,731,o),
(469,700,o),
(403,700,cs),
(393,700,l),
(393,249,ls),
(393,158,o),
(375,121,o),
(302,121,cs),
(229,121,o),
(211,158,o),
(211,249,cs),
(211,700,l),
(50,700,l),
(50,248,ls),
(50,67,o),
(131,-15,o),
(302,-15,cs)
);
}
);
width = 600;
},
{
associatedMasterId = "D56600E4-3CB1-46B6-994E-4E22114E2E10";
layerId = "8572294C-5ED4-43E6-A780-BECEF8F917C2";
name = "16. Apr. 25, 12:22";
shapes = (
{
ref = U;
},
{
pos = (91,0);
ref = horncomb.case;
}
);
width = 600;
},
{
associatedMasterId = "FF94DDBB-E62A-4F15-93F9-F4255DC66883";
layerId = "F9C4D0D9-9DE8-455A-8C10-A481491FE86A";
name = "16. Apr. 25, 12:23";
shapes = (
{
ref = U;
},
{
pos = (178,0);
ref = horncomb.case;
}
);
width = 600;
}
);
unicode = 431;
},
{
glyphname = V;
lastChange = "2025-07-25 14:12:02 +0000";
layers = (
{
hints = (
{
horizontal = 1;
origin = (0,7);
target = up;
type = BottomGhost;
},
{
horizontal = 1;
origin = (0,6);
target = down;
type = TopGhost;
}
);
layerId = "D56600E4-3CB1-46B6-994E-4E22114E2E10";
shapes = (
{
closed = 1;
nodes = (
(385,0,l),
(586,700,l),
(420,700,l),
(276,120,l),
(324,120,l),
(179,700,l),
(14,700,l),
(213,0,l)
);
}
);
width = 600;
},
{
layerId = "FF94DDBB-E62A-4F15-93F9-F4255DC66883";
shapes = (
{
closed = 1;
nodes = (
(315,0,l),
(554,700,l),
(523,700,l),
(296,26,l),
(304,26,l),
(77,700,l),
(46,700,l),
(284,0,l)
);
}
);
width = 600;
}
);
unicode = 86;
},
{
glyphname = W;
kernLeft = W;
kernRight = W;
lastChange = "2025-07-25 14:12:02 +0000";
layers = (
{
anchors = (
{
name = top;
pos = (301,700);
}
);
hints = (
{
horizontal = 1;
origin = (0,15);
target = up;
type = BottomGhost;
},
{
horizontal = 1;
origin = (0,14);
target = down;
type = TopGhost;
}
);
layerId = "D56600E4-3CB1-46B6-994E-4E22114E2E10";
shapes = (
{
closed = 1;
nodes = (
(228,0,l),
(323,453,l),
(278,453,l),
(373,0,l),
(528,0,l),
(597,700,l),
(465,700,l),
(425,127,l),
(458,127,l),
(360,570,l),
(242,570,l),
(142,127,l),
(175,127,l),
(136,700,l),
(3,700,l),
(72,0,l)
);
}
);
width = 600;
},
{
anchors = (
{
name = top;
pos = (301,700);
}
);
layerId = "FF94DDBB-E62A-4F15-93F9-F4255DC66883";
shapes = (
{
closed = 1;
nodes = (
(189,0,l),
(305,500,l),
(296,500,l),
(413,0,l),
(442,0,l),
(560,700,l),
(530,700,l),
(424,29,l),
(432,29,l),
(316,530,l),
(285,530,l),
(169,28,l),
(178,28,l),
(71,700,l),
(41,700,l),
(159,0,l)
);
}
);
width = 600;
}
);
unicode = 87;
},
{
glyphname = X;
lastChange = "2025-07-25 14:12:02 +0000";
layers = (
{
hints = (
{
horizontal = 1;
origin = (0,11);
target = up;
type = BottomGhost;
},
{
horizontal = 1;
origin = (0,9);
target = down;
type = TopGhost;
}
);
layerId = "D56600E4-3CB1-46B6-994E-4E22114E2E10";
shapes = (
{
closed = 1;
nodes = (
(183,0,l),
(300,245,l),
(418,0,l),
(595,0,l),
(413,356,l),
(592,700,l),
(405,700,l),
(300,468,l),
(195,700,l),
(9,700,l),
(187,356,l),
(5,0,l)
);
}
);
width = 600;
},
{
layerId = "FF94DDBB-E62A-4F15-93F9-F4255DC66883";
shapes = (
{
closed = 1;
nodes = (
(79,0,l),
(300,327,l),
(521,0,l),
(555,0,l),
(320,349,l),
(546,700,l),
(511,700,l),
(300,372,l),
(90,700,l),
(54,700,l),
(280,349,l),
(45,0,l)
);
}
);
width = 600;
}
);
unicode = 88;
},
{
glyphname = Y;
kernLeft = Y;
kernRight = Y;
lastChange = "2025-07-25 14:12:02 +0000";
layers = (
{
anchors = (
{
name = bottom;
pos = (301,0);
},
{
name = top;
pos = (301,700);
}
);
hints = (
{
horizontal = 1;
origin = (0,0);
target = up;
type = BottomGhost;
},
{
horizontal = 1;
origin = (0,3);
target = down;
type = TopGhost;
},
{
origin = (0,9);
target = (0,1);
type = Stem;
}
);
layerId = "D56600E4-3CB1-46B6-994E-4E22114E2E10";
shapes = (
{
closed = 1;
nodes = (
(381,0,l),
(381,284,l),
(602,700,l),
(429,700,l),
(269,386,l),
(332,386,l),
(172,700,l),
(-1,700,l),
(220,284,l),
(220,0,l)
);
}
);
width = 600;
},
{
anchors = (
{
name = bottom;
pos = (301,0);
},
{
name = top;
pos = (301,700);
}
);
layerId = "FF94DDBB-E62A-4F15-93F9-F4255DC66883";
shapes = (
{
closed = 1;
nodes = (
(315,0,l),
(315,305,l),
(583,700,l),
(549,700,l),
(294,324,l),
(307,324,l),
(51,700,l),
(18,700,l),
(286,305,l),
(286,0,l)
);
}
);
width = 600;
}
);
unicode = 89;
},
{
glyphname = Z;
kernLeft = Z;
kernRight = Z;
lastChange = "2025-07-25 14:12:02 +0000";
layers = (
{
anchors = (
{
name = top;
pos = (306,700);
}
);
hints = (
{
horizontal = 1;
origin = (0,11);
target = (0,2);
type = Stem;
},
{
horizontal = 1;
origin = (0,6);
target = (0,8);
type = Stem;
}
);
layerId = "D56600E4-3CB1-46B6-994E-4E22114E2E10";
shapes = (
{
closed = 1;
nodes = (
(558,0,l),
(558,129,l),
(172,129,l),
(194,88,l),
(554,566,l),
(554,700,l),
(57,700,l),
(57,571,l),
(417,571,l),
(393,613,l),
(43,140,l),
(43,0,l)
);
}
);
width = 600;
},
{
anchors = (
{
name = top;
pos = (306,700);
}
);
layerId = "FF94DDBB-E62A-4F15-93F9-F4255DC66883";
shapes = (
{
closed = 1;
nodes = (
(547,0,l),
(547,28,l),
(82,28,l),
(88,19,l),
(547,674,l),
(547,700,l),
(64,700,l),
(64,672,l),
(520,672,l),
(515,681,l),
(54,26,l),
(54,0,l)
);
}
);
width = 600;
}
);
unicode = 90;
},
{
glyphname = a;
kernLeft = a;
kernRight = a;
lastChange = "2025-07-25 16:43:50 +0000";
layers = (
{
anchors = (
{
name = bottom;
pos = (285,0);
},
{
name = ogonek;
pos = (512,0);
},
{
name = top;
pos = (297,493);
}
);
hints = (
{
horizontal = 1;
origin = (2,5);
target = (1,6);
type = Stem;
},
{
horizontal = 1;
origin = (0,7);
target = (0,14);
type = Stem;
},
{
horizontal = 1;
origin = (1,12);
target = (2,11);
type = Stem;
},
{
origin = (1,9);
place = (72,150);
type = Stem;
},
{
origin = (0,17);
place = (361,150);
type = Stem;
}
);
layerId = "D56600E4-3CB1-46B6-994E-4E22114E2E10";
shapes = (
{
closed = 1;
nodes = (
(512,0,l),
(509,52,o),
(509,103,o),
(509,155,cs),
(509,316,ls),
(509,436,o),
(420,503,o),
(297,503,cs),
(210,503,o),
(129,470,o),
(85,423,c),
(139,330,l),
(185,364,o),
(242,384,o),
(287,384,cs),
(327,384,o),
(361,366,o),
(361,317,cs),
(361,202,l),
(379,145,l),
(379,0,l)
);
},
{
closed = 1;
nodes = (
(331,-10,o),
(392,52,o),
(392,145,c),
(435,145,l),
(435,227,o),
(360,288,o),
(261,288,cs),
(133,288,o),
(72,226,o),
(72,136,cs),
(72,50,o),
(133,-10,o),
(239,-10,cs)
);
},
{
closed = 1;
nodes = (
(251,90,o),
(222,112,o),
(222,145,cs),
(222,177,o),
(251,199,o),
(291,199,cs),
(334,199,o),
(362,177,o),
(362,145,cs),
(362,112,o),
(334,90,o),
(291,90,cs)
);
}
);
width = 600;
},
{
anchors = (
{
name = bottom;
pos = (301,0);
},
{
name = ogonek;
pos = (467,0);
},
{
name = top;
pos = (300,472);
}
);
background = {
shapes = (
{
closed = 1;
nodes = (
(378,-10,o),
(434,26,o),
(469,86,c),
(445,102,l),
(415,49,o),
(367,18,o),
(305,18,cs),
(201,18,o),
(131,105,o),
(131,235,cs),
(131,243,ls),
(131,370,o),
(201,454,o),
(305,454,cs),
(365,454,o),
(411,426,o),
(441,379,c),
(466,395,l),
(431,450,o),
(376,482,o),
(305,482,cs),
(183,482,o),
(102,386,o),
(102,243,cs),
(102,235,ls),
(102,88,o),
(183,-10,o),
(305,-10,cs)
);
}
);
};
layerId = "FF94DDBB-E62A-4F15-93F9-F4255DC66883";
shapes = (
{
closed = 1;
nodes = (
(467,0,l),
(465,54,o),
(464,107,o),
(464,161,cs),
(464,309,ls),
(464,418,o),
(403,482,o),
(300,482,cs),
(231,482,o),
(170,453,o),
(130,401,c),
(147,380,l),
(185,430,o),
(238,454,o),
(298,454,cs),
(386,454,o),
(436,399,o),
(436,309,cs),
(436,161,l),
(438,161,l),
(438,0,l)
);
},
{
closed = 1;
nodes = (
(383,-10,o),
(454,49,o),
(454,128,c),
(457,128,l),
(457,203,o),
(385,260,o),
(290,260,cs),
(177,260,o),
(114,205,o),
(114,126,cs),
(114,44,o),
(179,-10,o),
(289,-10,cs)
);
},
{
closed = 1;
nodes = (
(195,15,o),
(143,62,o),
(143,126,cs),
(143,191,o),
(195,235,o),
(292,235,cs),
(374,235,o),
(436,188,o),
(436,125,cs),
(436,62,o),
(374,15,o),
(293,15,cs)
);
}
);
width = 600;
},
{
anchors = (
{
name = bottom;
pos = (294,0);
},
{
name = ogonek;
pos = (486,0);
},
{
name = top;
pos = (299,481);
}
);
associatedMasterId = "FF94DDBB-E62A-4F15-93F9-F4255DC66883";
attr = {
coordinates = (
400
);
};
background = {
shapes = (
{
closed = 1;
nodes = (
(378,-10,o),
(434,26,o),
(469,86,c),
(445,102,l),
(415,49,o),
(367,18,o),
(305,18,cs),
(201,18,o),
(131,105,o),
(131,235,cs),
(131,243,ls),
(131,370,o),
(201,454,o),
(305,454,cs),
(365,454,o),
(411,426,o),
(441,379,c),
(466,395,l),
(431,450,o),
(376,482,o),
(305,482,cs),
(183,482,o),
(102,386,o),
(102,243,cs),
(102,235,ls),
(102,88,o),
(183,-10,o),
(305,-10,cs)
);
}
);
};
hints = (
{
horizontal = 1;
origin = (2,5);
target = (1,6);
type = Stem;
},
{
horizontal = 1;
origin = (0,7);
target = (0,14);
type = Stem;
},
{
horizontal = 1;
origin = (1,12);
target = (2,11);
type = Stem;
},
{
place = (19,64);
type = Stem;
},
{
place = (143,64);
type = Stem;
}
);
layerId = "B09ACAFB-4935-4C4E-AEFF-B66A543DAD10";
name = "13. Juli 25, 15:11";
shapes = (
{
closed = 1;
nodes = (
(486,0,l),
(484,52,o),
(483,105,o),
(483,158,cs),
(483,312,ls),
(483,426,o),
(410,491,o),
(299,491,cs),
(222,491,o),
(153,461,o),
(111,410,c),
(144,359,l),
(185,402,o),
(240,424,o),
(293,424,cs),
(361,424,o),
(404,385,o),
(404,312,cs),
(404,179,l),
(413,154,l),
(413,0,l)
);
},
{
closed = 1;
nodes = (
(361,-10,o),
(427,50,o),
(427,135,c),
(448,135,l),
(448,214,o),
(374,274,o),
(278,274,cs),
(158,274,o),
(96,215,o),
(96,130,cs),
(96,47,o),
(159,-10,o),
(268,-10,cs)
);
},
{
closed = 1;
nodes = (
(219,47,o),
(177,81,o),
(177,130,cs),
(177,178,o),
(219,212,o),
(292,212,cs),
(357,212,o),
(404,176,o),
(404,130,cs),
(404,81,o),
(357,47,o),
(292,47,cs)
);
}
);
width = 600;
}
);
unicode = 97;
},
{
glyphname = ae;
kernLeft = a;
kernRight = e;
lastChange = "2025-07-25 16:44:02 +0000";
layers = (
{
anchors = (
{
name = bottom;
pos = (300,0);
},
{
name = top;
pos = (300,493);
}
);
hints = (
{
origin = (1,9);
target = (2,2);
type = Stem;
},
{
horizontal = 1;
origin = (0,19);
target = (0,18);
type = Stem;
},
{
horizontal = 1;
origin = (0,44);
target = (0,6);
type = Stem;
},
{
horizontal = 1;
origin = (0,23);
target = (0,13);
type = Stem;
},
{
origin = (0,16);
target = (0,20);
type = Stem;
},
{
origin = (0,41);
target = (0,9);
type = Stem;
}
);
layerId = "D56600E4-3CB1-46B6-994E-4E22114E2E10";
shapes = (
{
closed = 1;
nodes = (
(480,-10,o),
(533,13,o),
(566,67,c),
(491,148,l),
(471,120,o),
(457,105,o),
(424,105,cs),
(376,105,o),
(357,170,o),
(357,241,cs),
(357,252,ls),
(357,336,o),
(368,396,o),
(411,396,cs),
(447,396,o),
(470,336,o),
(448,233,c),
(515,289,l),
(322,289,l),
(322,204,l),
(581,204,l),
(603,400,o),
(539,501,o),
(413,501,cs),
(351,501,o),
(304,471,o),
(268,413,c),
(326,413,l),
(295,469,o),
(244,501,o),
(185,501,cs),
(117,501,o),
(51,470,o),
(18,422,c),
(76,331,l),
(103,363,o),
(138,383,o),
(173,383,cs),
(207,383,o),
(225,358,o),
(225,309,cs),
(225,242,ls),
(225,90,o),
(304,-10,o),
(416,-10,cs)
);
},
{
closed = 1;
nodes = (
(243,-10,o),
(306,52,o),
(306,145,c),
(304,145,l),
(304,230,o),
(262,287,o),
(167,287,cs),
(65,287,o),
(6,224,o),
(6,136,cs),
(6,48,o),
(64,-10,o),
(158,-10,cs)
);
},
{
closed = 1;
nodes = (
(155,89,o),
(139,109,o),
(139,143,cs),
(139,176,o),
(155,196,o),
(182,196,cs),
(208,196,o),
(223,176,o),
(223,143,cs),
(223,109,o),
(208,89,o),
(182,89,cs)
);
}
);
width = 600;
},
{
anchors = (
{
name = bottom;
pos = (299,0);
},
{
name = top;
pos = (299,472);
}
);
layerId = "FF94DDBB-E62A-4F15-93F9-F4255DC66883";
shapes = (
{
closed = 1;
nodes = (
(489,-10,o),
(533,9,o),
(558,38,c),
(543,61,l),
(521,36,o),
(485,18,o),
(446,18,cs),
(358,18,o),
(299,106,o),
(299,234,cs),
(299,245,ls),
(299,367,o),
(351,454,o),
(431,454,cs),
(507,454,o),
(552,372,o),
(543,250,c),
(560,262,l),
(288,262,l),
(288,235,l),
(573,235,l),
(585,380,o),
(526,482,o),
(432,482,cs),
(362,482,o),
(303,425,o),
(282,335,c),
(296,335,l),
(292,432,o),
(246,482,o),
(172,482,cs),
(127,482,o),
(76,462,o),
(46,416,c),
(60,394,l),
(88,436,o),
(132,454,o),
(170,454,cs),
(233,454,o),
(270,408,o),
(270,327,cs),
(270,235,ls),
(270,91,o),
(342,-10,o),
(445,-10,cs)
);
},
{
closed = 1;
nodes = (
(248,-10,o),
(300,44,o),
(300,128,c),
(298,128,l),
(298,209,o),
(251,260,o),
(171,260,cs),
(89,260,o),
(33,206,o),
(33,126,cs),
(33,44,o),
(89,-10,o),
(169,-10,cs)
);
},
{
closed = 1;
nodes = (
(105,15,o),
(62,59,o),
(62,126,cs),
(62,191,o),
(105,235,o),
(170,235,cs),
(236,235,o),
(278,192,o),
(278,126,cs),
(278,58,o),
(235,15,o),
(170,15,cs)
);
}
);
width = 600;
},
{
anchors = (
{
name = bottom;
pos = (299,0);
},
{
name = top;
pos = (299,481);
}
);
associatedMasterId = "FF94DDBB-E62A-4F15-93F9-F4255DC66883";
attr = {
coordinates = (
400
);
};
hints = (
{
origin = (1,9);
target = (2,2);
type = Stem;
},
{
place = (228,63);
type = Stem;
},
{
horizontal = 1;
origin = (0,19);
target = (0,18);
type = Stem;
},
{
horizontal = 1;
origin = (0,44);
target = (0,6);
type = Stem;
},
{
horizontal = 1;
origin = (0,23);
target = (0,13);
type = Stem;
}
);
layerId = "F2CFC5E6-9DB6-41F5-93FD-54EA8C4CC765";
name = "13. Juli 25, 15:12";
shapes = (
{
closed = 1;
nodes = (
(485,-10,o),
(533,11,o),
(561,50,c),
(521,98,l),
(500,72,o),
(473,55,o),
(437,55,cs),
(366,55,o),
(324,133,o),
(324,237,cs),
(324,248,ls),
(324,354,o),
(358,429,o),
(422,429,cs),
(481,429,o),
(517,357,o),
(502,243,c),
(541,274,l),
(303,274,l),
(303,212,l),
(576,212,l),
(593,389,o),
(532,490,o),
(424,490,cs),
(357,490,o),
(304,445,o),
(276,368,c),
(309,368,l),
(293,449,o),
(245,490,o),
(178,490,cs),
(123,490,o),
(65,465,o),
(34,419,c),
(67,367,l),
(94,404,o),
(135,424,o),
(171,424,cs),
(222,424,o),
(251,387,o),
(251,319,cs),
(251,238,ls),
(251,91,o),
(326,-10,o),
(433,-10,cs)
);
},
{
closed = 1;
nodes = (
(246,-10,o),
(303,47,o),
(303,135,c),
(301,135,l),
(301,218,o),
(256,272,o),
(169,272,cs),
(79,272,o),
(21,214,o),
(21,130,cs),
(21,46,o),
(78,-10,o),
(164,-10,cs)
);
},
{
closed = 1;
nodes = (
(126,47,o),
(95,79,o),
(95,129,cs),
(95,179,o),
(126,211,o),
(175,211,cs),
(224,211,o),
(254,179,o),
(254,129,cs),
(254,79,o),
(223,47,o),
(175,47,cs)
);
}
);
width = 600;
}
);
unicode = 230;
},
{
glyphname = b;
kernLeft = h;
kernRight = b;
lastChange = "2025-07-25 14:12:02 +0000";
layers = (
{
hints = (
{
origin = (0,12);
target = (0,11);
type = Stem;
},
{
origin = (1,9);
target = (0,2);
type = Stem;
},
{
horizontal = 1;
origin = (0,6);
target = (1,5);
type = Stem;
},
{
horizontal = 1;
origin = (0,19);
target = (1,12);
type = Stem;
}
);
layerId = "D56600E4-3CB1-46B6-994E-4E22114E2E10";
shapes = (
{
closed = 1;
nodes = (
(485,-10,o),
(562,83,o),
(562,241,cs),
(562,251,ls),
(562,410,o),
(484,503,o),
(359,503,cs),
(295,503,o),
(235,475,o),
(207,418,c),
(218,392,l),
(218,730,l),
(68,730,l),
(68,0,l),
(203,0,l),
(203,115,l),
(194,93,l),
(223,24,o),
(289,-10,o),
(360,-10,cs)
);
},
{
closed = 1;
nodes = (
(247,101,o),
(208,147,o),
(208,246,cs),
(208,345,o),
(247,392,o),
(313,392,cs),
(375,392,o),
(412,347,o),
(412,251,cs),
(412,241,ls),
(412,145,o),
(375,101,o),
(313,101,cs)
);
}
);
width = 600;
},
{
layerId = "FF94DDBB-E62A-4F15-93F9-F4255DC66883";
shapes = (
{
closed = 1;
nodes = (
(452,-10,o),
(526,91,o),
(526,235,cs),
(526,244,ls),
(526,383,o),
(452,482,o),
(322,482,cs),
(226,482,o),
(167,425,o),
(135,337,c),
(142,331,l),
(142,730,l),
(113,730,l),
(113,0,l),
(141,0,l),
(141,141,l),
(134,136,l),
(166,47,o),
(225,-10,o),
(322,-10,cs)
);
},
{
closed = 1;
nodes = (
(208,17,o),
(141,107,o),
(141,236,cs),
(141,364,o),
(208,454,o),
(320,454,cs),
(434,454,o),
(497,367,o),
(497,244,cs),
(497,235,ls),
(497,107,o),
(434,17,o),
(320,17,cs)
);
}
);
width = 600;
}
);
unicode = 98;
},
{
glyphname = c;
kernLeft = o;
kernRight = c;
lastChange = "2025-07-25 14:12:02 +0000";
layers = (
{
anchors = (
{
name = bottom;
pos = (320,0);
},
{
name = top;
pos = (345,493);
}
);
hints = (
{
horizontal = 1;
origin = (0,27);
target = (0,6);
type = Stem;
},
{
horizontal = 1;
origin = (0,20);
target = (0,13);
type = Stem;
},
{
origin = (0,24);
target = (0,10);
type = Stem;
}
);
layerId = "D56600E4-3CB1-46B6-994E-4E22114E2E10";
shapes = (
{
closed = 1;
nodes = (
(421,-10,o),
(499,24,o),
(540,78,c),
(460,157,l),
(422,118,o),
(384,107,o),
(346,107,cs),
(277,107,o),
(221,150,o),
(221,242,cs),
(221,252,ls),
(221,344,o),
(275,386,o),
(344,386,cs),
(384,386,o),
(422,372,o),
(454,333,c),
(537,415,l),
(496,469,o),
(421,503,o),
(343,503,cs),
(188,503,o),
(70,402,o),
(70,252,cs),
(70,242,ls),
(70,94,o),
(186,-10,o),
(343,-10,cs)
);
}
);
width = 600;
},
{
anchors = (
{
name = bottom;
pos = (306,0);
},
{
name = top;
pos = (333,472);
}
);
layerId = "FF94DDBB-E62A-4F15-93F9-F4255DC66883";
shapes = (
{
closed = 1;
nodes = (
(396,-10,o),
(453,26,o),
(489,86,c),
(465,102,l),
(434,49,o),
(385,18,o),
(320,18,cs),
(213,18,o),
(141,105,o),
(141,235,cs),
(141,243,ls),
(141,370,o),
(213,454,o),
(320,454,cs),
(382,454,o),
(429,426,o),
(460,379,c),
(486,395,l),
(450,450,o),
(394,482,o),
(320,482,cs),
(195,482,o),
(112,386,o),
(112,243,cs),
(112,235,ls),
(112,88,o),
(195,-10,o),
(320,-10,cs)
);
}
);
width = 600;
},
{
anchors = (
{
name = bottom;
pos = (311,0);
},
{
name = top;
pos = (331,472);
}
);
associatedMasterId = "FF94DDBB-E62A-4F15-93F9-F4255DC66883";
layerId = "58746A68-B092-4639-81E4-C7F67CDD4E06";
name = "25. Juni 25, 07:55";
shapes = (
{
closed = 1;
nodes = (
(395,-10,o),
(447,12,o),
(487,53,c),
(468,73,l),
(432,37,o),
(387,18,o),
(327,18,cs),
(207,18,o),
(131,105,o),
(131,229,cs),
(131,243,ls),
(131,367,o),
(206,454,o),
(327,454,cs),
(387,454,o),
(432,434,o),
(468,399,c),
(487,419,l),
(447,460,o),
(395,482,o),
(328,482,cs),
(190,482,o),
(102,383,o),
(102,243,cs),
(102,229,ls),
(102,88,o),
(190,-10,o),
(328,-10,cs)
);
}
);
width = 600;
}
);
unicode = 99;
},
{
glyphname = d;
kernLeft = d;
kernRight = d;
lastChange = "2025-07-25 16:44:42 +0000";
layers = (
{
anchors = (
{
name = center;
pos = (453,600);
},
{
name = topright;
pos = (603,730);
}
);
hints = (
{
horizontal = 1;
place = (-10,131);
type = Stem;
},
{
origin = (0,16);
target = (1,2);
type = Stem;
},
{
place = (392,150);
type = Stem;
},
{
horizontal = 1;
origin = (0,12);
target = (1,6);
type = Stem;
}
);
layerId = "D56600E4-3CB1-46B6-994E-4E22114E2E10";
shapes = (
{
closed = 1;
nodes = (
(321,-10,o),
(387,24,o),
(416,93,c),
(407,115,l),
(407,0,l),
(542,0,l),
(542,730,l),
(392,730,l),
(392,392,l),
(403,418,l),
(375,475,o),
(315,503,o),
(251,503,cs),
(126,503,o),
(48,410,o),
(48,251,cs),
(48,241,ls),
(48,83,o),
(125,-10,o),
(250,-10,cs)
);
},
{
closed = 1;
nodes = (
(235,101,o),
(198,145,o),
(198,241,cs),
(198,251,ls),
(198,347,o),
(235,392,o),
(297,392,cs),
(363,392,o),
(402,345,o),
(402,246,cs),
(402,147,o),
(363,101,o),
(297,101,cs)
);
}
);
width = 600;
},
{
anchors = (
{
name = center;
pos = (453,600);
},
{
name = topright;
pos = (584,730);
}
);
layerId = "FF94DDBB-E62A-4F15-93F9-F4255DC66883";
shapes = (
{
closed = 1;
nodes = (
(375,-10,o),
(434,47,o),
(466,136,c),
(459,141,l),
(459,0,l),
(487,0,l),
(487,730,l),
(458,730,l),
(458,331,l),
(465,337,l),
(433,425,o),
(374,482,o),
(278,482,cs),
(148,482,o),
(74,383,o),
(74,244,cs),
(74,235,ls),
(74,91,o),
(148,-10,o),
(278,-10,cs)
);
},
{
closed = 1;
nodes = (
(166,17,o),
(103,107,o),
(103,235,cs),
(103,244,ls),
(103,367,o),
(166,454,o),
(280,454,cs),
(392,454,o),
(459,364,o),
(459,236,cs),
(459,107,o),
(392,17,o),
(280,17,cs)
);
}
);
width = 600;
}
);
unicode = 100;
},
{
glyphname = dcaron;
kernLeft = d;
kernRight = d;
lastChange = "2025-07-25 16:45:08 +0000";
layers = (
{
hints = (
{
origin = (0,16);
target = (1,3);
type = Stem;
},
{
origin = (0,8);
target = (0,6);
type = Stem;
},
{
horizontal = 1;
place = (-10,111);
target = (1,12);
type = Stem;
},
{
horizontal = 1;
origin = (0,12);
target = (1,6);
type = Stem;
}
);
layerId = "D56600E4-3CB1-46B6-994E-4E22114E2E10";
shapes = (
{
closed = 1;
nodes = (
(277,-10,o),
(313,24,o),
(342,93,c),
(333,115,l),
(333,0,l),
(468,0,l),
(468,730,l),
(318,730,l),
(318,392,l),
(329,418,l),
(301,475,o),
(271,503,o),
(207,503,cs),
(98,503,o),
(34,410,o),
(34,251,cs),
(34,241,ls),
(34,83,o),
(98,-10,o),
(206,-10,cs)
);
},
{
closed = 1;
nodes = (
(207,101,o),
(184,149,o),
(184,241,cs),
(184,251,ls),
(184,344,o),
(207,392,o),
(253,392,cs),
(303,392,o),
(328,342,o),
(328,246,cs),
(328,150,o),
(303,101,o),
(253,101,cs)
);
},
{
closed = 1;
nodes = (
(625,518,l),
(642,730,l),
(509,730,l),
(509,518,l)
);
}
);
width = 600;
},
{
layerId = "FF94DDBB-E62A-4F15-93F9-F4255DC66883";
shapes = (
{
closed = 1;
nodes = (
(375,-10,o),
(434,47,o),
(466,136,c),
(459,141,l),
(459,0,l),
(487,0,l),
(487,730,l),
(458,730,l),
(458,331,l),
(465,337,l),
(433,425,o),
(374,482,o),
(278,482,cs),
(148,482,o),
(74,383,o),
(74,244,cs),
(74,235,ls),
(74,91,o),
(148,-10,o),
(278,-10,cs)
);
},
{
closed = 1;
nodes = (
(166,17,o),
(103,107,o),
(103,235,cs),
(103,244,ls),
(103,367,o),
(166,454,o),
(280,454,cs),
(392,454,o),
(459,364,o),
(459,236,cs),
(459,107,o),
(392,17,o),
(280,17,cs)
);
},
{
closed = 1;
nodes = (
(611,567,l),
(622,730,l),
(584,730,l),
(584,567,l)
);
}
);
width = 600;
}
);
unicode = 271;
},
{
glyphname = eth;
lastChange = "2025-07-25 14:12:02 +0000";
layers = (
{
hints = (
{
horizontal = 1;
origin = (0,21);
target = (1,11);
type = Stem;
},
{
horizontal = 1;
origin = (1,5);
target = (0,15);
type = Stem;
},
{
horizontal = 1;
origin = (2,1);
target = down;
type = TopGhost;
},
{
horizontal = 1;
origin = (0,6);
target = down;
type = TopGhost;
},
{
origin = (0,18);
target = (1,2);
type = Stem;
},
{
origin = (1,8);
target = (0,2);
type = Stem;
}
);
layerId = "D56600E4-3CB1-46B6-994E-4E22114E2E10";
shapes = (
{
closed = 1;
nodes = (
(460,-10,o),
(556,94,o),
(556,251,cs),
(556,380,o),
(494,498,o),
(353,626,cs),
(222,745,l),
(118,645,l),
(238,541,ls),
(336,456,o),
(397,390,o),
(411,318,c),
(420,338,l),
(384,425,o),
(324,459,o),
(247,459,cs),
(135,459,o),
(61,371,o),
(61,240,cs),
(61,80,o),
(162,-10,o),
(310,-10,cs)
);
},
{
closed = 1;
nodes = (
(248,101,o),
(210,147,o),
(210,237,cs),
(210,327,o),
(249,371,o),
(309,371,cs),
(371,371,o),
(408,326,o),
(408,236,cs),
(408,147,o),
(370,101,o),
(309,101,cs)
);
},
{
closed = 1;
nodes = (
(455,625,l),
(428,708,l),
(68,571,l),
(95,486,l)
);
}
);
width = 600;
},
{
layerId = "FF94DDBB-E62A-4F15-93F9-F4255DC66883";
shapes = (
{
closed = 1;
nodes = (
(418,-10,o),
(501,89,o),
(501,232,cs),
(501,363,o),
(447,460,o),
(322,588,cs),
(171,743,l),
(151,722,l),
(302,569,ls),
(387,483,o),
(429,424,o),
(456,351,c),
(464,354,l),
(433,431,o),
(373,480,o),
(296,480,cs),
(177,480,o),
(97,383,o),
(97,235,cs),
(97,91,o),
(180,-10,o),
(299,-10,cs)
);
},
{
closed = 1;
nodes = (
(196,17,o),
(126,106,o),
(126,234,cs),
(126,365,o),
(194,453,o),
(299,453,cs),
(399,453,o),
(472,359,o),
(472,231,cs),
(472,105,o),
(402,17,o),
(299,17,cs)
);
},
{
closed = 1;
nodes = (
(392,686,l),
(381,710,l),
(125,542,l),
(135,518,l)
);
}
);
width = 600;
}
);
unicode = 240;
},
{
glyphname = e;
kernLeft = o;
kernRight = e;
lastChange = "2025-07-25 14:12:02 +0000";
layers = (
{
anchors = (
{
name = bottom;
pos = (294,0);
},
{
name = top;
pos = (303,493);
}
);
hints = (
{
horizontal = 1;
origin = (0,30);
target = (0,6);
type = Stem;
},
{
horizontal = 1;
origin = (0,20);
target = (0,18);
type = Stem;
},
{
horizontal = 1;
origin = (0,23);
target = (0,13);
type = Stem;
},
{
origin = (0,27);
target = (0,9,0,20);
type = Stem;
},
{
origin = (0,16);
target = (0,20);
type = Stem;
}
);
layerId = "D56600E4-3CB1-46B6-994E-4E22114E2E10";
shapes = (
{
closed = 1;
nodes = (
(396,-10,o),
(463,16,o),
(504,71,c),
(427,150,l),
(398,116,o),
(365,102,o),
(320,102,cs),
(245,102,o),
(208,145,o),
(208,223,cs),
(208,253,ls),
(208,339,o),
(234,398,o),
(301,398,cs),
(357,398,o),
(394,349,o),
(378,249,c),
(445,287,l),
(168,287,l),
(168,200,l),
(524,200,l),
(548,384,o),
(455,503,o),
(300,503,cs),
(155,503,o),
(60,392,o),
(60,253,cs),
(60,243,ls),
(60,90,o),
(162,-10,o),
(312,-10,cs)
);
}
);
width = 600;
},
{
anchors = (
{
name = bottom;
pos = (312,0);
},
{
name = top;
pos = (313,472);
}
);
layerId = "FF94DDBB-E62A-4F15-93F9-F4255DC66883";
shapes = (
{
closed = 1;
nodes = (
(385,-10,o),
(444,9,o),
(476,38,c),
(459,60,l),
(430,34,o),
(377,18,o),
(329,18,cs),
(213,18,o),
(141,105,o),
(141,235,cs),
(141,245,ls),
(141,370,o),
(210,454,o),
(315,454,cs),
(419,454,o),
(478,371,o),
(466,246,c),
(478,261,l),
(133,261,l),
(133,235,l),
(495,235,l),
(509,383,o),
(438,482,o),
(315,482,cs),
(194,482,o),
(112,387,o),
(112,245,cs),
(112,235,ls),
(112,88,o),
(196,-10,o),
(329,-10,cs)
);
}
);
width = 600;
},
{
anchors = (
{
name = bottom;
pos = (304,0);
},
{
name = top;
pos = (309,481);
}
);
associatedMasterId = "FF94DDBB-E62A-4F15-93F9-F4255DC66883";
attr = {
coordinates = (
400
);
};
hints = (
{
horizontal = 1;
origin = (0,30);
target = (0,6);
type = Stem;
},
{
horizontal = 1;
origin = (0,20);
target = (0,18);
type = Stem;
},
{
horizontal = 1;
origin = (0,23);
target = (0,13);
type = Stem;
},
{
origin = (0,27);
target = (0,9,0,20);
type = Stem;
},
{
origin = (0,16);
target = (0,20);
type = Stem;
}
);
layerId = "C3B48C02-C1C5-424F-AD99-B95CB582F19D";
name = "13. Juli 25, 15:12";
shapes = (
{
closed = 1;
nodes = (
(390,-10,o),
(453,13,o),
(488,52,c),
(445,99,l),
(416,69,o),
(372,54,o),
(325,54,cs),
(227,54,o),
(170,122,o),
(170,230,cs),
(170,248,ls),
(170,357,o),
(220,430,o),
(309,430,cs),
(392,430,o),
(442,362,o),
(428,247,c),
(464,272,l),
(148,272,l),
(148,210,l),
(507,210,l),
(526,384,o),
(445,491,o),
(309,491,cs),
(177,491,o),
(90,389,o),
(90,248,cs),
(90,238,ls),
(90,89,o),
(181,-10,o),
(322,-10,cs)
);
}
);
width = 600;
}
);
unicode = 101;
},
{
glyphname = eogonek;
kernLeft = o;
kernRight = e;
lastChange = "2025-07-25 16:45:39 +0000";
layers = (
{
hints = (
{
origin = (0,33);
target = (0,17);
type = Stem;
},
{
origin = (0,23);
target = (0,27);
type = Stem;
},
{
horizontal = 1;
origin = (0,30);
target = (0,20);
type = Stem;
},
{
horizontal = 1;
origin = (0,37);
target = (0,13);
type = Stem;
},
{
horizontal = 1;
origin = (0,0);
target = (0,1);
type = Stem;
},
{
horizontal = 1;
origin = (0,26);
target = (0,25);
type = Stem;
}
);
layerId = "D56600E4-3CB1-46B6-994E-4E22114E2E10";
shapes = (
{
closed = 1;
nodes = (
(457,-200,l),
(457,-99,l),
(439,-99,ls),
(419,-99,o),
(414,-87,o),
(414,-77,cs),
(414,-68,o),
(418,-60,o),
(425,-49,cs),
(504,71,l),
(427,150,l),
(398,120,o),
(370,102,o),
(320,102,cs),
(245,102,o),
(208,145,o),
(208,223,cs),
(208,253,ls),
(208,339,o),
(234,398,o),
(301,398,cs),
(361,398,o),
(400,341,o),
(374,231,c),
(449,287,l),
(168,287,l),
(168,200,l),
(524,200,l),
(548,384,o),
(455,503,o),
(300,503,cs),
(155,503,o),
(60,392,o),
(60,253,cs),
(60,243,ls),
(60,110,o),
(132,-10,o),
(272,-10,cs),
(326,-10,o),
(377,11,o),
(424,63,c),
(399,63,l),
(347,8,ls),
(306,-35,o),
(283,-62,o),
(283,-104,cs),
(283,-161,o),
(325,-200,o),
(393,-200,cs)
);
}
);
width = 600;
},
{
layerId = "FF94DDBB-E62A-4F15-93F9-F4255DC66883";
shapes = (
{
closed = 1;
nodes = (
(443,-200,l),
(443,-175,l),
(404,-175,ls),
(379,-175,o),
(366,-157,o),
(366,-138,cs),
(366,-121,o),
(375,-104,o),
(387,-87,cs),
(475,38,l),
(458,60,l),
(427,34,o),
(377,18,o),
(325,18,cs),
(205,18,o),
(141,107,o),
(141,235,cs),
(141,245,ls),
(141,368,o),
(206,454,o),
(316,454,cs),
(419,454,o),
(477,372,o),
(467,250,c),
(481,261,l),
(133,261,l),
(133,235,l),
(495,235,l),
(510,380,o),
(441,482,o),
(316,482,cs),
(189,482,o),
(112,384,o),
(112,245,cs),
(112,235,ls),
(112,91,o),
(188,-10,o),
(325,-10,cs),
(367,-10,o),
(408,0,o),
(441,17,c),
(435,22,l),
(367,-73,ls),
(349,-97,o),
(339,-117,o),
(339,-140,cs),
(339,-172,o),
(358,-200,o),
(401,-200,cs)
);
}
);
width = 600;
},
{
associatedMasterId = "FF94DDBB-E62A-4F15-93F9-F4255DC66883";
attr = {
coordinates = (
400
);
};
hints = (
{
origin = (0,33);
target = (0,17);
type = Stem;
},
{
origin = (0,23);
target = (0,27);
type = Stem;
},
{
horizontal = 1;
origin = (0,30);
target = (0,20);
type = Stem;
},
{
horizontal = 1;
origin = (0,37);
target = (0,13);
type = Stem;
},
{
horizontal = 1;
origin = (0,0);
target = (0,1);
type = Stem;
}
);
layerId = "4BA47B5F-4797-4F57-8307-0D3A807000AF";
name = "13. Juli 25, 15:13";
shapes = (
{
closed = 1;
nodes = (
(449,-200,l),
(449,-142,l),
(419,-142,ls),
(396,-142,o),
(387,-127,o),
(387,-112,cs),
(387,-98,o),
(394,-84,o),
(403,-71,cs),
(487,52,l),
(445,99,l),
(415,71,o),
(374,54,o),
(323,54,cs),
(222,54,o),
(170,123,o),
(170,230,cs),
(170,248,ls),
(170,356,o),
(218,430,o),
(310,430,cs),
(394,430,o),
(444,360,o),
(427,242,c),
(467,272,l),
(148,272,l),
(148,210,l),
(507,210,l),
(526,383,o),
(447,491,o),
(309,491,cs),
(174,491,o),
(90,387,o),
(90,248,cs),
(90,238,ls),
(90,99,o),
(164,-10,o),
(302,-10,cs),
(349,-10,o),
(395,5,o),
(434,37,c),
(420,40,l),
(358,-38,ls),
(330,-71,o),
(315,-93,o),
(315,-125,cs),
(315,-167,o),
(344,-200,o),
(398,-200,cs)
);
}
);
width = 600;
}
);
unicode = 281;
},
{
glyphname = f;
kernLeft = f;
lastChange = "2025-07-25 16:45:48 +0000";
layers = (
{
hints = (
{
horizontal = 1;
origin = (1,2);
target = (1,3);
type = Stem;
},
{
horizontal = 1;
origin = (0,7);
target = (0,5);
type = Stem;
},
{
origin = (0,11);
target = (0,1);
type = Stem;
},
{
horizontal = 1;
origin = (2,3);
target = (2,2);
type = Stem;
}
);
layerId = "D56600E4-3CB1-46B6-994E-4E22114E2E10";
shapes = (
{
closed = 1;
nodes = (
(364,50,l),
(364,606,ls),
(364,617,o),
(373,626,o),
(384,626,cs),
(544,626,l),
(544,730,l),
(386,730,ls),
(280,730,o),
(214,672,o),
(214,573,cs),
(214,50,l)
);
},
{
closed = 1;
nodes = (
(544,387,l),
(544,493,l),
(62,493,l),
(62,387,l)
);
},
{
closed = 1;
nodes = (
(544,0,l),
(544,106,l),
(62,106,l),
(62,0,l)
);
}
);
width = 600;
},
{
layerId = "FF94DDBB-E62A-4F15-93F9-F4255DC66883";
shapes = (
{
closed = 1;
nodes = (
(294,10,l),
(294,625,ls),
(294,670,o),
(327,703,o),
(372,703,cs),
(528,703,l),
(528,730,l),
(372,730,ls),
(310,730,o),
(265,686,o),
(265,624,cs),
(265,10,l)
);
},
{
closed = 1;
nodes = (
(528,444,l),
(528,472,l),
(79,472,l),
(79,444,l)
);
},
{
closed = 1;
nodes = (
(518,0,l),
(518,28,l),
(89,28,l),
(89,0,l)
);
}
);
width = 600;
}
);
unicode = 102;
},
{
glyphname = g;
kernLeft = g;
kernRight = g;
lastChange = "2025-07-25 14:12:02 +0000";
layers = (
{
hints = (
{
horizontal = 1;
origin = (0,25);
target = (0,24);
type = Stem;
},
{
horizontal = 1;
origin = (0,17);
target = (0,7);
type = Stem;
},
{
horizontal = 1;
origin = (1,13);
target = (2,11);
type = Stem;
},
{
horizontal = 1;
origin = (2,5);
target = (3,2);
type = Stem;
},
{
origin = (1,9);
target = (2,2);
type = Stem;
},
{
origin = (2,8);
target = (1,2);
type = Stem;
}
);
layerId = "D56600E4-3CB1-46B6-994E-4E22114E2E10";
shapes = (
{
closed = 1;
nodes = (
(410,-200,ls),
(497,-200,o),
(559,-138,o),
(559,-56,cs),
(559,44,o),
(500,86,o),
(417,86,cs),
(252,86,ls),
(249,86,o),
(247,88,o),
(249,92,cs),
(295,185,l),
(169,215,l),
(117,108,ls),
(83,39,o),
(115,-30,o),
(192,-30,cs),
(386,-30,ls),
(405,-30,o),
(419,-41,o),
(419,-59,cs),
(419,-84,o),
(405,-94,o),
(386,-94,cs),
(51,-94,l),
(51,-200,l)
);
},
{
closed = 1;
nodes = (
(427,135,o),
(520,208,o),
(520,312,cs),
(520,322,ls),
(520,428,o),
(427,503,o),
(295,503,cs),
(163,503,o),
(70,428,o),
(70,322,cs),
(70,312,ls),
(70,208,o),
(163,135,o),
(295,135,cs)
);
},
{
closed = 1;
nodes = (
(258,229,o),
(217,249,o),
(217,319,cs),
(217,373,o),
(249,402,o),
(295,402,cs),
(341,402,o),
(373,373,o),
(373,319,cs),
(373,249,o),
(332,229,o),
(295,229,cs)
);
},
{
closed = 1;
nodes = (
(397,429,l),
(499,612,l),
(348,612,l),
(265,429,l)
);
}
);
width = 600;
},
{
layerId = "FF94DDBB-E62A-4F15-93F9-F4255DC66883";
shapes = (
{
closed = 1;
nodes = (
(376,-200,ls),
(459,-200,o),
(511,-153,o),
(511,-80,cs),
(511,-11,o),
(459,31,o),
(377,31,cs),
(240,31,ls),
(183,31,o),
(187,76,o),
(202,104,cs),
(239,175,l),
(213,184,l),
(173,107,ls),
(151,63,o),
(161,5,o),
(236,5,cs),
(375,5,ls),
(441,5,o),
(483,-28,o),
(483,-80,cs),
(483,-138,o),
(441,-174,o),
(375,-174,cs),
(100,-174,l),
(100,-200,l)
);
},
{
closed = 1;
nodes = (
(430,148,o),
(509,217,o),
(509,314,cs),
(509,326,ls),
(509,417,o),
(430,482,o),
(318,482,cs),
(205,482,o),
(126,416,o),
(126,322,cs),
(126,314,ls),
(126,217,o),
(205,148,o),
(318,148,cs)
);
},
{
closed = 1;
nodes = (
(248,175,o),
(154,208,o),
(154,321,cs),
(154,402,o),
(221,455,o),
(318,455,cs),
(413,455,o),
(481,401,o),
(481,321,cs),
(481,207,o),
(391,175,o),
(318,175,cs)
);
},
{
closed = 1;
nodes = (
(375,461,l),
(462,630,l),
(433,630,l),
(347,461,l)
);
}
);
width = 600;
}
);
unicode = 103;
},
{
glyphname = h;
kernLeft = h;
kernRight = n;
lastChange = "2025-07-25 16:46:16 +0000";
layers = (
{
anchors = (
{
name = center;
pos = (158,600);
},
{
name = top;
pos = (134,700);
}
);
hints = (
{
place = (68,150);
type = Stem;
},
{
place = (379,150);
type = Stem;
},
{
horizontal = 1;
place = (0,21);
target = up;
type = BottomGhost;
},
{
horizontal = 1;
origin = (0,4);
target = (0,13);
type = Stem;
}
);
layerId = "D56600E4-3CB1-46B6-994E-4E22114E2E10";
shapes = (
{
closed = 1;
nodes = (
(220,0,l),
(220,288,ls),
(220,352,o),
(256,387,o),
(306,387,cs),
(352,387,o),
(381,358,o),
(381,292,cs),
(381,0,l),
(531,0,l),
(531,297,ls),
(531,425,o),
(470,503,o),
(360,503,cs),
(303,503,o),
(211,480,o),
(195,355,c),
(215,355,l),
(215,730,l),
(70,730,l),
(70,0,l)
);
}
);
width = 600;
},
{
anchors = (
{
name = center;
pos = (152,600);
},
{
name = top;
pos = (132,700);
}
);
layerId = "FF94DDBB-E62A-4F15-93F9-F4255DC66883";
shapes = (
{
closed = 1;
nodes = (
(147,0,l),
(147,271,ls),
(147,392,o),
(217,454,o),
(309,454,cs),
(398,454,o),
(456,401,o),
(456,270,cs),
(456,0,l),
(485,0,l),
(485,272,ls),
(485,418,o),
(418,482,o),
(312,482,cs),
(245,482,o),
(168,446,o),
(137,348,c),
(145,348,l),
(145,730,l),
(118,730,l),
(118,0,l)
);
}
);
width = 600;
}
);
unicode = 104;
},
{
glyphname = idotless;
kernLeft = i;
kernRight = i;
lastChange = "2025-07-25 16:46:27 +0000";
layers = (
{
anchors = (
{
name = bottom;
pos = (329,0);
},
{
name = ogonek;
pos = (410,0);
},
{
name = top;
pos = (336,493);
}
);
hints = (
{
horizontal = 1;
origin = (0,2);
target = (0,4);
type = Stem;
},
{
origin = (0,6);
target = (0,1);
type = Stem;
},
{
horizontal = 1;
origin = (1,3);
target = (1,2);
type = Stem;
}
);
layerId = "D56600E4-3CB1-46B6-994E-4E22114E2E10";
shapes = (
{
closed = 1;
nodes = (
(410,50,l),
(410,493,l),
(97,493,l),
(97,387,l),
(327,387,l),
(260,434,l),
(260,50,l)
);
},
{
closed = 1;
nodes = (
(563,0,l),
(563,106,l),
(97,106,l),
(97,0,l)
);
}
);
width = 600;
},
{
anchors = (
{
name = bottom;
pos = (333,0);
},
{
name = ogonek;
pos = (347,0);
},
{
name = top;
pos = (332,472);
}
);
layerId = "FF94DDBB-E62A-4F15-93F9-F4255DC66883";
shapes = (
{
closed = 1;
nodes = (
(347,10,l),
(347,472,l),
(117,472,l),
(117,444,l),
(331,444,l),
(318,457,l),
(318,10,l)
);
},
{
closed = 1;
nodes = (
(538,0,l),
(538,28,l),
(109,28,l),
(109,0,l)
);
}
);
width = 600;
}
);
unicode = 305;
},
{
glyphname = jdotless;
kernLeft = i;
kernRight = i;
lastChange = "2025-07-25 14:12:02 +0000";
layers = (
{
anchors = (
{
name = top;
pos = (363,493);
}
);
hints = (
{
horizontal = 1;
origin = (0,14);
target = (0,13);
type = Stem;
},
{
horizontal = 1;
origin = (0,5);
target = (0,7);
type = Stem;
},
{
origin = (0,4);
target = (0,9);
type = Stem;
}
);
layerId = "D56600E4-3CB1-46B6-994E-4E22114E2E10";
shapes = (
{
closed = 1;
nodes = (
(244,-200,ls),
(361,-200,o),
(434,-136,o),
(434,-26,cs),
(434,493,l),
(91,493,l),
(91,387,l),
(351,387,l),
(284,434,l),
(284,-76,ls),
(284,-87,o),
(275,-96,o),
(264,-96,cs),
(91,-96,l),
(91,-200,l)
);
}
);
width = 600;
},
{
anchors = (
{
name = top;
pos = (414,472);
}
);
layerId = "FF94DDBB-E62A-4F15-93F9-F4255DC66883";
shapes = (
{
closed = 1;
nodes = (
(321,-200,ls),
(384,-200,o),
(429,-156,o),
(429,-93,cs),
(429,472,l),
(119,472,l),
(119,444,l),
(413,444,l),
(400,457,l),
(400,-95,ls),
(400,-140,o),
(367,-173,o),
(322,-173,cs),
(95,-173,l),
(95,-200,l)
);
}
);
width = 600;
}
);
unicode = 567;
},
{
glyphname = k;
kernLeft = h;
kernRight = k;
lastChange = "2025-07-25 14:12:02 +0000";
layers = (
{
anchors = (
{
name = bottom;
pos = (289,0);
}
);
hints = (
{
horizontal = 1;
origin = (2,3);
target = up;
type = BottomGhost;
},
{
horizontal = 1;
origin = (0,1);
target = down;
type = TopGhost;
},
{
horizontal = 1;
origin = (1,2);
target = down;
type = TopGhost;
},
{
origin = (1,3);
target = (1,1);
type = Stem;
}
);
layerId = "D56600E4-3CB1-46B6-994E-4E22114E2E10";
shapes = (
{
closed = 1;
nodes = (
(570,493,l),
(399,493,l),
(157,241,l),
(144,51,l)
);
},
{
closed = 1;
nodes = (
(211,0,l),
(211,730,l),
(61,730,l),
(61,0,l)
);
},
{
closed = 1;
nodes = (
(572,0,l),
(321,362,l),
(211,262,l),
(388,0,l)
);
}
);
width = 600;
},
{
anchors = (
{
name = bottom;
pos = (299,0);
}
);
layerId = "FF94DDBB-E62A-4F15-93F9-F4255DC66883";
shapes = (
{
closed = 1;
nodes = (
(514,472,l),
(477,472,l),
(150,182,l),
(150,148,l)
);
},
{
closed = 1;
nodes = (
(167,0,l),
(167,730,l),
(138,730,l),
(138,0,l)
);
},
{
closed = 1;
nodes = (
(539,0,l),
(297,306,l),
(277,286,l),
(502,0,l)
);
}
);
width = 600;
}
);
unicode = 107;
},
{
glyphname = l;
kernLeft = l;
kernRight = l;
lastChange = "2025-07-25 14:12:02 +0000";
layers = (
{
anchors = (
{
name = bottom;
pos = (314,0);
},
{
name = center;
pos = (271,365);
},
{
name = top;
pos = (264,730);
},
{
name = topright;
pos = (399,730);
}
);
hints = (
{
horizontal = 1;
origin = (0,14);
target = (0,2);
type = Stem;
},
{
horizontal = 1;
origin = (0,7);
target = (0,9);
type = Stem;
},
{
origin = (0,6);
target = (0,11);
type = Stem;
}
);
layerId = "D56600E4-3CB1-46B6-994E-4E22114E2E10";
shapes = (
{
closed = 1;
nodes = (
(565,0,l),
(565,106,l),
(358,106,ls),
(347,106,o),
(338,115,o),
(338,126,cs),
(338,730,l),
(45,730,l),
(45,624,l),
(255,624,l),
(188,671,l),
(188,147,ls),
(188,54,o),
(250,0,o),
(349,0,cs)
);
}
);
width = 600;
},
{
anchors = (
{
name = bottom;
pos = (418,0);
},
{
name = center;
pos = (264,365);
},
{
name = top;
pos = (258,730);
},
{
name = topright;
pos = (429,730);
}
);
layerId = "FF94DDBB-E62A-4F15-93F9-F4255DC66883";
shapes = (
{
closed = 1;
nodes = (
(558,0,l),
(558,27,l),
(351,27,ls),
(306,27,o),
(273,60,o),
(273,105,cs),
(273,730,l),
(64,730,l),
(64,703,l),
(257,703,l),
(244,716,l),
(244,105,ls),
(244,44,o),
(288,0,o),
(350,0,cs)
);
}
);
width = 600;
}
);
unicode = 108;
},
{
glyphname = m;
kernLeft = n;
kernRight = n;
lastChange = "2025-07-25 14:12:02 +0000";
layers = (
{
anchors = (
{
name = bottom;
pos = (297,0);
},
{
name = top;
pos = (297,493);
}
);
hints = (
{
origin = (0,36);
target = (0,0);
type = Stem;
},
{
origin = (0,8);
target = (0,9);
type = Stem;
},
{
origin = (0,17);
target = (0,18);
type = Stem;
},
{
horizontal = 1;
origin = (0,22);
target = (0,13);
type = Stem;
},
{
horizontal = 1;
origin = (0,8);
target = up;
type = BottomGhost;
}
);
layerId = "D56600E4-3CB1-46B6-994E-4E22114E2E10";
shapes = (
{
closed = 1;
nodes = (
(156,0,l),
(156,339,ls),
(156,372,o),
(174,387,o),
(195,387,cs),
(217,387,o),
(235,372,o),
(235,339,cs),
(235,0,l),
(360,0,l),
(360,339,ls),
(360,372,o),
(378,387,o),
(401,387,cs),
(422,387,o),
(440,372,o),
(440,339,cs),
(440,0,l),
(565,0,l),
(565,335,ls),
(565,448,o),
(531,503,o),
(450,503,cs),
(392,503,o),
(353,468,o),
(330,401,c),
(356,401,l),
(344,466,o),
(320,503,o),
(257,503,cs),
(184,503,o),
(139,448,o),
(129,354,c),
(151,354,l),
(151,493,l),
(31,493,l),
(31,0,l)
);
}
);
width = 600;
},
{
anchors = (
{
name = bottom;
pos = (307,0);
},
{
name = top;
pos = (307,472);
}
);
layerId = "FF94DDBB-E62A-4F15-93F9-F4255DC66883";
shapes = (
{
closed = 1;
nodes = (
(97,0,l),
(97,314,ls),
(97,414,o),
(148,454,o),
(204,454,cs),
(262,454,o),
(293,413,o),
(293,351,cs),
(293,0,l),
(321,0,l),
(321,352,ls),
(321,410,o),
(363,454,o),
(422,454,cs),
(478,454,o),
(516,413,o),
(516,351,cs),
(516,0,l),
(544,0,l),
(544,352,ls),
(544,430,o),
(497,482,o),
(426,482,cs),
(364,482,o),
(311,440,o),
(303,385,c),
(315,385,l),
(305,443,o),
(268,482,o),
(206,482,cs),
(169,482,o),
(113,469,o),
(91,387,c),
(96,385,l),
(96,472,l),
(69,472,l),
(69,0,l)
);
}
);
width = 600;
},
{
associatedMasterId = "FF94DDBB-E62A-4F15-93F9-F4255DC66883";
background = {
shapes = (
{
closed = 1;
nodes = (
(94,384,ls),
(94,415,o),
(112,462,o),
(141,494,o),
(180,509,o),
(201,509,qs),
(244,509,o),
(290,455,o),
(290,397,qs),
(290,0,l),
(311,0,l),
(311,384,ls),
(311,447,o),
(375,509,o),
(418,509,qs),
(461,509,o),
(507,455,o),
(507,397,qs),
(507,0,l),
(528,0,l),
(528,400,ls),
(528,463,o),
(474,528,o),
(420,528,qs),
(373,528,o),
(319,481,o),
(308,446,q),
(306,446,l),
(291,528,o),
(203,528,qs),
(159,528,o),
(108,487,o),
(97,455,q),
(94,455,l),
(94,516,l),
(73,516,l),
(73,0,l),
(94,0,l)
);
}
);
};
layerId = "C9802789-6179-42D3-AE92-158A98D11C04";
name = "24. Juni 25, 22:57";
shapes = (
{
closed = 1;
nodes = (
(-25,0,l),
(-25,272,ls),
(-25,392,o),
(47,454,o),
(138,454,cs),
(227,454,o),
(287,401,o),
(287,271,cs),
(287,0,l),
(315,0,l),
(315,272,ls),
(315,392,o),
(387,454,o),
(478,454,cs),
(567,454,o),
(627,401,o),
(627,271,cs),
(627,0,l),
(654,0,l),
(654,272,ls),
(654,418,o),
(586,482,o),
(481,482,cs),
(412,482,o),
(332,445,o),
(302,343,c),
(310,343,l),
(290,439,o),
(228,482,o),
(142,482,cs),
(76,482,o),
(1,448,o),
(-31,357,c),
(-26,355,l),
(-26,472,l),
(-53,472,l),
(-53,0,l)
);
}
);
width = 600;
}
);
unicode = 109;
},
{
glyphname = n;
kernLeft = n;
kernRight = n;
lastChange = "2025-07-25 16:46:46 +0000";
layers = (
{
anchors = (
{
name = bottom;
pos = (299,0);
},
{
name = top;
pos = (302,493);
}
);
hints = (
{
horizontal = 1;
place = (0,21);
target = up;
type = BottomGhost;
},
{
place = (70,150);
type = Stem;
},
{
place = (381,150);
type = Stem;
},
{
horizontal = 1;
origin = (0,4);
target = (0,13);
type = Stem;
}
);
layerId = "D56600E4-3CB1-46B6-994E-4E22114E2E10";
shapes = (
{
closed = 1;
nodes = (
(220,0,l),
(220,288,ls),
(220,352,o),
(256,387,o),
(306,387,cs),
(352,387,o),
(381,358,o),
(381,292,cs),
(381,0,l),
(531,0,l),
(531,297,ls),
(531,425,o),
(470,503,o),
(360,503,cs),
(303,503,o),
(211,480,o),
(195,355,c),
(215,355,l),
(215,493,l),
(70,493,l),
(70,0,l)
);
}
);
width = 600;
},
{
anchors = (
{
name = bottom;
pos = (299,0);
},
{
name = top;
pos = (299,472);
}
);
layerId = "FF94DDBB-E62A-4F15-93F9-F4255DC66883";
shapes = (
{
closed = 1;
nodes = (
(146,0,l),
(146,271,ls),
(146,392,o),
(216,454,o),
(308,454,cs),
(397,454,o),
(455,401,o),
(455,270,cs),
(455,0,l),
(484,0,l),
(484,272,ls),
(484,418,o),
(417,482,o),
(311,482,cs),
(244,482,o),
(167,446,o),
(136,348,c),
(144,348,l),
(144,472,l),
(117,472,l),
(117,0,l)
);
}
);
width = 600;
},
{
anchors = (
{
name = bottom;
pos = (299,0);
},
{
name = top;
pos = (302,493);
}
);
associatedMasterId = "D56600E4-3CB1-46B6-994E-4E22114E2E10";
hints = (
{
horizontal = 1;
origin = (0,8);
target = up;
type = BottomGhost;
},
{
origin = (0,20);
target = (0,0);
type = Stem;
},
{
origin = (0,8);
target = (0,9);
type = Stem;
},
{
horizontal = 1;
origin = (0,13);
target = (0,4);
type = Stem;
}
);
layerId = "EF921DBF-3300-441D-9C3F-B54D61A971EE";
name = "30. Juni 25, 11:07";
shapes = (
{
closed = 1;
nodes = (
(220,0,l),
(220,268,ls),
(220,332,o),
(256,367,o),
(306,367,cs),
(352,367,o),
(381,338,o),
(381,272,cs),
(381,0,l),
(531,0,l),
(531,297,ls),
(531,425,o),
(460,503,o),
(350,503,cs),
(293,503,o),
(201,480,o),
(175,355,c),
(215,355,l),
(215,493,l),
(70,493,l),
(70,0,l)
);
}
);
width = 600;
}
);
unicode = 110;
},
{
glyphname = eng;
kernLeft = n;
kernRight = n;
lastChange = "2025-07-25 16:47:04 +0000";
layers = (
{
hints = (
{
place = (70,150);
target = (0,15);
type = Stem;
},
{
origin = (0,23);
target = (0,3);
type = Stem;
},
{
horizontal = 1;
origin = (0,28);
target = (0,27);
type = Stem;
},
{
horizontal = 1;
origin = (0,19);
target = (0,7);
type = Stem;
}
);
layerId = "D56600E4-3CB1-46B6-994E-4E22114E2E10";
shapes = (
{
closed = 1;
nodes = (
(341,-200,ls),
(458,-200,o),
(531,-136,o),
(531,-26,cs),
(531,297,ls),
(531,425,o),
(470,503,o),
(360,503,cs),
(303,503,o),
(211,480,o),
(195,355,c),
(215,355,l),
(215,493,l),
(70,493,l),
(70,0,l),
(220,0,l),
(220,288,ls),
(220,352,o),
(256,387,o),
(306,387,cs),
(352,387,o),
(381,358,o),
(381,292,cs),
(381,-66,ls),
(381,-77,o),
(372,-86,o),
(361,-86,cs),
(298,-86,l),
(298,-200,l)
);
}
);
width = 600;
},
{
layerId = "FF94DDBB-E62A-4F15-93F9-F4255DC66883";
shapes = (
{
closed = 1;
nodes = (
(377,-200,ls),
(440,-200,o),
(485,-156,o),
(485,-93,cs),
(485,272,ls),
(485,418,o),
(418,482,o),
(312,482,cs),
(245,482,o),
(167,446,o),
(136,348,c),
(144,348,l),
(144,472,l),
(117,472,l),
(117,0,l),
(146,0,l),
(146,271,ls),
(146,392,o),
(217,454,o),
(309,454,cs),
(398,454,o),
(456,401,o),
(456,270,cs),
(456,-95,ls),
(456,-140,o),
(423,-173,o),
(379,-173,cs),
(331,-173,l),
(331,-200,l)
);
}
);
width = 600;
}
);
unicode = 331;
},
{
glyphname = o;
kernLeft = o;
kernRight = o;
lastChange = "2025-07-25 14:12:02 +0000";
layers = (
{
anchors = (
{
name = bottom;
pos = (301,0);
},
{
name = center;
pos = (300,247);
},
{
name = top;
pos = (300,493);
},
{
name = topright;
pos = (337,493);
}
);
hints = (
{
horizontal = 1;
origin = (0,13);
target = (1,13);
type = Stem;
},
{
horizontal = 1;
origin = (0,6);
target = (1,6);
type = Stem;
},
{
origin = (0,10);
target = (1,3);
type = Stem;
},
{
origin = (1,10);
target = (0,3);
type = Stem;
}
);
layerId = "D56600E4-3CB1-46B6-994E-4E22114E2E10";
shapes = (
{
closed = 1;
nodes = (
(448,-10,o),
(562,94,o),
(562,242,cs),
(562,252,ls),
(562,399,o),
(448,503,o),
(301,503,cs),
(153,503,o),
(39,399,o),
(39,252,cs),
(39,242,ls),
(39,94,o),
(153,-10,o),
(301,-10,cs)
);
},
{
closed = 1;
nodes = (
(235,101,o),
(189,151,o),
(189,242,cs),
(189,252,ls),
(189,342,o),
(235,392,o),
(301,392,cs),
(367,392,o),
(412,342,o),
(412,252,cs),
(412,242,ls),
(412,151,o),
(367,101,o),
(301,101,cs)
);
}
);
width = 600;
},
{
anchors = (
{
name = bottom;
pos = (301,0);
},
{
name = center;
pos = (301,236);
},
{
name = top;
pos = (301,472);
},
{
name = topright;
pos = (354,472);
}
);
layerId = "FF94DDBB-E62A-4F15-93F9-F4255DC66883";
shapes = (
{
closed = 1;
nodes = (
(422,-10,o),
(503,88,o),
(503,235,cs),
(503,246,ls),
(503,388,o),
(422,482,o),
(301,482,cs),
(179,482,o),
(98,386,o),
(98,243,cs),
(98,235,ls),
(98,88,o),
(179,-10,o),
(301,-10,cs)
);
},
{
closed = 1;
nodes = (
(197,18,o),
(127,105,o),
(127,235,cs),
(127,243,ls),
(127,370,o),
(197,454,o),
(301,454,cs),
(405,454,o),
(474,371,o),
(474,246,cs),
(474,235,ls),
(474,105,o),
(405,18,o),
(301,18,cs)
);
}
);
width = 600;
}
);
unicode = 111;
},
{
color = 8;
glyphname = ohorn;
kernLeft = o;
kernRight = ohorn;
lastChange = "2025-07-25 14:12:02 +0000";
layers = (
{
anchors = (
{
name = bottom;
pos = (300,0);
},
{
name = top;
pos = (301,472);
}
);
layerId = "FF94DDBB-E62A-4F15-93F9-F4255DC66883";
shapes = (
{
closed = 1;
nodes = (
(418,-10,o),
(502,91,o),
(502,235,cs),
(502,246,ls),
(502,326,o),
(475,392,o),
(428,434,c),
(423,429,l),
(497,430,o),
(524,475,o),
(517,554,c),
(491,554,l),
(498,486,o),
(475,454,o),
(424,454,cs),
(392,454,o),
(367,482,o),
(301,482,cs),
(183,482,o),
(99,383,o),
(99,243,cs),
(99,235,ls),
(99,91,o),
(183,-10,o),
(301,-10,cs)
);
},
{
closed = 1;
nodes = (
(200,17,o),
(128,107,o),
(128,235,cs),
(128,243,ls),
(128,367,o),
(200,454,o),
(301,454,cs),
(403,454,o),
(473,369,o),
(473,246,cs),
(473,235,ls),
(473,107,o),
(403,17,o),
(301,17,cs)
);
}
);
width = 600;
},
{
anchors = (
{
name = bottom;
pos = (292,0);
},
{
name = top;
pos = (291,493);
}
);
background = {
shapes = (
{
closed = 1;
nodes = (
(448,-10,o),
(562,94,o),
(562,242,cs),
(562,252,ls),
(562,399,o),
(448,503,o),
(301,503,cs),
(153,503,o),
(39,399,o),
(39,252,cs),
(39,242,ls),
(39,94,o),
(153,-10,o),
(301,-10,cs)
);
},
{
closed = 1;
nodes = (
(235,101,o),
(189,151,o),
(189,242,cs),
(189,252,ls),
(189,342,o),
(235,392,o),
(301,392,cs),
(367,392,o),
(412,342,o),
(412,252,cs),
(412,242,ls),
(412,151,o),
(367,101,o),
(301,101,cs)
);
}
);
};
hints = (
{
horizontal = 1;
origin = (0,24);
target = (1,13);
type = Stem;
},
{
horizontal = 1;
origin = (0,17);
target = (1,6);
type = Stem;
},
{
origin = (0,21);
target = (1,3);
type = Stem;
},
{
origin = (1,10);
target = (0,3);
type = Stem;
}
);
layerId = "D56600E4-3CB1-46B6-994E-4E22114E2E10";
shapes = (
{
closed = 1;
nodes = (
(429,-10,o),
(543,94,o),
(543,242,cs),
(543,252,ls),
(543,318,o),
(520,374,o),
(482,419,c),
(467,374,l),
(570,381,o),
(593,460,o),
(565,571,c),
(441,571,l),
(458,504,o),
(456,473,o),
(423,473,cs),
(393,473,o),
(366,503,o),
(292,503,cs),
(144,503,o),
(40,399,o),
(40,252,cs),
(40,242,ls),
(40,94,o),
(144,-10,o),
(292,-10,cs)
);
},
{
closed = 1;
nodes = (
(226,102,o),
(190,160,o),
(190,241,cs),
(190,253,ls),
(190,333,o),
(226,391,o),
(292,391,cs),
(358,391,o),
(394,333,o),
(394,253,cs),
(394,241,ls),
(394,160,o),
(358,102,o),
(292,102,cs)
);
}
);
width = 600;
},
{
associatedMasterId = "D56600E4-3CB1-46B6-994E-4E22114E2E10";
layerId = "0E128BAD-5EE7-4A47-B8A4-3FDEFA0FF4E3";
name = "16. Apr. 25, 12:42";
shapes = (
{
ref = o;
},
{
pos = (31,0);
ref = horncomb;
}
);
width = 600;
},
{
associatedMasterId = "FF94DDBB-E62A-4F15-93F9-F4255DC66883";
layerId = "A4AFC74A-06B6-4A83-9BBF-9EDDBF0F2D99";
name = "16. Apr. 25, 12:42";
shapes = (
{
ref = o;
},
{
pos = (54,0);
ref = horncomb;
}
);
width = 600;
}
);
unicode = 417;
},
{
glyphname = oe;
kernLeft = o;
kernRight = e;
lastChange = "2025-07-25 15:03:55 +0000";
layers = (
{
anchors = (
{
name = bottom;
pos = (308,0);
},
{
name = top;
pos = (308,493);
}
);
background = {
shapes = (
{
closed = 1;
nodes = (
(448,-10,o),
(562,94,o),
(562,242,cs),
(562,252,ls),
(562,399,o),
(448,503,o),
(301,503,cs),
(153,503,o),
(39,399,o),
(39,252,cs),
(39,242,ls),
(39,94,o),
(153,-10,o),
(301,-10,cs)
);
},
{
closed = 1;
nodes = (
(235,101,o),
(189,151,o),
(189,242,cs),
(189,252,ls),
(189,342,o),
(235,392,o),
(301,392,cs),
(367,392,o),
(412,342,o),
(412,252,cs),
(412,242,ls),
(412,151,o),
(367,101,o),
(301,101,cs)
);
}
);
};
hints = (
{
horizontal = 1;
origin = (0,26);
target = (0,25);
type = Stem;
},
{
origin = (0,40);
target = (1,3);
type = Stem;
},
{
origin = (1,9);
place = (249,150);
type = Stem;
},
{
origin = (0,23);
place = (471,150);
type = Stem;
},
{
horizontal = 1;
origin = (0,37);
target = (1,6);
type = Stem;
},
{
horizontal = 1;
origin = (0,44);
target = (1,13);
type = Stem;
}
);
layerId = "D56600E4-3CB1-46B6-994E-4E22114E2E10";
shapes = (
{
closed = 1;
nodes = (
(254,-10,o),
(305,35,o),
(335,109,c),
(286,109,l),
(314,33,o),
(365,-10,o),
(432,-10,cs),
(492,-10,o),
(543,13,o),
(575,66,c),
(503,143,l),
(482,113,o),
(470,101,o),
(439,101,cs),
(395,101,o),
(367,149,o),
(367,225,cs),
(367,252,ls),
(367,338,o),
(387,398,o),
(426,398,cs),
(460,398,o),
(492,338,o),
(471,234,c),
(525,293,l),
(343,293,l),
(343,204,l),
(589,204,l),
(607,383,o),
(540,503,o),
(425,503,cs),
(367,503,o),
(315,462,o),
(285,383,c),
(327,383,l),
(299,459,o),
(249,503,o),
(188,503,cs),
(81,503,o),
(9,397,o),
(9,251,cs),
(9,241,ls),
(9,93,o),
(81,-10,o),
(188,-10,cs)
);
},
{
closed = 1;
nodes = (
(148,101,o),
(127,147,o),
(127,241,cs),
(127,251,ls),
(127,346,o),
(148,392,o),
(188,392,cs),
(228,392,o),
(249,346,o),
(249,251,cs),
(249,241,ls),
(249,147,o),
(228,101,o),
(188,101,cs)
);
}
);
width = 600;
},
{
anchors = (
{
name = bottom;
pos = (308,0);
},
{
name = top;
pos = (310,472);
}
);
layerId = "FF94DDBB-E62A-4F15-93F9-F4255DC66883";
shapes = (
{
closed = 1;
nodes = (
(250,-10,o),
(306,48,o),
(315,160,c),
(310,160,l),
(318,51,o),
(382,-10,o),
(454,-10,cs),
(497,-10,o),
(534,11,o),
(555,38,c),
(540,60,l),
(521,35,o),
(489,18,o),
(455,18,cs),
(374,18,o),
(327,98,o),
(327,233,cs),
(327,245,ls),
(327,377,o),
(370,454,o),
(445,454,cs),
(522,454,o),
(547,373,o),
(539,250,c),
(555,261,l),
(319,261,l),
(319,235,l),
(568,235,l),
(579,381,o),
(538,482,o),
(445,482,cs),
(375,482,o),
(317,422,o),
(309,319,c),
(315,319,l),
(306,427,o),
(250,482,o),
(179,482,cs),
(82,482,o),
(25,394,o),
(25,243,cs),
(25,235,ls),
(25,81,o),
(82,-10,o),
(179,-10,cs)
);
},
{
closed = 1;
nodes = (
(100,17,o),
(54,98,o),
(54,235,cs),
(54,243,ls),
(54,376,o),
(100,454,o),
(179,454,cs),
(258,454,o),
(298,383,o),
(298,246,cs),
(298,235,ls),
(298,91,o),
(258,17,o),
(179,17,cs)
);
}
);
width = 600;
},
{
anchors = (
{
name = bottom;
pos = (308,0);
},
{
name = top;
pos = (309,481);
}
);
associatedMasterId = "FF94DDBB-E62A-4F15-93F9-F4255DC66883";
attr = {
coordinates = (
400
);
};
hints = (
{
horizontal = 1;
origin = (0,26);
target = (0,25);
type = Stem;
},
{
origin = (0,40);
target = (1,3);
type = Stem;
},
{
origin = (1,9);
place = (277,64);
type = Stem;
},
{
origin = (0,23);
place = (510,64);
type = Stem;
},
{
horizontal = 1;
origin = (0,37);
target = (1,6);
type = Stem;
},
{
horizontal = 1;
origin = (0,44);
target = (1,13);
type = Stem;
}
);
layerId = "6CD1009D-A9E2-4739-A9D3-5383205C6E23";
name = "13. Juli 25, 15:13";
shapes = (
{
closed = 1;
nodes = (
(252,-10,o),
(306,42,o),
(324,138,c),
(300,138,l),
(316,44,o),
(375,-10,o),
(445,-10,cs),
(495,-10,o),
(538,12,o),
(564,50,c),
(524,96,l),
(504,68,o),
(481,54,o),
(448,54,cs),
(383,54,o),
(344,120,o),
(344,230,cs),
(344,248,ls),
(344,360,o),
(377,430,o),
(437,430,cs),
(495,430,o),
(524,359,o),
(510,243,c),
(542,274,l),
(329,274,l),
(329,212,l),
(577,212,l),
(591,382,o),
(539,491,o),
(436,491,cs),
(372,491,o),
(316,438,o),
(299,346,c),
(320,346,l),
(303,440,o),
(250,491,o),
(183,491,cs),
(82,491,o),
(18,395,o),
(18,246,cs),
(18,238,ls),
(18,86,o),
(82,-10,o),
(183,-10,cs)
);
},
{
closed = 1;
nodes = (
(121,53,o),
(85,119,o),
(85,238,cs),
(85,246,ls),
(85,363,o),
(121,427,o),
(183,427,cs),
(245,427,o),
(277,367,o),
(277,248,cs),
(277,238,ls),
(277,115,o),
(245,53,o),
(183,53,cs)
);
}
);
width = 600;
}
);
unicode = 339;
},
{
glyphname = p;
kernLeft = n;
kernRight = b;
lastChange = "2025-07-25 16:47:30 +0000";
layers = (
{
anchors = (
{
name = top;
pos = (310,493);
}
);
hints = (
{
horizontal = 1;
place = (-200,21);
target = up;
type = BottomGhost;
},
{
horizontal = 1;
place = (-10,111);
target = (1,12);
type = Stem;
},
{
horizontal = 1;
origin = (1,5);
target = (0,12);
type = Stem;
},
{
place = (68,150);
type = Stem;
},
{
place = (412,150);
type = Stem;
}
);
layerId = "D56600E4-3CB1-46B6-994E-4E22114E2E10";
shapes = (
{
closed = 1;
nodes = (
(218,-200,l),
(218,115,l),
(194,93,l),
(223,24,o),
(289,-10,o),
(360,-10,cs),
(485,-10,o),
(562,83,o),
(562,241,cs),
(562,251,ls),
(562,410,o),
(484,503,o),
(359,503,cs),
(295,503,o),
(224,483,o),
(195,392,c),
(208,392,l),
(208,493,l),
(68,493,l),
(68,-200,l)
);
},
{
closed = 1;
nodes = (
(247,101,o),
(208,147,o),
(208,246,cs),
(208,345,o),
(247,392,o),
(313,392,cs),
(375,392,o),
(412,347,o),
(412,251,cs),
(412,241,ls),
(412,145,o),
(375,101,o),
(313,101,cs)
);
}
);
width = 600;
},
{
anchors = (
{
name = top;
pos = (302,472);
}
);
layerId = "FF94DDBB-E62A-4F15-93F9-F4255DC66883";
shapes = (
{
closed = 1;
nodes = (
(142,-200,l),
(142,141,l),
(135,135,l),
(167,47,o),
(226,-10,o),
(322,-10,cs),
(452,-10,o),
(526,89,o),
(526,228,cs),
(526,237,ls),
(526,381,o),
(452,482,o),
(322,482,cs),
(225,482,o),
(166,425,o),
(134,336,c),
(141,331,l),
(141,472,l),
(113,472,l),
(113,-200,l)
);
},
{
closed = 1;
nodes = (
(208,18,o),
(141,108,o),
(141,236,cs),
(141,365,o),
(208,455,o),
(320,455,cs),
(434,455,o),
(497,365,o),
(497,237,cs),
(497,228,ls),
(497,105,o),
(434,18,o),
(320,18,cs)
);
}
);
width = 600;
}
);
unicode = 112;
},
{
glyphname = thorn;
kernLeft = h;
kernRight = b;
lastChange = "2025-07-25 16:48:21 +0000";
layers = (
{
hints = (
{
horizontal = 1;
place = (-200,21);
target = up;
type = BottomGhost;
},
{
horizontal = 1;
place = (730,-20);
target = down;
type = TopGhost;
},
{
place = (68,0);
target = (0,19);
type = Stem;
},
{
origin = (0,8);
target = (1,8);
type = Stem;
},
{
place = (70,148);
target = (0,0);
type = Stem;
},
{
horizontal = 1;
origin = (1,5);
target = (0,12);
type = Stem;
},
{
horizontal = 1;
place = (-10,111);
target = (1,12);
type = Stem;
}
);
layerId = "D56600E4-3CB1-46B6-994E-4E22114E2E10";
shapes = (
{
closed = 1;
nodes = (
(218,-200,l),
(218,115,l),
(194,93,l),
(223,24,o),
(289,-10,o),
(360,-10,cs),
(485,-10,o),
(562,83,o),
(562,241,cs),
(562,251,ls),
(562,410,o),
(484,503,o),
(359,503,cs),
(295,503,o),
(224,483,o),
(195,392,c),
(218,392,l),
(218,730,l),
(68,730,l),
(68,-200,l)
);
},
{
closed = 1;
nodes = (
(247,101,o),
(208,147,o),
(208,246,cs),
(208,345,o),
(247,392,o),
(313,392,cs),
(375,392,o),
(412,347,o),
(412,251,cs),
(412,241,ls),
(412,145,o),
(375,101,o),
(313,101,cs)
);
}
);
width = 600;
},
{
layerId = "FF94DDBB-E62A-4F15-93F9-F4255DC66883";
shapes = (
{
closed = 1;
nodes = (
(142,-200,l),
(142,141,l),
(135,135,l),
(167,47,o),
(226,-10,o),
(322,-10,cs),
(452,-10,o),
(526,89,o),
(526,228,cs),
(526,237,ls),
(526,381,o),
(452,482,o),
(322,482,cs),
(225,482,o),
(166,425,o),
(134,336,c),
(141,331,l),
(141,730,l),
(113,730,l),
(113,-200,l)
);
},
{
closed = 1;
nodes = (
(208,18,o),
(141,108,o),
(141,236,cs),
(141,365,o),
(208,455,o),
(320,455,cs),
(434,455,o),
(497,365,o),
(497,237,cs),
(497,228,ls),
(497,105,o),
(434,18,o),
(320,18,cs)
);
}
);
width = 600;
}
);
unicode = 254;
},
{
glyphname = q;
kernLeft = d;
kernRight = u;
lastChange = "2025-07-25 17:11:01 +0000";
layers = (
{
hints = (
{
horizontal = 1;
place = (-200,21);
target = up;
type = BottomGhost;
},
{
horizontal = 1;
place = (-10,131);
type = Stem;
},
{
horizontal = 1;
place = (503,131);
type = Stem;
},
{
origin = (0,10);
place = (38,150);
type = Stem;
},
{
origin = (0,19);
target = (0,0);
type = Stem;
}
);
layerId = "D56600E4-3CB1-46B6-994E-4E22114E2E10";
shapes = (
{
closed = 1;
nodes = (
(532,-200,l),
(532,493,l),
(392,493,l),
(392,392,l),
(405,392,l),
(376,483,o),
(305,503,o),
(241,503,cs),
(116,503,o),
(38,410,o),
(38,251,cs),
(38,241,ls),
(38,83,o),
(115,-10,o),
(240,-10,cs),
(311,-10,o),
(377,24,o),
(406,93,c),
(382,115,l),
(382,-200,l)
);
},
{
closed = 1;
nodes = (
(225,101,o),
(188,145,o),
(188,241,cs),
(188,251,ls),
(188,347,o),
(225,392,o),
(287,392,cs),
(353,392,o),
(392,345,o),
(392,246,cs),
(392,147,o),
(353,101,o),
(287,101,cs)
);
}
);
width = 600;
},
{
layerId = "FF94DDBB-E62A-4F15-93F9-F4255DC66883";
shapes = (
{
closed = 1;
nodes = (
(487,-200,l),
(487,472,l),
(459,472,l),
(459,331,l),
(466,336,l),
(434,425,o),
(375,482,o),
(278,482,cs),
(148,482,o),
(74,381,o),
(74,237,cs),
(74,228,ls),
(74,89,o),
(148,-10,o),
(278,-10,cs),
(374,-10,o),
(433,47,o),
(465,135,c),
(458,141,l),
(458,-200,l)
);
},
{
closed = 1;
nodes = (
(166,18,o),
(103,105,o),
(103,228,cs),
(103,237,ls),
(103,365,o),
(166,455,o),
(280,455,cs),
(392,455,o),
(459,365,o),
(459,236,cs),
(459,108,o),
(392,18,o),
(280,18,cs)
);
}
);
width = 600;
}
);
unicode = 113;
},
{
glyphname = r;
kernLeft = n;
kernRight = r;
lastChange = "2025-07-25 17:11:15 +0000";
layers = (
{
anchors = (
{
name = bottom;
pos = (264,0);
},
{
name = top;
pos = (344,493);
}
);
hints = (
{
horizontal = 1;
origin = (1,3);
target = up;
type = BottomGhost;
},
{
horizontal = 1;
origin = (0,7);
target = (0,5);
type = Stem;
},
{
origin = (0,17,1,2);
stem = 1000;
target = (0,1);
type = Stem;
},
{
horizontal = 1;
origin = (1,0);
target = (1,1);
type = Stem;
}
);
layerId = "D56600E4-3CB1-46B6-994E-4E22114E2E10";
shapes = (
{
closed = 1;
nodes = (
(338,60,l),
(338,215,ls),
(338,316,o),
(373,350,o),
(479,350,cs),
(560,350,l),
(560,498,l),
(502,498,ls),
(424,498,o),
(340,465,o),
(330,339,c),
(338,339,l),
(338,493,l),
(75,493,l),
(75,387,l),
(256,387,l),
(188,435,l),
(188,60,l)
);
},
{
closed = 1;
nodes = (
(531,0,l),
(531,106,l),
(75,106,l),
(75,0,l)
);
}
);
width = 600;
},
{
anchors = (
{
name = bottom;
pos = (282,0);
},
{
name = top;
pos = (359,472);
}
);
layerId = "FF94DDBB-E62A-4F15-93F9-F4255DC66883";
shapes = (
{
closed = 1;
nodes = (
(297,16,l),
(297,240,ls),
(297,384,o),
(383,443,o),
(491,443,cs),
(555,443,l),
(555,472,l),
(492,472,ls),
(420,472,o),
(317,455,o),
(292,331,c),
(296,328,l),
(296,472,l),
(106,472,l),
(106,444,l),
(280,444,l),
(267,457,l),
(267,16,l)
);
},
{
closed = 1;
nodes = (
(487,0,l),
(487,28,l),
(106,28,l),
(106,0,l)
);
}
);
width = 600;
}
);
unicode = 114;
},
{
glyphname = s;
kernLeft = s;
kernRight = s;
lastChange = "2025-07-25 14:12:02 +0000";
layers = (
{
anchors = (
{
name = bottom;
pos = (306,0);
},
{
name = top;
pos = (316,493);
}
);
hints = (
{
horizontal = 1;
origin = (0,31);
target = (0,24);
type = Stem;
},
{
horizontal = 1;
origin = (0,15);
target = (0,8);
type = Stem;
},
{
origin = (0,18);
target = (0,5);
type = Stem;
},
{
origin = (0,21);
target = (0,2);
type = Stem;
}
);
layerId = "D56600E4-3CB1-46B6-994E-4E22114E2E10";
shapes = (
{
closed = 1;
nodes = (
(449,-8,o),
(539,51,o),
(539,152,cs),
(539,338,o),
(233,287,o),
(233,355,cs),
(233,379,o),
(263,392,o),
(321,392,cs),
(376,392,o),
(432,376,o),
(480,349,c),
(533,455,l),
(477,485,o),
(403,503,o),
(323,503,cs),
(175,503,o),
(88,443,o),
(88,342,cs),
(88,155,o),
(387,212,o),
(387,142,cs),
(387,116,o),
(356,102,o),
(295,102,cs),
(231,102,o),
(169,129,o),
(118,157,c),
(63,51,l),
(116,19,o),
(198,-8,o),
(295,-8,cs)
);
}
);
width = 600;
},
{
anchors = (
{
name = bottom;
pos = (298,0);
},
{
name = top;
pos = (310,472);
}
);
layerId = "FF94DDBB-E62A-4F15-93F9-F4255DC66883";
shapes = (
{
closed = 1;
nodes = (
(430,-10,o),
(514,43,o),
(514,123,cs),
(514,334,o),
(143,179,o),
(143,346,cs),
(143,411,o),
(213,455,o),
(318,455,cs),
(385,455,o),
(453,440,o),
(494,404,c),
(509,425,l),
(463,462,o),
(390,482,o),
(318,482,cs),
(196,482,o),
(114,428,o),
(114,346,cs),
(114,145,o),
(485,301,o),
(485,123,cs),
(485,59,o),
(413,16,o),
(304,16,cs),
(232,16,o),
(154,37,o),
(112,79,c),
(96,54,l),
(142,11,o),
(226,-10,o),
(304,-10,cs)
);
}
);
width = 600;
}
);
unicode = 115;
},
{
glyphname = germandbls;
kernLeft = h;
lastChange = "2025-07-25 14:12:02 +0000";
layers = (
{
hints = (
{
horizontal = 1;
origin = (0,38);
target = (0,36);
type = Stem;
},
{
horizontal = 1;
origin = (0,12);
target = (0,21);
type = Stem;
},
{
origin = (0,16);
target = (0,18);
type = Stem;
},
{
origin = (0,32);
target = (0,2);
type = Stem;
}
);
layerId = "D56600E4-3CB1-46B6-994E-4E22114E2E10";
shapes = (
{
closed = 1;
nodes = (
(473,0,o),
(568,84,o),
(568,203,cs),
(568,312,o),
(490,379,o),
(339,379,c),
(339,355,l),
(454,355,o),
(536,431,o),
(536,538,cs),
(536,655,o),
(441,740,o),
(296,740,cs),
(134,740,o),
(38,638,o),
(38,472,cs),
(38,0,l),
(188,0,l),
(188,484,ls),
(188,584,o),
(227,629,o),
(298,629,cs),
(357,629,o),
(388,598,o),
(388,540,cs),
(388,470,o),
(345,428,o),
(278,418,c),
(278,307,l),
(321,307,ls),
(379,307,o),
(418,272,o),
(418,219,cs),
(418,155,o),
(376,113,o),
(314,113,cs),
(248,113,l),
(248,0,l),
(336,0,ls)
);
}
);
width = 600;
},
{
layerId = "FF94DDBB-E62A-4F15-93F9-F4255DC66883";
shapes = (
{
closed = 1;
nodes = (
(463,0,o),
(541,75,o),
(541,187,cs),
(541,306,o),
(467,373,o),
(329,373,c),
(329,360,l),
(435,360,o),
(508,461,o),
(508,559,cs),
(508,670,o),
(435,740,o),
(319,740,cs),
(184,740,o),
(110,652,o),
(110,511,cs),
(110,0,l),
(139,0,l),
(139,512,ls),
(139,636,o),
(202,713,o),
(319,713,cs),
(418,713,o),
(480,654,o),
(480,559,cs),
(480,471,o),
(411,379,o),
(315,379,c),
(315,352,l),
(338,352,ls),
(451,352,o),
(513,289,o),
(513,189,cs),
(513,92,o),
(446,28,o),
(334,28,cs),
(252,28,l),
(252,0,l),
(336,0,ls)
);
}
);
width = 600;
}
);
unicode = 223;
},
{
glyphname = t;
kernLeft = t;
kernRight = t;
lastChange = "2025-07-25 14:12:02 +0000";
layers = (
{
anchors = (
{
name = bottom;
pos = (324,0);
},
{
name = center;
pos = (270,249);
},
{
name = top;
pos = (258,662);
},
{
name = topright;
pos = (392,730);
}
);
hints = (
{
horizontal = 1;
origin = (0,11);
target = (0,2);
type = Stem;
},
{
horizontal = 1;
origin = (1,2);
target = (1,3);
type = Stem;
},
{
origin = (0,8);
target = (0,6);
type = Stem;
}
);
layerId = "D56600E4-3CB1-46B6-994E-4E22114E2E10";
shapes = (
{
closed = 1;
nodes = (
(534,0,l),
(534,106,l),
(353,106,ls),
(342,106,o),
(333,115,o),
(333,126,cs),
(333,662,l),
(183,662,l),
(183,158,ls),
(183,25,o),
(277,0,o),
(351,0,cs)
);
},
{
closed = 1;
nodes = (
(534,387,l),
(534,493,l),
(36,493,l),
(36,387,l)
);
}
);
width = 600;
},
{
anchors = (
{
name = bottom;
pos = (376,0);
},
{
name = center;
pos = (271,293);
},
{
name = top;
pos = (255,641);
},
{
name = topright;
pos = (363,702);
}
);
layerId = "FF94DDBB-E62A-4F15-93F9-F4255DC66883";
shapes = (
{
closed = 1;
nodes = (
(514,0,l),
(514,27,l),
(347,27,ls),
(303,27,o),
(269,60,o),
(269,105,cs),
(269,641,l),
(241,641,l),
(241,106,ls),
(241,42,o),
(287,0,o),
(347,0,cs)
);
},
{
closed = 1;
nodes = (
(514,444,l),
(514,472,l),
(46,472,l),
(46,444,l)
);
}
);
width = 600;
}
);
unicode = 116;
},
{
glyphname = tbar;
kernLeft = t;
kernRight = t;
lastChange = "2025-07-25 17:11:39 +0000";
layers = (
{
hints = (
{
horizontal = 1;
origin = (1,3);
target = (1,1);
type = Stem;
},
{
horizontal = 1;
origin = (2,2);
target = (2,3);
type = Stem;
},
{
horizontal = 1;
origin = (0,0);
target = (0,1);
type = Stem;
},
{
origin = (0,7);
target = (0,6);
type = Stem;
}
);
layerId = "D56600E4-3CB1-46B6-994E-4E22114E2E10";
shapes = (
{
closed = 1;
nodes = (
(534,0,l),
(534,106,l),
(353,106,ls),
(342,106,o),
(333,115,o),
(333,126,cs),
(333,662,l),
(183,662,l),
(183,158,ls),
(183,25,o),
(277,0,o),
(351,0,cs)
);
},
{
closed = 1;
nodes = (
(494,211,l),
(494,300,l),
(63,300,l),
(63,211,l)
);
},
{
closed = 1;
nodes = (
(534,387,l),
(534,493,l),
(36,493,l),
(36,387,l)
);
}
);
width = 600;
},
{
layerId = "FF94DDBB-E62A-4F15-93F9-F4255DC66883";
shapes = (
{
closed = 1;
nodes = (
(514,0,l),
(514,27,l),
(347,27,ls),
(303,27,o),
(269,60,o),
(269,105,cs),
(269,641,l),
(241,641,l),
(241,106,ls),
(241,42,o),
(287,0,o),
(347,0,cs)
);
},
{
closed = 1;
nodes = (
(454,280,l),
(454,306,l),
(88,306,l),
(88,280,l)
);
},
{
closed = 1;
nodes = (
(514,444,l),
(514,472,l),
(46,472,l),
(46,444,l)
);
}
);
width = 600;
}
);
unicode = 359;
},
{
glyphname = u;
kernLeft = u;
kernRight = u;
lastChange = "2025-07-25 17:11:55 +0000";
layers = (
{
anchors = (
{
name = bottom;
pos = (297,0);
},
{
name = ogonek;
pos = (526,0);
},
{
name = top;
pos = (297,493);
},
{
name = topright;
pos = (376,493);
}
);
hints = (
{
horizontal = 1;
origin = (0,16);
target = down;
type = TopGhost;
},
{
origin = (0,16);
target = (0,15);
type = Stem;
},
{
origin = (0,7);
target = (0,6);
type = Stem;
},
{
horizontal = 1;
origin = (0,20);
target = (0,11);
type = Stem;
}
);
layerId = "D56600E4-3CB1-46B6-994E-4E22114E2E10";
shapes = (
{
closed = 1;
nodes = (
(293,-10,o),
(385,13,o),
(401,138,c),
(381,138,l),
(381,0,l),
(526,0,l),
(526,493,l),
(376,493,l),
(376,205,ls),
(376,141,o),
(340,106,o),
(290,106,cs),
(244,106,o),
(219,135,o),
(219,201,cs),
(219,493,l),
(69,493,l),
(69,196,ls),
(69,68,o),
(126,-10,o),
(236,-10,cs)
);
}
);
width = 600;
},
{
anchors = (
{
name = bottom;
pos = (295,0);
},
{
name = ogonek;
pos = (483,0);
},
{
name = top;
pos = (300,472);
},
{
name = topright;
pos = (454,472);
}
);
layerId = "FF94DDBB-E62A-4F15-93F9-F4255DC66883";
shapes = (
{
closed = 1;
nodes = (
(356,-10,o),
(433,26,o),
(464,124,c),
(456,124,l),
(456,0,l),
(483,0,l),
(483,472,l),
(454,472,l),
(454,201,ls),
(454,80,o),
(384,18,o),
(292,18,cs),
(203,18,o),
(145,71,o),
(145,202,cs),
(145,472,l),
(116,472,l),
(116,200,ls),
(116,54,o),
(183,-10,o),
(289,-10,cs)
);
}
);
width = 600;
}
);
unicode = 117;
},
{
color = 8;
glyphname = uhorn;
kernLeft = u;
kernRight = uhorn;
lastChange = "2025-07-25 17:12:01 +0000";
layers = (
{
anchors = (
{
name = bottom;
pos = (295,0);
},
{
name = top;
pos = (300,472);
}
);
layerId = "FF94DDBB-E62A-4F15-93F9-F4255DC66883";
shapes = (
{
closed = 1;
nodes = (
(358,-10,o),
(429,25,o),
(461,112,c),
(457,115,l),
(457,0,l),
(483,0,l),
(483,460,l),
(472,447,l),
(569,444,o),
(609,497,o),
(593,589,c),
(565,589,l),
(577,514,o),
(551,472,o),
(483,472,cs),
(454,472,l),
(454,200,ls),
(454,79,o),
(384,18,o),
(294,18,cs),
(196,18,o),
(145,77,o),
(145,192,cs),
(145,472,l),
(117,472,l),
(117,190,ls),
(117,58,o),
(176,-10,o),
(292,-10,cs)
);
}
);
width = 600;
},
{
anchors = (
{
name = bottom;
pos = (281,0);
},
{
name = top;
pos = (281,493);
}
);
background = {
shapes = (
{
closed = 1;
nodes = (
(277,-10,o),
(369,13,o),
(385,138,c),
(365,138,l),
(365,0,l),
(510,0,l),
(510,493,l),
(360,493,l),
(360,205,ls),
(360,141,o),
(324,106,o),
(274,106,cs),
(228,106,o),
(203,135,o),
(203,201,cs),
(203,493,l),
(53,493,l),
(53,196,ls),
(53,68,o),
(110,-10,o),
(220,-10,cs)
);
}
);
};
hints = (
{
horizontal = 1;
origin = (0,28);
target = (0,19);
type = Stem;
},
{
horizontal = 1;
origin = (0,24);
target = down;
type = TopGhost;
},
{
origin = (0,23);
target = (0,25);
type = Stem;
},
{
origin = (0,6,0,10);
stem = 1000;
target = (0,16);
type = Stem;
}
);
layerId = "D56600E4-3CB1-46B6-994E-4E22114E2E10";
shapes = (
{
closed = 1;
nodes = (
(275,-10,o),
(360,7,o),
(387,138,c),
(364,138,l),
(364,0,l),
(510,0,l),
(510,473,l),
(455,424,l),
(573,427,o),
(613,482,o),
(586,601,c),
(457,601,l),
(476,524,o),
(456,493,o),
(390,493,cs),
(360,493,l),
(360,210,ls),
(360,146,o),
(327,106,o),
(278,106,cs),
(233,106,o),
(203,130,o),
(203,196,cs),
(203,493,l),
(53,493,l),
(53,186,ls),
(53,58,o),
(116,-10,o),
(225,-10,cs)
);
}
);
width = 600;
},
{
associatedMasterId = "D56600E4-3CB1-46B6-994E-4E22114E2E10";
layerId = "1747DBD4-4273-4A6E-935E-EE1247A62F96";
name = "16. Apr. 25, 12:43";
shapes = (
{
ref = u;
},
{
pos = (70,0);
ref = horncomb;
}
);
width = 600;
},
{
associatedMasterId = "FF94DDBB-E62A-4F15-93F9-F4255DC66883";
layerId = "81F9AF30-FF29-4886-A091-639E818F3A96";
name = "16. Apr. 25, 12:43";
shapes = (
{
ref = u;
},
{
pos = (154,0);
ref = horncomb;
}
);
width = 600;
}
);
unicode = 432;
},
{
glyphname = v;
lastChange = "2025-07-25 14:12:02 +0000";
layers = (
{
hints = (
{
horizontal = 1;
origin = (0,7);
target = up;
type = BottomGhost;
},
{
horizontal = 1;
origin = (0,6);
target = down;
type = TopGhost;
}
);
layerId = "D56600E4-3CB1-46B6-994E-4E22114E2E10";
shapes = (
{
closed = 1;
nodes = (
(380,0,l),
(563,493,l),
(407,493,l),
(272,97,l),
(329,97,l),
(194,493,l),
(38,493,l),
(222,0,l)
);
}
);
width = 600;
},
{
layerId = "FF94DDBB-E62A-4F15-93F9-F4255DC66883";
shapes = (
{
closed = 1;
nodes = (
(316,0,l),
(512,472,l),
(482,472,l),
(294,22,l),
(307,22,l),
(118,472,l),
(88,472,l),
(285,0,l)
);
}
);
width = 600;
}
);
unicode = 118;
},
{
glyphname = w;
kernLeft = w;
kernRight = w;
lastChange = "2025-07-25 14:12:02 +0000";
layers = (
{
anchors = (
{
name = top;
pos = (299,493);
}
);
hints = (
{
horizontal = 1;
origin = (0,15);
target = up;
type = BottomGhost;
},
{
horizontal = 1;
origin = (0,14);
target = down;
type = TopGhost;
}
);
layerId = "D56600E4-3CB1-46B6-994E-4E22114E2E10";
shapes = (
{
closed = 1;
nodes = (
(245,0,l),
(326,462,l),
(274,462,l),
(355,0,l),
(529,0,l),
(580,493,l),
(452,493,l),
(419,92,l),
(429,93,l),
(359,493,l),
(241,493,l),
(171,93,l),
(181,92,l),
(148,493,l),
(20,493,l),
(71,0,l)
);
}
);
width = 600;
},
{
anchors = (
{
name = top;
pos = (300,472);
}
);
layerId = "FF94DDBB-E62A-4F15-93F9-F4255DC66883";
shapes = (
{
closed = 1;
nodes = (
(164,0,l),
(304,452,l),
(295,452,l),
(436,0,l),
(467,0,l),
(568,472,l),
(539,472,l),
(448,26,l),
(454,25,l),
(315,472,l),
(285,472,l),
(146,23,l),
(152,24,l),
(62,472,l),
(32,472,l),
(133,0,l)
);
}
);
width = 600;
}
);
unicode = 119;
},
{
glyphname = x;
lastChange = "2025-07-25 14:12:02 +0000";
layers = (
{
hints = (
{
horizontal = 1;
origin = (0,11);
target = up;
type = BottomGhost;
},
{
horizontal = 1;
origin = (0,9);
target = down;
type = TopGhost;
}
);
layerId = "D56600E4-3CB1-46B6-994E-4E22114E2E10";
shapes = (
{
closed = 1;
nodes = (
(214,0,l),
(298,149,l),
(384,0,l),
(560,0,l),
(401,247,l),
(558,493,l),
(386,493,l),
(304,342,l),
(221,493,l),
(46,493,l),
(203,246,l),
(41,0,l)
);
}
);
width = 600;
},
{
layerId = "FF94DDBB-E62A-4F15-93F9-F4255DC66883";
shapes = (
{
closed = 1;
nodes = (
(140,0,l),
(300,216,l),
(459,0,l),
(496,0,l),
(319,235,l),
(491,472,l),
(457,472,l),
(300,253,l),
(144,472,l),
(109,472,l),
(281,235,l),
(104,0,l)
);
}
);
width = 600;
}
);
unicode = 120;
},
{
glyphname = y;
kernLeft = y;
kernRight = y;
lastChange = "2025-07-25 14:12:02 +0000";
layers = (
{
anchors = (
{
name = bottom;
pos = (465,0);
},
{
name = top;
pos = (307,493);
}
);
background = {
shapes = (
{
closed = 1;
nodes = (
(174,-200,ls),
(291,-200,o),
(326,-129,o),
(349,-71,cs),
(569,493,l),
(402,493,l),
(289,123,l),
(199,-64,ls),
(196,-71,o),
(190,-74,o),
(183,-74,cs),
(65,-74,l),
(65,-200,l)
);
},
{
closed = 1;
nodes = (
(336,90,l),
(194,493,l),
(27,493,l),
(247,-63,l)
);
}
);
};
hints = (
{
horizontal = 1;
origin = (0,12);
target = (0,11);
type = Stem;
},
{
horizontal = 1;
origin = (1,2);
target = down;
type = TopGhost;
}
);
layerId = "D56600E4-3CB1-46B6-994E-4E22114E2E10";
shapes = (
{
closed = 1;
nodes = (
(174,-200,ls),
(291,-200,o),
(326,-129,o),
(349,-71,cs),
(569,493,l),
(402,493,l),
(289,123,l),
(189,-84,ls),
(186,-91,o),
(180,-94,o),
(173,-94,cs),
(65,-94,l),
(65,-200,l)
);
},
{
closed = 1;
nodes = (
(336,90,l),
(194,493,l),
(27,493,l),
(247,-63,l)
);
}
);
width = 600;
},
{
anchors = (
{
name = bottom;
pos = (411,0);
},
{
name = top;
pos = (310,472);
}
);
layerId = "FF94DDBB-E62A-4F15-93F9-F4255DC66883";
shapes = (
{
closed = 1;
nodes = (
(171,-200,ls),
(233,-200,o),
(263,-148,o),
(284,-96,cs),
(522,472,l),
(491,472,l),
(305,24,l),
(254,-96,ls),
(237,-137,o),
(215,-173,o),
(171,-173,cs),
(92,-173,l),
(92,-200,l)
);
},
{
closed = 1;
nodes = (
(317,21,l),
(128,472,l),
(97,472,l),
(300,-13,l)
);
}
);
width = 600;
}
);
unicode = 121;
},
{
glyphname = z;
kernLeft = z;
kernRight = z;
lastChange = "2025-07-25 14:12:02 +0000";
layers = (
{
anchors = (
{
name = top;
pos = (300,493);
}
);
hints = (
{
horizontal = 1;
origin = (0,11);
target = (0,2);
type = Stem;
},
{
horizontal = 1;
origin = (0,6);
target = (0,8);
type = Stem;
}
);
layerId = "D56600E4-3CB1-46B6-994E-4E22114E2E10";
shapes = (
{
closed = 1;
nodes = (
(524,0,l),
(524,106,l),
(193,106,l),
(222,73,l),
(515,378,l),
(515,493,l),
(80,493,l),
(80,387,l),
(401,387,l),
(368,423,l),
(77,113,l),
(77,0,l)
);
}
);
width = 600;
},
{
anchors = (
{
name = top;
pos = (299,472);
}
);
layerId = "FF94DDBB-E62A-4F15-93F9-F4255DC66883";
shapes = (
{
closed = 1;
nodes = (
(487,0,l),
(487,27,l),
(140,27,l),
(144,20,l),
(486,445,l),
(486,472,l),
(116,472,l),
(116,444,l),
(459,444,l),
(454,452,l),
(113,26,l),
(113,0,l)
);
}
);
width = 600;
}
);
unicode = 122;
},
{
glyphname = iogonek.dotless;
kernLeft = i;
kernRight = i;
lastChange = "2025-07-25 13:45:12 +0000";
layers = (
{
layerId = "D56600E4-3CB1-46B6-994E-4E22114E2E10";
shapes = (
{
ref = idotless;
},
{
pos = (110,0);
ref = ogonekcomb;
}
);
width = 600;
},
{
layerId = "FF94DDBB-E62A-4F15-93F9-F4255DC66883";
shapes = (
{
ref = idotless;
},
{
pos = (47,0);
ref = ogonekcomb;
}
);
width = 600;
},
{
anchors = (
{
name = top;
pos = (134,472);
}
);
associatedMasterId = "FF94DDBB-E62A-4F15-93F9-F4255DC66883";
layerId = "0147F17A-F843-4D16-800E-2E21B938A32B";
name = "25. Juli 25, 10:53";
shapes = (
{
closed = 1;
nodes = (
(143,-200,l),
(143,-175,l),
(105,-175,ls),
(79,-175,o),
(67,-157,o),
(67,-138,cs),
(67,-121,o),
(76,-104,o),
(87,-87,cs),
(149,0,l),
(149,472,l),
(19,472,l),
(19,444,l),
(133,444,l),
(120,457,l),
(120,0,l),
(134,0,l),
(129,11,l),
(69,-72,ls),
(51,-96,o),
(39,-117,o),
(39,-140,cs),
(39,-172,o),
(59,-200,o),
(102,-200,cs)
);
}
);
width = 600;
},
{
anchors = (
{
name = top;
pos = (180,493);
}
);
associatedMasterId = "D56600E4-3CB1-46B6-994E-4E22114E2E10";
hints = (
{
horizontal = 1;
origin = (0,15);
target = up;
type = BottomGhost;
},
{
horizontal = 1;
origin = (0,11);
target = (0,13);
type = Stem;
},
{
origin = (0,15);
target = (0,10);
type = Stem;
},
{
horizontal = 1;
origin = (0,24);
target = (0,2);
type = Stem;
}
);
layerId = "728E5F85-EF0F-43EB-BDF6-B9E9875BB8B6";
name = "25. Juli 25, 10:53";
shapes = (
{
closed = 1;
nodes = (
(254,-200,l),
(254,-99,l),
(236,-99,ls),
(216,-99,o),
(211,-87,o),
(211,-77,cs),
(211,-67,o),
(217,-56,o),
(222,-49,cs),
(254,0,l),
(254,493,l),
(21,493,l),
(21,367,l),
(172,367,l),
(104,435,l),
(104,0,l),
(190,0,l),
(163,54,l),
(112,-13,ls),
(88,-44,o),
(80,-69,o),
(80,-100,cs),
(80,-160,o),
(122,-200,o),
(190,-200,cs)
);
}
);
width = 600;
}
);
},
{
glyphname = a.ss01;
kernLeft = d;
kernRight = u;
lastChange = "2025-07-25 17:12:31 +0000";
layers = (
{
anchors = (
{
name = bottom;
pos = (290,0);
},
{
name = ogonek;
pos = (542,0);
},
{
name = top;
pos = (298,493);
}
);
hints = (
{
origin = (0,16);
target = (1,2);
type = Stem;
},
{
origin = (0,4);
target = (0,5);
type = Stem;
},
{
horizontal = 1;
origin = (0,19);
target = (1,12);
type = Stem;
},
{
horizontal = 1;
origin = (0,12);
target = (1,6);
type = Stem;
}
);
layerId = "D56600E4-3CB1-46B6-994E-4E22114E2E10";
shapes = (
{
closed = 1;
nodes = (
(321,-10,o),
(387,24,o),
(416,93,c),
(407,115,l),
(407,0,l),
(542,0,l),
(542,493,l),
(392,493,l),
(392,392,l),
(403,418,l),
(375,475,o),
(315,503,o),
(251,503,cs),
(126,503,o),
(48,410,o),
(48,251,cs),
(48,241,ls),
(48,83,o),
(125,-10,o),
(250,-10,cs)
);
},
{
closed = 1;
nodes = (
(235,101,o),
(198,145,o),
(198,241,cs),
(198,251,ls),
(198,347,o),
(235,392,o),
(297,392,cs),
(363,392,o),
(402,345,o),
(402,246,cs),
(402,147,o),
(363,101,o),
(297,101,cs)
);
}
);
width = 600;
},
{
anchors = (
{
name = bottom;
pos = (294,0);
},
{
name = ogonek;
pos = (496,0);
},
{
name = top;
pos = (293,472);
}
);
layerId = "FF94DDBB-E62A-4F15-93F9-F4255DC66883";
shapes = (
{
closed = 1;
nodes = (
(384,-10,o),
(443,47,o),
(475,136,c),
(468,141,l),
(468,0,l),
(496,0,l),
(496,472,l),
(467,472,l),
(467,331,l),
(474,337,l),
(442,425,o),
(383,482,o),
(287,482,cs),
(157,482,o),
(83,383,o),
(83,244,cs),
(83,235,ls),
(83,91,o),
(157,-10,o),
(287,-10,cs)
);
},
{
closed = 1;
nodes = (
(175,17,o),
(112,107,o),
(112,235,cs),
(112,244,ls),
(112,367,o),
(175,454,o),
(289,454,cs),
(401,454,o),
(468,364,o),
(468,236,cs),
(468,107,o),
(401,17,o),
(289,17,cs)
);
}
);
width = 600;
}
);
},
{
glyphname = g.ss02;
kernLeft = d;
kernRight = u;
lastChange = "2025-07-25 17:12:51 +0000";
layers = (
{
anchors = (
{
name = bottom;
pos = (302,-200);
},
{
name = top;
pos = (302,493);
}
);
background = {
shapes = (
{
closed = 1;
nodes = (
(314,-10,o),
(380,24,o),
(409,93,c),
(400,115,l),
(400,0,l),
(535,0,l),
(535,493,l),
(385,493,l),
(385,392,l),
(396,418,l),
(368,475,o),
(308,503,o),
(244,503,cs),
(119,503,o),
(41,410,o),
(41,251,cs),
(41,241,ls),
(41,83,o),
(118,-10,o),
(243,-10,cs)
);
},
{
closed = 1;
nodes = (
(228,101,o),
(191,145,o),
(191,241,cs),
(191,251,ls),
(191,347,o),
(228,392,o),
(290,392,cs),
(356,392,o),
(395,345,o),
(395,246,cs),
(395,147,o),
(356,101,o),
(290,101,cs)
);
}
);
};
hints = (
{
horizontal = 1;
origin = (0,17);
target = (1,12);
type = Stem;
},
{
horizontal = 1;
origin = (0,10);
target = (1,6);
type = Stem;
},
{
horizontal = 1;
origin = (0,27);
target = (0,26);
type = Stem;
},
{
origin = (0,22);
target = (0,3);
type = Stem;
},
{
origin = (0,14);
target = (1,2);
type = Stem;
}
);
layerId = "D56600E4-3CB1-46B6-994E-4E22114E2E10";
shapes = (
{
closed = 1;
nodes = (
(363,-200,ls),
(469,-200,o),
(535,-142,o),
(535,-43,cs),
(535,493,l),
(385,493,l),
(385,392,l),
(416,392,l),
(378,466,o),
(322,503,o),
(246,503,cs),
(124,503,o),
(41,410,o),
(41,251,cs),
(41,241,ls),
(41,83,o),
(124,-10,o),
(245,-10,cs),
(321,-10,o),
(377,18,o),
(417,97,c),
(385,103,l),
(385,-74,ls),
(385,-85,o),
(376,-94,o),
(365,-94,cs),
(84,-94,l),
(84,-200,l)
);
},
{
closed = 1;
nodes = (
(228,101,o),
(191,145,o),
(191,241,cs),
(191,251,ls),
(191,347,o),
(228,392,o),
(290,392,cs),
(356,392,o),
(395,345,o),
(395,246,cs),
(395,147,o),
(356,101,o),
(290,101,cs)
);
}
);
width = 600;
},
{
anchors = (
{
name = bottom;
pos = (276,-200);
},
{
name = top;
pos = (289,472);
}
);
layerId = "FF94DDBB-E62A-4F15-93F9-F4255DC66883";
shapes = (
{
closed = 1;
nodes = (
(389,-200,ls),
(451,-200,o),
(496,-156,o),
(496,-94,cs),
(496,472,l),
(467,472,l),
(467,331,l),
(474,337,l),
(442,425,o),
(383,482,o),
(287,482,cs),
(157,482,o),
(83,383,o),
(83,244,cs),
(83,235,ls),
(83,91,o),
(157,-10,o),
(287,-10,cs),
(384,-10,o),
(443,47,o),
(475,136,c),
(467,141,l),
(467,-95,ls),
(467,-140,o),
(434,-173,o),
(389,-173,cs),
(125,-173,l),
(125,-200,l)
);
},
{
closed = 1;
nodes = (
(175,17,o),
(112,107,o),
(112,235,cs),
(112,244,ls),
(112,367,o),
(175,454,o),
(289,454,cs),
(401,454,o),
(468,364,o),
(468,236,cs),
(468,107,o),
(401,17,o),
(289,17,cs)
);
}
);
width = 600;
}
);
},
{
glyphname = y.ss03;
kernLeft = u;
kernRight = u;
lastChange = "2025-07-25 17:13:10 +0000";
layers = (
{
anchors = (
{
name = bottom;
pos = (301,-200);
},
{
name = top;
pos = (301,493);
}
);
hints = (
{
horizontal = 1;
origin = (0,14);
target = down;
type = TopGhost;
},
{
horizontal = 1;
origin = (0,28);
target = (0,27);
type = Stem;
},
{
horizontal = 1;
origin = (0,18);
target = (0,9);
type = Stem;
},
{
origin = (0,14);
target = (0,13);
type = Stem;
},
{
origin = (0,5);
target = (0,4);
type = Stem;
}
);
layerId = "D56600E4-3CB1-46B6-994E-4E22114E2E10";
shapes = (
{
closed = 1;
nodes = (
(355,-200,ls),
(461,-200,o),
(527,-142,o),
(527,-43,cs),
(527,493,l),
(377,493,l),
(377,205,ls),
(377,141,o),
(341,106,o),
(291,106,cs),
(245,106,o),
(220,135,o),
(220,201,cs),
(220,493,l),
(70,493,l),
(70,196,ls),
(70,68,o),
(127,-10,o),
(237,-10,cs),
(294,-10,o),
(386,13,o),
(402,138,c),
(377,138,l),
(377,-74,ls),
(377,-85,o),
(368,-94,o),
(357,-94,cs),
(96,-94,l),
(96,-200,l)
);
}
);
width = 600;
},
{
anchors = (
{
name = bottom;
pos = (296,-200);
},
{
name = top;
pos = (301,472);
}
);
layerId = "FF94DDBB-E62A-4F15-93F9-F4255DC66883";
shapes = (
{
closed = 1;
nodes = (
(376,-200,ls),
(438,-200,o),
(485,-156,o),
(485,-94,cs),
(485,472,l),
(456,472,l),
(456,200,ls),
(456,79,o),
(385,18,o),
(295,18,cs),
(207,18,o),
(145,61,o),
(145,192,cs),
(145,472,l),
(116,472,l),
(116,190,ls),
(116,44,o),
(188,-10,o),
(293,-10,cs),
(357,-10,o),
(424,21,o),
(458,105,c),
(454,108,l),
(454,-95,ls),
(454,-140,o),
(421,-173,o),
(376,-173,cs),
(132,-173,l),
(132,-200,l)
);
}
);
width = 600;
}
);
},
{
color = 0;
export = 0;
glyphname = g.topAccent;
lastChange = "2025-07-25 14:12:02 +0000";
layers = (
{
anchors = (
{
name = top;
pos = (294,493);
}
);
layerId = "D56600E4-3CB1-46B6-994E-4E22114E2E10";
shapes = (
{
closed = 1;
nodes = (
(410,-200,ls),
(497,-200,o),
(559,-138,o),
(559,-56,cs),
(559,44,o),
(500,86,o),
(417,86,cs),
(252,86,ls),
(249,86,o),
(247,88,o),
(249,92,cs),
(295,185,l),
(169,215,l),
(117,108,ls),
(83,39,o),
(115,-30,o),
(192,-30,cs),
(386,-30,ls),
(405,-30,o),
(419,-40,o),
(419,-57,cs),
(419,-76,o),
(405,-87,o),
(386,-87,cs),
(51,-87,l),
(51,-200,l)
);
},
{
closed = 1;
nodes = (
(427,135,o),
(520,208,o),
(520,312,cs),
(520,322,ls),
(520,428,o),
(427,503,o),
(295,503,cs),
(163,503,o),
(70,428,o),
(70,322,cs),
(70,312,ls),
(70,208,o),
(163,135,o),
(295,135,cs)
);
},
{
closed = 1;
nodes = (
(258,229,o),
(217,249,o),
(217,319,cs),
(217,373,o),
(249,402,o),
(295,402,cs),
(341,402,o),
(373,373,o),
(373,319,cs),
(373,249,o),
(332,229,o),
(295,229,cs)
);
}
);
width = 600;
},
{
anchors = (
{
name = top;
pos = (313,472);
}
);
layerId = "FF94DDBB-E62A-4F15-93F9-F4255DC66883";
shapes = (
{
closed = 1;
nodes = (
(371,-200,ls),
(454,-200,o),
(506,-153,o),
(506,-80,cs),
(506,-11,o),
(454,31,o),
(372,31,cs),
(235,31,ls),
(178,31,o),
(182,76,o),
(197,104,cs),
(234,175,l),
(208,184,l),
(168,107,ls),
(146,63,o),
(156,5,o),
(231,5,cs),
(370,5,ls),
(436,5,o),
(478,-28,o),
(478,-80,cs),
(478,-138,o),
(436,-174,o),
(370,-174,cs),
(95,-174,l),
(95,-200,l)
);
},
{
closed = 1;
nodes = (
(425,148,o),
(504,217,o),
(504,314,cs),
(504,326,ls),
(504,417,o),
(425,482,o),
(313,482,cs),
(200,482,o),
(121,416,o),
(121,322,cs),
(121,314,ls),
(121,217,o),
(200,148,o),
(313,148,cs)
);
},
{
closed = 1;
nodes = (
(243,175,o),
(149,208,o),
(149,321,cs),
(149,402,o),
(216,455,o),
(313,455,cs),
(408,455,o),
(476,401,o),
(476,321,cs),
(476,207,o),
(386,175,o),
(313,175,cs)
);
}
);
width = 600;
}
);
},
{
color = 0;
export = 0;
glyphname = fi;
kernLeft = f;
kernRight = i;
lastChange = "2025-07-25 15:08:42 +0000";
layers = (
{
anchors = (
{
name = caret_1;
pos = (342,0);
}
);
hints = (
{
horizontal = 1;
origin = (1,11);
target = up;
type = BottomGhost;
},
{
horizontal = 1;
origin = (0,2);
target = (0,4);
type = Stem;
},
{
horizontal = 1;
origin = (1,6);
target = (1,1);
type = Stem;
},
{
origin = (1,11);
target = (1,1);
type = Stem;
},
{
origin = (0,6);
target = (0,1);
type = Stem;
}
);
layerId = "D56600E4-3CB1-46B6-994E-4E22114E2E10";
shapes = (
{
closed = 1;
nodes = (
(559,0,l),
(559,493,l),
(25,493,l),
(25,387,l),
(476,387,l),
(409,434,l),
(409,0,l)
);
},
{
closed = 1;
nodes = (
(274,0,l),
(274,606,ls),
(274,617,o),
(283,626,o),
(294,626,cs),
(458,626,l),
(458,730,l),
(296,730,ls),
(190,730,o),
(124,672,o),
(124,573,cs),
(124,0,l)
);
}
);
width = 600;
},
{
anchors = (
{
name = caret_1;
pos = (328,0);
}
);
layerId = "FF94DDBB-E62A-4F15-93F9-F4255DC66883";
shapes = (
{
closed = 1;
nodes = (
(492,0,l),
(492,472,l),
(68,472,l),
(68,444,l),
(476,444,l),
(463,457,l),
(463,0,l)
);
},
{
closed = 1;
nodes = (
(193,0,l),
(193,625,ls),
(193,670,o),
(226,703,o),
(271,703,cs),
(426,703,l),
(426,730,l),
(271,730,ls),
(209,730,o),
(164,686,o),
(164,624,cs),
(164,0,l)
);
}
);
width = 600;
},
{
anchors = (
{
name = caret_1;
pos = (342,0);
}
);
associatedMasterId = "D56600E4-3CB1-46B6-994E-4E22114E2E10";
hints = (
{
horizontal = 1;
origin = (1,11);
target = up;
type = BottomGhost;
},
{
horizontal = 1;
origin = (0,2);
target = (0,4);
type = Stem;
},
{
horizontal = 1;
origin = (2,2);
target = (2,3);
type = Stem;
},
{
origin = (1,11);
target = (1,1);
type = Stem;
},
{
origin = (0,6);
target = (0,1);
type = Stem;
}
);
layerId = "4C8CD627-5CAA-41C7-A666-A7166C0B184D";
name = "26. Juni 25, 12:26";
shapes = (
{
closed = 1;
nodes = (
(559,0,l),
(559,493,l),
(25,493,l),
(25,367,l),
(476,367,l),
(409,434,l),
(409,0,l)
);
},
{
closed = 1;
nodes = (
(274,0,l),
(274,586,ls),
(274,597,o),
(283,606,o),
(294,606,cs),
(358,606,l),
(358,730,l),
(296,730,ls),
(190,730,o),
(124,672,o),
(124,573,cs),
(124,0,l)
);
},
{
closed = 1;
nodes = (
(568,582,l),
(568,730,l),
(402,730,l),
(402,582,l)
);
}
);
width = 600;
},
{
anchors = (
{
name = caret_1;
pos = (279,0);
}
);
associatedMasterId = "FF94DDBB-E62A-4F15-93F9-F4255DC66883";
layerId = "232766A1-8D37-4ADF-B2B5-828B880D611C";
name = "26. Juni 25, 12:27";
shapes = (
{
closed = 1;
nodes = (
(443,0,l),
(443,472,l),
(19,472,l),
(19,444,l),
(427,444,l),
(414,457,l),
(414,0,l)
);
},
{
closed = 1;
nodes = (
(144,0,l),
(144,625,ls),
(144,670,o),
(177,703,o),
(222,703,cs),
(317,703,l),
(317,730,l),
(222,730,ls),
(160,730,o),
(115,686,o),
(115,624,cs),
(115,0,l)
);
},
{
closed = 1;
nodes = (
(443,590,l),
(443,683,l),
(414,683,l),
(414,590,l)
);
}
);
width = 600;
}
);
unicode = 64257;
},
{
color = 0;
export = 0;
glyphname = fl;
kernLeft = f;
kernRight = l;
lastChange = "2025-07-25 14:12:02 +0000";
layers = (
{
anchors = (
{
name = caret_1;
pos = (342,0);
}
);
hints = (
{
horizontal = 1;
origin = (2,11);
target = (2,2);
type = Stem;
},
{
horizontal = 1;
origin = (1,2);
target = (1,3);
type = Stem;
},
{
horizontal = 1;
origin = (2,7);
target = (0,5);
type = Stem;
},
{
origin = (0,11);
target = (0,1);
type = Stem;
},
{
origin = (2,6);
target = (2,8);
type = Stem;
}
);
layerId = "D56600E4-3CB1-46B6-994E-4E22114E2E10";
shapes = (
{
closed = 1;
nodes = (
(244,0,l),
(244,606,ls),
(244,617,o),
(253,626,o),
(264,626,cs),
(314,626,l),
(314,730,l),
(266,730,ls),
(160,730,o),
(94,672,o),
(94,573,cs),
(94,0,l)
);
},
{
closed = 1;
nodes = (
(441,387,l),
(441,493,l),
(15,493,l),
(15,387,l)
);
},
{
closed = 1;
nodes = (
(588,0,l),
(588,106,l),
(541,106,ls),
(530,106,o),
(521,115,o),
(521,126,cs),
(521,730,l),
(371,730,l),
(371,147,ls),
(371,54,o),
(433,0,o),
(532,0,cs)
);
}
);
width = 600;
},
{
anchors = (
{
name = caret_1;
pos = (309,0);
}
);
layerId = "FF94DDBB-E62A-4F15-93F9-F4255DC66883";
shapes = (
{
closed = 1;
nodes = (
(174,0,l),
(174,625,ls),
(174,670,o),
(207,703,o),
(252,703,cs),
(327,703,l),
(327,730,l),
(252,730,ls),
(190,730,o),
(145,686,o),
(145,624,cs),
(145,0,l)
);
},
{
closed = 1;
nodes = (
(437,444,l),
(437,472,l),
(49,472,l),
(49,444,l)
);
},
{
closed = 1;
nodes = (
(563,0,l),
(563,27,l),
(526,27,ls),
(481,27,o),
(448,60,o),
(448,105,cs),
(448,730,l),
(420,730,l),
(420,105,ls),
(420,44,o),
(464,0,o),
(525,0,cs)
);
}
);
width = 600;
}
);
unicode = 64258;
},
{
glyphname = ordfeminine;
kernRight = "406";
lastChange = "2025-07-25 17:13:54 +0000";
layers = (
{
hints = (
{
horizontal = 1;
origin = (2,5);
target = (1,6);
type = Stem;
},
{
horizontal = 1;
origin = (0,7);
target = (0,14);
type = Stem;
},
{
horizontal = 1;
origin = (1,12);
target = (2,11);
type = Stem;
},
{
origin = (0,20);
target = (0,0);
type = Stem;
},
{
origin = (1,9);
target = (2,2);
type = Stem;
}
);
layerId = "D56600E4-3CB1-46B6-994E-4E22114E2E10";
shapes = (
{
closed = 1;
nodes = (
(478,329,l),
(476,368,o),
(476,406,o),
(476,445,cs),
(476,566,ls),
(476,657,o),
(404,707,o),
(305,707,cs),
(235,707,o),
(168,682,o),
(133,647,c),
(176,574,l),
(213,599,o),
(260,614,o),
(297,614,cs),
(331,614,o),
(359,602,o),
(359,567,cs),
(359,482,l),
(373,437,l),
(373,329,l)
);
},
{
closed = 1;
nodes = (
(334,322,o),
(384,368,o),
(384,438,c),
(418,438,l),
(418,500,o),
(357,546,o),
(277,546,cs),
(172,546,o),
(123,499,o),
(123,431,cs),
(123,367,o),
(173,322,o),
(259,322,cs)
);
},
{
closed = 1;
nodes = (
(266,400,o),
(241,415,o),
(241,439,cs),
(241,461,o),
(265,477,o),
(300,477,cs),
(336,477,o),
(360,461,o),
(360,439,cs),
(360,415,o),
(335,400,o),
(300,400,cs)
);
}
);
userData = {
RMXScaler = {
height = 75;
verticalShift = 329;
weight = -170;
width = 75;
};
};
width = 600;
},
{
layerId = "FF94DDBB-E62A-4F15-93F9-F4255DC66883";
shapes = (
{
closed = 1;
nodes = (
(437,368,l),
(436,398,o),
(435,442,o),
(435,480,cs),
(435,585,ls),
(435,662,o),
(386,707,o),
(307,707,cs),
(255,707,o),
(206,687,o),
(175,650,c),
(190,630,l),
(220,665,o),
(261,681,o),
(305,681,cs),
(369,681,o),
(406,645,o),
(406,585,cs),
(406,484,l),
(409,480,l),
(409,368,l)
);
},
{
closed = 1;
nodes = (
(368,361,o),
(421,403,o),
(421,459,c),
(425,459,l),
(425,512,o),
(370,552,o),
(298,552,cs),
(211,552,o),
(163,513,o),
(163,457,cs),
(163,399,o),
(212,361,o),
(295,361,cs)
);
},
{
closed = 1;
nodes = (
(231,384,o),
(193,415,o),
(193,458,cs),
(193,501,o),
(231,530,o),
(301,530,cs),
(361,530,o),
(406,499,o),
(406,457,cs),
(406,415,o),
(361,384,o),
(302,384,cs)
);
}
);
userData = {
RMXScaler = {
height = 70;
verticalShift = 368;
weight = 20;
width = 70;
};
};
width = 600;
},
{
associatedMasterId = "FF94DDBB-E62A-4F15-93F9-F4255DC66883";
attr = {
coordinates = (
400
);
};
hints = (
{
horizontal = 1;
origin = (2,5);
target = (1,6);
type = Stem;
},
{
horizontal = 1;
origin = (0,7);
target = (0,14);
type = Stem;
},
{
horizontal = 1;
origin = (1,12);
target = (2,11);
type = Stem;
},
{
place = (58,64);
type = Stem;
},
{
place = (182,64);
type = Stem;
}
);
layerId = "DBE48AC5-6A3E-438B-97A8-3DE50A8DF893";
name = "13. Juli 25, 15:13";
shapes = (
{
closed = 1;
nodes = (
(455,351,l),
(453,386,o),
(453,427,o),
(453,465,cs),
(453,577,ls),
(453,660,o),
(394,707,o),
(306,707,cs),
(246,707,o),
(189,684,o),
(157,649,c),
(184,606,l),
(216,636,o),
(261,652,o),
(302,652,cs),
(353,652,o),
(386,627,o),
(386,577,cs),
(386,483,l),
(394,462,l),
(394,351,l)
);
},
{
closed = 1;
nodes = (
(353,344,o),
(405,388,o),
(405,450,c),
(422,450,l),
(422,509,o),
(364,552,o),
(289,552,cs),
(194,552,o),
(146,509,o),
(146,446,cs),
(146,385,o),
(195,344,o),
(280,344,cs)
);
},
{
closed = 1;
nodes = (
(246,391,o),
(214,414,o),
(214,447,cs),
(214,479,o),
(246,500,o),
(301,500,cs),
(350,500,o),
(386,478,o),
(386,446,cs),
(386,414,o),
(350,391,o),
(301,391,cs)
);
}
);
userData = {
RMXScaler = {
height = 70;
verticalShift = 368;
weight = 20;
width = 70;
};
};
width = 600;
}
);
unicode = 170;
userData = {
RMXScaler = {
source = a;
};
};
},
{
glyphname = ordmasculine;
lastChange = "2025-07-25 14:12:02 +0000";
layers = (
{
hints = (
{
horizontal = 1;
origin = (0,13);
target = (1,13);
type = Stem;
},
{
horizontal = 1;
origin = (0,6);
target = (1,6);
type = Stem;
},
{
origin = (0,10);
target = (1,3);
type = Stem;
},
{
origin = (1,10);
target = (0,3);
type = Stem;
}
);
layerId = "D56600E4-3CB1-46B6-994E-4E22114E2E10";
shapes = (
{
closed = 1;
nodes = (
(412,322,o),
(499,400,o),
(499,511,cs),
(499,518,ls),
(499,629,o),
(412,707,o),
(301,707,cs),
(189,707,o),
(102,629,o),
(102,518,cs),
(102,511,ls),
(102,400,o),
(189,322,o),
(301,322,cs)
);
},
{
closed = 1;
nodes = (
(253,408,o),
(220,444,o),
(220,511,cs),
(220,518,ls),
(220,584,o),
(253,620,o),
(301,620,cs),
(349,620,o),
(382,584,o),
(382,518,cs),
(382,511,ls),
(382,444,o),
(349,408,o),
(301,408,cs)
);
}
);
userData = {
RMXScaler = {
height = 75;
verticalShift = 329;
weight = -170;
width = 75;
};
};
width = 600;
},
{
layerId = "FF94DDBB-E62A-4F15-93F9-F4255DC66883";
shapes = (
{
closed = 1;
nodes = (
(387,363,o),
(446,432,o),
(446,535,cs),
(446,543,ls),
(446,642,o),
(387,709,o),
(300,709,cs),
(213,709,o),
(154,641,o),
(154,541,cs),
(154,535,ls),
(154,432,o),
(213,363,o),
(300,363,cs)
);
},
{
closed = 1;
nodes = (
(230,389,o),
(183,447,o),
(183,535,cs),
(183,541,ls),
(183,626,o),
(230,683,o),
(300,683,cs),
(370,683,o),
(417,628,o),
(417,543,cs),
(417,535,ls),
(417,447,o),
(370,389,o),
(300,389,cs)
);
}
);
userData = {
RMXScaler = {
height = 70;
verticalShift = 370;
weight = 20;
width = 70;
};
};
width = 600;
}
);
unicode = 186;
userData = {
RMXScaler = {
source = o;
};
};
},
{
glyphname = ordfeminine.ss01;
lastChange = "2025-07-25 17:14:04 +0000";
layers = (
{
layerId = "FF94DDBB-E62A-4F15-93F9-F4255DC66883";
shapes = (
{
closed = 1;
nodes = (
(363,361,o),
(404,400,o),
(426,460,c),
(421,465,l),
(421,368,l),
(448,368,l),
(448,700,l),
(419,700,l),
(419,604,l),
(424,610,l),
(402,669,o),
(361,707,o),
(296,707,cs),
(205,707,o),
(153,638,o),
(153,539,cs),
(153,533,ls),
(153,431,o),
(205,361,o),
(296,361,cs)
);
},
{
closed = 1;
nodes = (
(224,386,o),
(182,446,o),
(182,533,cs),
(182,539,ls),
(182,623,o),
(224,681,o),
(300,681,cs),
(375,681,o),
(420,621,o),
(420,534,cs),
(420,446,o),
(375,386,o),
(300,386,cs)
);
}
);
userData = {
RMXScaler = {
height = 70;
verticalShift = 368;
weight = 20;
width = 70;
};
};
width = 600;
},
{
hints = (
{
origin = (0,16);
target = (1,2);
type = Stem;
},
{
origin = (0,4);
target = (0,5);
type = Stem;
},
{
horizontal = 1;
origin = (0,19);
target = (1,12);
type = Stem;
},
{
horizontal = 1;
origin = (0,12);
target = (1,6);
type = Stem;
}
);
layerId = "D56600E4-3CB1-46B6-994E-4E22114E2E10";
shapes = (
{
closed = 1;
nodes = (
(316,322,o),
(366,346,o),
(388,397,c),
(381,414,l),
(381,329,l),
(487,329,l),
(487,700,l),
(369,700,l),
(369,626,l),
(378,646,l),
(357,688,o),
(311,707,o),
(265,707,cs),
(172,707,o),
(113,638,o),
(113,518,cs),
(113,510,ls),
(113,391,o),
(171,322,o),
(264,322,cs)
);
},
{
closed = 1;
nodes = (
(258,408,o),
(231,438,o),
(231,510,cs),
(231,518,ls),
(231,589,o),
(258,620,o),
(302,620,cs),
(349,620,o),
(377,586,o),
(377,514,cs),
(377,441,o),
(349,408,o),
(302,408,cs)
);
}
);
userData = {
RMXScaler = {
height = 75;
verticalShift = 329;
weight = -170;
width = 75;
};
};
width = 600;
}
);
userData = {
RMXScaler = {
source = a.ss01;
};
};
},
{
glyphname = zero;
lastChange = "2025-07-25 14:12:02 +0000";
layers = (
{
hints = (
{
horizontal = 1;
origin = (0,11);
target = (1,11);
type = Stem;
},
{
horizontal = 1;
origin = (0,5);
target = (1,5);
type = Stem;
},
{
origin = (0,8);
target = (1,2);
type = Stem;
},
{
origin = (1,8);
target = (0,2);
type = Stem;
}
);
layerId = "D56600E4-3CB1-46B6-994E-4E22114E2E10";
shapes = (
{
closed = 1;
nodes = (
(472,-10,o),
(572,118,o),
(572,348,cs),
(572,580,o),
(472,710,o),
(301,710,cs),
(129,710,o),
(28,580,o),
(28,348,cs),
(28,118,o),
(129,-10,o),
(301,-10,cs)
);
},
{
closed = 1;
nodes = (
(221,120,o),
(181,192,o),
(181,348,cs),
(181,507,o),
(221,580,o),
(301,580,cs),
(380,580,o),
(419,507,o),
(419,348,cs),
(419,192,o),
(380,120,o),
(301,120,cs)
);
},
{
closed = 1;
nodes = (
(488,426,l),
(463,539,l),
(124,284,l),
(153,173,l)
);
}
);
userData = {
RMXScaler = {
monoWidth = 600;
};
};
width = 600;
},
{
layerId = "FF94DDBB-E62A-4F15-93F9-F4255DC66883";
shapes = (
{
closed = 1;
nodes = (
(449,-10,o),
(542,128,o),
(542,350,cs),
(542,572,o),
(449,710,o),
(299,710,cs),
(150,710,o),
(58,572,o),
(58,350,cs),
(58,128,o),
(150,-10,o),
(299,-10,cs)
);
},
{
closed = 1;
nodes = (
(168,18,o),
(87,145,o),
(87,350,cs),
(87,555,o),
(168,682,o),
(299,682,cs),
(431,682,o),
(513,555,o),
(513,350,cs),
(513,145,o),
(431,18,o),
(299,18,cs)
);
},
{
closed = 1;
nodes = (
(507,496,l),
(500,528,l),
(92,204,l),
(101,175,l)
);
}
);
userData = {
RMXScaler = {
monoWidth = 600;
};
};
width = 600;
}
);
unicode = 48;
userData = {
RMXScaler = {
source = zero;
};
};
},
{
glyphname = one;
lastChange = "2025-07-25 14:12:02 +0000";
layers = (
{
hints = (
{
horizontal = 1;
origin = (1,3);
target = (1,2);
type = Stem;
},
{
horizontal = 1;
origin = (0,5);
target = (0,7);
type = Stem;
},
{
origin = (0,11);
target = (0,1);
type = Stem;
}
);
layerId = "D56600E4-3CB1-46B6-994E-4E22114E2E10";
shapes = (
{
closed = 1;
nodes = (
(396,56,l),
(396,579,ls),
(396,649,o),
(345,700,o),
(275,700,cs),
(81,700,l),
(81,575,l),
(230,575,ls),
(238,575,o),
(241,572,o),
(241,564,cs),
(241,56,l)
);
},
{
closed = 1;
nodes = (
(545,0,l),
(545,125,l),
(88,125,l),
(88,0,l)
);
}
);
userData = {
RMXScaler = {
source = one;
};
};
width = 600;
},
{
layerId = "FF94DDBB-E62A-4F15-93F9-F4255DC66883";
shapes = (
{
closed = 1;
nodes = (
(330,13,l),
(330,597,ls),
(330,657,o),
(287,700,o),
(226,700,cs),
(102,700,l),
(102,672,l),
(223,672,ls),
(268,672,o),
(300,638,o),
(300,593,cs),
(300,13,l)
);
},
{
closed = 1;
nodes = (
(537,0,l),
(537,28,l),
(93,28,l),
(93,0,l)
);
}
);
userData = {
RMXScaler = {
monoWidth = 600;
};
};
width = 600;
}
);
unicode = 49;
userData = {
RMXScaler = {
source = one;
};
};
},
{
glyphname = two;
lastChange = "2025-07-25 14:12:02 +0000";
layers = (
{
hints = (
{
horizontal = 1;
origin = (0,25);
target = (0,2);
type = Stem;
},
{
horizontal = 1;
origin = (0,10);
target = (0,17);
type = Stem;
},
{
origin = (0,7);
target = (0,20);
type = Stem;
}
);
layerId = "D56600E4-3CB1-46B6-994E-4E22114E2E10";
shapes = (
{
closed = 1;
nodes = (
(549,0,l),
(549,122,l),
(230,122,l),
(237,99,l),
(400,262,ls),
(481,343,o),
(519,421,o),
(519,500,cs),
(519,623,o),
(419,710,o),
(280,710,cs),
(176,710,o),
(96,658,o),
(40,576,c),
(137,481,l),
(180,541,o),
(219,574,o),
(274,574,cs),
(325,574,o),
(357,538,o),
(357,483,cs),
(357,438,o),
(335,398,o),
(290,352,cs),
(56,117,l),
(56,0,l)
);
}
);
userData = {
RMXScaler = {
monoWidth = 600;
};
};
width = 600;
},
{
layerId = "FF94DDBB-E62A-4F15-93F9-F4255DC66883";
shapes = (
{
closed = 1;
nodes = (
(520,0,l),
(520,28,l),
(114,28,l),
(117,22,l),
(375,283,ls),
(476,386,o),
(494,450,o),
(494,509,cs),
(494,631,o),
(419,710,o),
(291,710,cs),
(210,710,o),
(129,664,o),
(82,586,c),
(104,568,l),
(147,639,o),
(218,681,o),
(291,681,cs),
(397,681,o),
(464,618,o),
(464,508,cs),
(464,453,o),
(446,395,o),
(353,302,cs),
(78,23,l),
(78,0,l)
);
}
);
userData = {
RMXScaler = {
monoWidth = 600;
useSpacing = 80;
};
};
width = 600;
}
);
unicode = 50;
userData = {
RMXScaler = {
source = two;
};
};
},
{
glyphname = three;
lastChange = "2025-07-25 14:12:02 +0000";
layers = (
{
hints = (
{
horizontal = 1;
origin = (0,41);
target = (0,34);
type = Stem;
},
{
horizontal = 1;
origin = (0,28);
target = (0,26);
type = Stem;
},
{
horizontal = 1;
origin = (0,12);
target = (0,19);
type = Stem;
},
{
origin = (0,31);
target = (0,2);
type = Stem;
}
);
layerId = "D56600E4-3CB1-46B6-994E-4E22114E2E10";
shapes = (
{
closed = 1;
nodes = (
(428,-10,o),
(543,74,o),
(543,200,cs),
(543,293,o),
(470,370,o),
(300,370,c),
(300,335,l),
(444,335,o),
(527,412,o),
(527,513,cs),
(527,631,o),
(429,710,o),
(283,710,cs),
(191,710,o),
(105,674,o),
(44,612,c),
(133,505,l),
(172,549,o),
(219,575,o),
(277,575,cs),
(337,575,o),
(373,544,o),
(373,493,cs),
(373,447,o),
(336,416,o),
(284,416,cs),
(188,416,l),
(188,281,l),
(297,281,ls),
(350,281,o),
(387,253,o),
(387,207,cs),
(387,155,o),
(344,122,o),
(275,122,cs),
(216,122,o),
(169,144,o),
(123,190,c),
(36,85,l),
(99,23,o),
(177,-10,o),
(274,-10,cs)
);
}
);
userData = {
RMXScaler = {
monoWidth = 600;
};
};
width = 600;
},
{
layerId = "FF94DDBB-E62A-4F15-93F9-F4255DC66883";
shapes = (
{
closed = 1;
nodes = (
(417,-10,o),
(513,67,o),
(513,179,cs),
(513,285,o),
(428,362,o),
(271,362,c),
(271,347,l),
(412,347,o),
(493,431,o),
(493,534,cs),
(493,643,o),
(405,710,o),
(279,710,cs),
(187,710,o),
(122,674,o),
(89,643,c),
(106,621,l),
(134,648,o),
(193,682,o),
(279,682,cs),
(388,682,o),
(464,625,o),
(464,531,cs),
(464,443,o),
(394,368,o),
(269,368,cs),
(177,368,l),
(177,340,l),
(270,340,ls),
(404,340,o),
(484,275,o),
(484,181,cs),
(484,85,o),
(401,17,o),
(282,17,cs),
(182,17,o),
(121,54,o),
(83,91,c),
(64,69,l),
(108,27,o),
(175,-10,o),
(281,-10,cs)
);
}
);
userData = {
RMXScaler = {
monoWidth = 600;
useSpacing = 68;
};
};
width = 600;
}
);
unicode = 51;
userData = {
RMXScaler = {
source = three;
};
};
},
{
glyphname = four;
lastChange = "2025-07-25 14:12:02 +0000";
layers = (
{
hints = (
{
horizontal = 1;
origin = (1,3);
target = up;
type = BottomGhost;
},
{
horizontal = 1;
origin = (0,7);
target = (0,2);
type = Stem;
},
{
horizontal = 1;
origin = (0,5);
target = down;
type = TopGhost;
},
{
origin = (1,3);
target = (1,1);
type = Stem;
}
);
layerId = "D56600E4-3CB1-46B6-994E-4E22114E2E10";
shapes = (
{
closed = 1;
nodes = (
(574,145,l),
(574,281,l),
(138,281,l),
(174,237,l),
(382,700,l),
(226,700,l),
(28,275,l),
(28,145,l)
);
},
{
closed = 1;
nodes = (
(486,0,l),
(486,450,l),
(334,450,l),
(334,0,l)
);
}
);
userData = {
RMXScaler = {
monoWidth = 600;
};
};
width = 600;
},
{
layerId = "FF94DDBB-E62A-4F15-93F9-F4255DC66883";
shapes = (
{
closed = 1;
nodes = (
(553,189,l),
(553,217,l),
(86,217,l),
(92,211,l),
(353,700,l),
(320,700,l),
(61,214,l),
(61,189,l)
);
},
{
closed = 1;
nodes = (
(425,0,l),
(425,422,l),
(396,422,l),
(396,0,l)
);
}
);
userData = {
RMXScaler = {
monoWidth = 600;
};
};
width = 600;
}
);
unicode = 52;
userData = {
RMXScaler = {
source = four;
};
};
},
{
glyphname = five;
lastChange = "2025-07-25 14:12:02 +0000";
layers = (
{
hints = (
{
horizontal = 1;
origin = (0,37);
target = (0,30);
type = Stem;
},
{
horizontal = 1;
origin = (0,24);
target = (0,5);
type = Stem;
},
{
horizontal = 1;
origin = (0,16);
target = (0,14);
type = Stem;
},
{
place = (91.5,145.5);
type = Stem;
},
{
origin = (0,27);
target = (0,2);
type = Stem;
}
);
layerId = "D56600E4-3CB1-46B6-994E-4E22114E2E10";
shapes = (
{
closed = 1;
nodes = (
(433,-10,o),
(549,86,o),
(549,239,cs),
(549,361,o),
(475,438,o),
(369,438,cs),
(290,438,o),
(239,403,o),
(217,338,c),
(232,334,l),
(237,554,ls),
(237,560,o),
(242,565,o),
(248,565,cs),
(523,565,l),
(523,700,l),
(214,700,ls),
(147,700,o),
(94,653,o),
(93,585,cs),
(90,263,l),
(214,263,l),
(233,294,o),
(262,310,o),
(300,310,cs),
(359,310,o),
(393,276,o),
(393,223,cs),
(393,161,o),
(352,122,o),
(279,122,cs),
(222,122,o),
(174,144,o),
(128,190,c),
(41,85,l),
(104,23,o),
(182,-10,o),
(278,-10,cs)
);
}
);
userData = {
RMXScaler = {
monoWidth = 600;
};
};
width = 600;
},
{
layerId = "FF94DDBB-E62A-4F15-93F9-F4255DC66883";
shapes = (
{
closed = 1;
nodes = (
(427,-10,o),
(526,77,o),
(526,222,cs),
(526,346,o),
(450,436,o),
(321,436,cs),
(226,436,o),
(158,387,o),
(129,321,c),
(139,319,l),
(154,609,ls),
(156,646,o),
(188,672,o),
(226,672,cs),
(488,672,l),
(488,700,l),
(223,700,ls),
(170,700,o),
(128,663,o),
(125,611,cs),
(109,284,l),
(137,284,l),
(159,357,o),
(224,408,o),
(317,408,cs),
(433,408,o),
(497,329,o),
(497,220,cs),
(497,95,o),
(412,17,o),
(284,17,cs),
(190,17,o),
(125,58,o),
(91,91,c),
(72,69,l),
(112,30,o),
(184,-10,o),
(282,-10,cs)
);
}
);
userData = {
RMXScaler = {
monoWidth = 600;
useSpacing = 80;
};
};
width = 600;
}
);
unicode = 53;
userData = {
RMXScaler = {
source = five;
};
};
},
{
glyphname = six;
lastChange = "2025-07-25 14:12:02 +0000";
layers = (
{
hints = (
{
horizontal = 1;
origin = (0,18);
target = (1,11);
type = Stem;
},
{
horizontal = 1;
origin = (1,5);
target = (0,5);
type = Stem;
},
{
horizontal = 1;
origin = (0,11);
target = down;
type = TopGhost;
},
{
origin = (0,15);
target = (1,2);
type = Stem;
},
{
origin = (1,8);
target = (0,2);
type = Stem;
}
);
layerId = "D56600E4-3CB1-46B6-994E-4E22114E2E10";
shapes = (
{
closed = 1;
nodes = (
(463,-10,o),
(571,81,o),
(571,229,cs),
(571,364,o),
(496,463,o),
(358,463,cs),
(303,463,o),
(253,441,o),
(209,396,c),
(236,404,l),
(477,700,l),
(288,700,l),
(125,460,ls),
(70,379,o),
(37,306,o),
(37,239,cs),
(37,86,o),
(140,-10,o),
(305,-10,cs)
);
},
{
closed = 1;
nodes = (
(240,112,o),
(198,158,o),
(198,228,cs),
(198,299,o),
(240,346,o),
(303,346,cs),
(367,346,o),
(409,299,o),
(409,228,cs),
(409,158,o),
(367,112,o),
(303,112,cs)
);
}
);
userData = {
RMXScaler = {
monoWidth = 600;
};
};
width = 600;
},
{
layerId = "FF94DDBB-E62A-4F15-93F9-F4255DC66883";
shapes = (
{
closed = 1;
nodes = (
(441,-10,o),
(535,84,o),
(535,218,cs),
(535,352,o),
(442,446,o),
(312,446,cs),
(260,446,o),
(208,432,o),
(168,395,c),
(175,391,l),
(399,700,l),
(361,700,l),
(126,369,ls),
(97,328,o),
(78,278,o),
(78,218,cs),
(78,79,o),
(167,-10,o),
(307,-10,cs)
);
},
{
closed = 1;
nodes = (
(185,18,o),
(107,96,o),
(107,218,cs),
(107,337,o),
(187,419,o),
(310,419,cs),
(425,419,o),
(506,336,o),
(506,218,cs),
(506,100,o),
(424,18,o),
(306,18,cs)
);
}
);
userData = {
RMXScaler = {
monoWidth = 600;
useSpacing = 80;
};
};
width = 600;
}
);
unicode = 54;
userData = {
RMXScaler = {
source = six;
};
};
},
{
glyphname = seven;
lastChange = "2025-07-25 14:12:02 +0000";
layers = (
{
hints = (
{
horizontal = 1;
origin = (0,7);
target = up;
type = BottomGhost;
},
{
horizontal = 1;
origin = (0,3);
target = (0,5);
type = Stem;
}
);
layerId = "D56600E4-3CB1-46B6-994E-4E22114E2E10";
shapes = (
{
closed = 1;
nodes = (
(270,0,l),
(552,590,l),
(552,700,l),
(52,700,l),
(52,565,l),
(431,565,l),
(397,597,l),
(94,0,l)
);
}
);
userData = {
RMXScaler = {
monoWidth = 600;
};
};
width = 600;
},
{
layerId = "FF94DDBB-E62A-4F15-93F9-F4255DC66883";
shapes = (
{
closed = 1;
nodes = (
(182,0,l),
(531,680,l),
(531,700,l),
(64,700,l),
(64,672,l),
(507,672,l),
(502,682,l),
(148,0,l)
);
}
);
userData = {
RMXScaler = {
monoWidth = 600;
};
};
width = 600;
}
);
unicode = 55;
userData = {
RMXScaler = {
source = seven;
};
};
},
{
glyphname = eight;
lastChange = "2025-07-25 14:12:02 +0000";
layers = (
{
hints = (
{
horizontal = 1;
origin = (0,25);
target = (1,11);
type = Stem;
},
{
horizontal = 1;
origin = (1,5);
target = (2,11);
type = Stem;
},
{
horizontal = 1;
origin = (0,12);
target = (2,5);
type = Stem;
},
{
origin = (2,2);
target = (0,15);
type = Stem;
},
{
origin = (2,8);
target = (0,9);
type = Stem;
}
);
layerId = "D56600E4-3CB1-46B6-994E-4E22114E2E10";
shapes = (
{
closed = 1;
nodes = (
(465,-10,o),
(571,69,o),
(571,197,cs),
(571,299,o),
(491,369,o),
(359,369,c),
(359,357,l),
(475,357,o),
(550,428,o),
(550,518,cs),
(550,634,o),
(452,710,o),
(300,710,cs),
(147,710,o),
(49,633,o),
(49,517,cs),
(49,427,o),
(125,357,o),
(241,357,c),
(241,369,l),
(109,369,o),
(29,299,o),
(29,196,cs),
(29,69,o),
(134,-10,o),
(300,-10,cs)
);
},
{
closed = 1;
nodes = (
(233,115,o),
(193,151,o),
(193,211,cs),
(193,271,o),
(233,307,o),
(301,307,cs),
(368,307,o),
(407,271,o),
(407,211,cs),
(407,151,o),
(367,115,o),
(300,115,cs)
);
},
{
closed = 1;
nodes = (
(241,406,o),
(205,439,o),
(205,495,cs),
(205,552,o),
(240,585,o),
(300,585,cs),
(360,585,o),
(395,552,o),
(395,495,cs),
(395,439,o),
(360,406,o),
(301,406,cs)
);
}
);
userData = {
RMXScaler = {
monoWidth = 600;
};
};
width = 600;
},
{
layerId = "FF94DDBB-E62A-4F15-93F9-F4255DC66883";
shapes = (
{
closed = 1;
nodes = (
(441,-10,o),
(541,71,o),
(541,187,cs),
(541,301,o),
(443,376,o),
(306,376,c),
(306,361,l),
(431,361,o),
(512,431,o),
(512,534,cs),
(512,639,o),
(428,710,o),
(300,710,cs),
(173,710,o),
(89,639,o),
(89,534,cs),
(89,431,o),
(170,361,o),
(294,361,c),
(294,376,l),
(157,376,o),
(59,301,o),
(59,187,cs),
(59,71,o),
(159,-10,o),
(300,-10,cs)
);
},
{
closed = 1;
nodes = (
(177,18,o),
(88,88,o),
(88,190,cs),
(88,290,o),
(177,355,o),
(300,355,cs),
(423,355,o),
(512,290,o),
(512,190,cs),
(512,88,o),
(423,18,o),
(300,18,cs)
);
},
{
closed = 1;
nodes = (
(190,382,o),
(118,442,o),
(118,532,cs),
(118,621,o),
(190,682,o),
(300,682,cs),
(410,682,o),
(483,621,o),
(483,532,cs),
(483,442,o),
(410,382,o),
(300,382,cs)
);
}
);
userData = {
RMXScaler = {
monoWidth = 600;
useSpacing = 80;
};
};
width = 600;
}
);
unicode = 56;
userData = {
RMXScaler = {
source = eight;
};
};
},
{
glyphname = nine;
lastChange = "2025-07-25 17:15:18 +0000";
layers = (
{
hints = (
{
place = (29,162);
target = (1,2);
type = Stem;
},
{
origin = (0,4);
target = (1,8);
type = Stem;
},
{
horizontal = 1;
place = (237,117);
target = (1,11);
type = Stem;
},
{
horizontal = 1;
origin = (1,5);
target = (0,7);
type = Stem;
}
);
layerId = "D56600E4-3CB1-46B6-994E-4E22114E2E10";
shapes = (
{
closed = 1;
nodes = (
(312,0,l),
(475,240,ls),
(530,321,o),
(563,394,o),
(563,461,cs),
(563,614,o),
(460,710,o),
(295,710,cs),
(137,710,o),
(29,619,o),
(29,471,cs),
(29,336,o),
(104,237,o),
(242,237,cs),
(297,237,o),
(347,259,o),
(391,304,c),
(364,296,l),
(123,0,l)
);
},
{
closed = 1;
nodes = (
(233,354,o),
(191,401,o),
(191,472,cs),
(191,542,o),
(233,588,o),
(297,588,cs),
(360,588,o),
(402,542,o),
(402,472,cs),
(402,401,o),
(360,354,o),
(297,354,cs)
);
}
);
userData = {
RMXScaler = {
monoWidth = 600;
};
};
width = 600;
},
{
layerId = "FF94DDBB-E62A-4F15-93F9-F4255DC66883";
shapes = (
{
closed = 1;
nodes = (
(239,0,l),
(474,331,ls),
(503,372,o),
(522,422,o),
(522,482,cs),
(522,621,o),
(433,710,o),
(293,710,cs),
(159,710,o),
(65,616,o),
(65,482,cs),
(65,348,o),
(158,254,o),
(288,254,cs),
(340,254,o),
(392,268,o),
(432,305,c),
(425,309,l),
(201,0,l)
);
},
{
closed = 1;
nodes = (
(175,281,o),
(94,364,o),
(94,482,cs),
(94,600,o),
(176,682,o),
(294,682,cs),
(415,682,o),
(493,604,o),
(493,482,cs),
(493,363,o),
(413,281,o),
(290,281,cs)
);
}
);
userData = {
RMXScaler = {
monoWidth = 600;
useSpacing = 80;
};
};
width = 600;
}
);
unicode = 57;
userData = {
RMXScaler = {
source = nine;
};
};
},
{
glyphname = zero.dnom;
kernLeft = zero.dnom;
kernRight = zero.dnom;
lastChange = "2025-07-25 14:12:02 +0000";
layers = (
{
hints = (
{
horizontal = 1;
origin = (0,11);
target = (1,11);
type = Stem;
},
{
horizontal = 1;
origin = (0,5);
target = (1,5);
type = Stem;
},
{
origin = (0,8);
target = (1,2);
type = Stem;
},
{
origin = (1,8);
target = (0,2);
type = Stem;
}
);
layerId = "D56600E4-3CB1-46B6-994E-4E22114E2E10";
shapes = (
{
closed = 1;
nodes = (
(391,-5,o),
(444,60,o),
(444,177,cs),
(444,296,o),
(391,362,o),
(301,362,cs),
(210,362,o),
(157,295,o),
(157,177,cs),
(157,59,o),
(211,-5,o),
(301,-5,cs)
);
},
{
closed = 1;
nodes = (
(266,72,o),
(248,102,o),
(248,177,cs),
(248,253,o),
(265,285,o),
(301,285,cs),
(336,285,o),
(352,252,o),
(352,177,cs),
(352,102,o),
(335,72,o),
(301,72,cs)
);
},
{
closed = 1;
nodes = (
(395,210,l),
(380,276,l),
(213,153,l),
(230,87,l)
);
}
);
userData = {
RMXScaler = {
adjustSpace = 19;
height = 51;
weight = -317;
width = 51;
};
};
width = 600;
},
{
layerId = "FF94DDBB-E62A-4F15-93F9-F4255DC66883";
shapes = (
{
closed = 1;
nodes = (
(375,-5,o),
(418,61,o),
(418,175,cs),
(418,290,o),
(374,355,o),
(300,355,cs),
(226,355,o),
(182,291,o),
(182,175,cs),
(182,63,o),
(224,-5,o),
(300,-5,cs)
);
},
{
closed = 1;
nodes = (
(237,17,o),
(206,79,o),
(206,175,cs),
(206,277,o),
(240,333,o),
(300,333,cs),
(360,333,o),
(394,276,o),
(394,175,cs),
(394,79,o),
(363,17,o),
(300,17,cs)
);
},
{
closed = 1;
nodes = (
(400,241,l),
(395,264,l),
(202,111,l),
(208,90,l)
);
}
);
userData = {
RMXScaler = {
adjustSpace = 9;
height = 50;
weight = 4;
width = 50;
};
};
width = 600;
}
);
userData = {
RMXScaler = {
source = zero;
};
};
},
{
glyphname = one.dnom;
kernLeft = zero.dnom;
kernRight = zero.dnom;
lastChange = "2025-07-25 14:12:02 +0000";
layers = (
{
hints = (
{
horizontal = 1;
origin = (1,3);
target = (1,2);
type = Stem;
},
{
horizontal = 1;
origin = (0,5);
target = (0,7);
type = Stem;
},
{
origin = (0,11);
target = (0,1);
type = Stem;
}
);
layerId = "D56600E4-3CB1-46B6-994E-4E22114E2E10";
shapes = (
{
closed = 1;
nodes = (
(350,33,l),
(350,293,ls),
(350,330,o),
(323,357,o),
(286,357,cs),
(180,357,l),
(180,283,l),
(245,283,ls),
(254,283,o),
(258,279,o),
(258,270,cs),
(258,33,l)
);
},
{
closed = 1;
nodes = (
(420,0,l),
(420,74,l),
(185,74,l),
(185,0,l)
);
}
);
userData = {
RMXScaler = {
adjustSpace = -15;
height = 51;
weight = -317;
width = 51;
};
};
width = 600;
},
{
layerId = "FF94DDBB-E62A-4F15-93F9-F4255DC66883";
shapes = (
{
closed = 1;
nodes = (
(313,10,l),
(313,297,ls),
(313,328,o),
(291,350,o),
(260,350,cs),
(192,350,l),
(192,329,l),
(255,329,ls),
(275,329,o),
(288,314,o),
(288,294,cs),
(288,10,l)
);
},
{
closed = 1;
nodes = (
(412,0,l),
(412,21,l),
(189,21,l),
(189,0,l)
);
}
);
userData = {
RMXScaler = {
adjustSpace = -27;
height = 50;
weight = 4;
width = 50;
};
};
width = 600;
}
);
userData = {
RMXScaler = {
source = one;
};
};
},
{
glyphname = two.dnom;
kernLeft = zero.dnom;
kernRight = zero.dnom;
lastChange = "2025-07-25 14:12:02 +0000";
layers = (
{
hints = (
{
horizontal = 1;
origin = (0,25);
target = (0,2);
type = Stem;
},
{
horizontal = 1;
origin = (0,10);
target = (0,17);
type = Stem;
},
{
origin = (0,7);
target = (0,20);
type = Stem;
}
);
layerId = "D56600E4-3CB1-46B6-994E-4E22114E2E10";
shapes = (
{
closed = 1;
nodes = (
(434,0,l),
(434,72,l),
(281,72,l),
(285,59,l),
(358,132,ls),
(397,171,o),
(418,212,o),
(418,254,cs),
(418,317,o),
(364,362,o),
(293,362,cs),
(236,362,o),
(196,334,o),
(167,293,c),
(225,236,l),
(248,267,o),
(264,281,o),
(289,281,cs),
(309,281,o),
(322,266,o),
(322,244,cs),
(322,222,o),
(310,203,o),
(292,185,cs),
(177,70,l),
(177,0,l)
);
}
);
userData = {
RMXScaler = {
adjustSpace = 1;
height = 51;
weight = -317;
width = 51;
};
};
width = 600;
},
{
layerId = "FF94DDBB-E62A-4F15-93F9-F4255DC66883";
shapes = (
{
closed = 1;
nodes = (
(413,0,l),
(413,21,l),
(217,21,l),
(218,17,l),
(340,140,ls),
(389,189,o),
(400,223,o),
(400,254,cs),
(400,315,o),
(360,355,o),
(295,355,cs),
(252,355,o),
(212,331,o),
(188,292,c),
(205,277,l),
(227,312,o),
(260,332,o),
(295,332,cs),
(343,332,o),
(374,303,o),
(374,252,cs),
(374,226,o),
(365,197,o),
(323,155,cs),
(188,19,l),
(188,0,l)
);
}
);
userData = {
RMXScaler = {
adjustSpace = -15;
height = 50;
weight = 4;
width = 50;
};
};
width = 600;
}
);
userData = {
RMXScaler = {
source = two;
};
};
},
{
glyphname = three.dnom;
kernLeft = zero.dnom;
kernRight = zero.dnom;
lastChange = "2025-07-25 14:12:02 +0000";
layers = (
{
hints = (
{
horizontal = 1;
origin = (0,41);
target = (0,34);
type = Stem;
},
{
horizontal = 1;
origin = (0,28);
target = (0,26);
type = Stem;
},
{
horizontal = 1;
origin = (0,12);
target = (0,19);
type = Stem;
},
{
origin = (0,31);
target = (0,2);
type = Stem;
}
);
layerId = "D56600E4-3CB1-46B6-994E-4E22114E2E10";
shapes = (
{
closed = 1;
nodes = (
(373,-5,o),
(433,39,o),
(433,104,cs),
(433,150,o),
(397,190,o),
(309,190,c),
(309,170,l),
(382,170,o),
(425,208,o),
(425,259,cs),
(425,320,o),
(374,362,o),
(297,362,cs),
(251,362,o),
(204,344,o),
(170,309,c),
(223,245,l),
(245,270,o),
(267,282,o),
(294,282,cs),
(319,282,o),
(333,269,o),
(333,247,cs),
(333,228,o),
(317,217,o),
(299,217,cs),
(250,217,l),
(250,137,l),
(307,137,ls),
(325,137,o),
(340,127,o),
(340,108,cs),
(340,86,o),
(322,73,o),
(292,73,cs),
(267,73,o),
(244,83,o),
(220,108,c),
(168,45,l),
(203,11,o),
(243,-5,o),
(292,-5,cs)
);
}
);
userData = {
RMXScaler = {
adjustSpace = 1;
height = 51;
weight = -317;
width = 51;
};
};
width = 600;
},
{
layerId = "FF94DDBB-E62A-4F15-93F9-F4255DC66883";
shapes = (
{
closed = 1;
nodes = (
(365,-5,o),
(415,34,o),
(415,91,cs),
(415,143,o),
(374,182,o),
(294,182,c),
(294,173,l),
(364,173,o),
(405,214,o),
(405,265,cs),
(405,321,o),
(360,355,o),
(296,355,cs),
(250,355,o),
(216,337,o),
(197,319,c),
(211,302,l),
(226,317,o),
(255,333,o),
(296,333,cs),
(346,333,o),
(381,306,o),
(381,263,cs),
(381,222,o),
(348,188,o),
(292,188,cs),
(246,188,l),
(246,165,l),
(293,165,ls),
(354,165,o),
(391,135,o),
(391,93,cs),
(391,48,o),
(352,17,o),
(297,17,cs),
(250,17,o),
(221,34,o),
(201,53,c),
(186,36,l),
(210,13,o),
(244,-5,o),
(296,-5,cs)
);
}
);
userData = {
RMXScaler = {
adjustSpace = -11;
height = 50;
weight = 4;
width = 50;
};
};
width = 600;
}
);
userData = {
RMXScaler = {
source = three;
};
};
},
{
glyphname = four.dnom;
kernLeft = zero.dnom;
kernRight = zero.dnom;
lastChange = "2025-07-25 14:12:02 +0000";
layers = (
{
hints = (
{
horizontal = 1;
origin = (1,3);
target = up;
type = BottomGhost;
},
{
horizontal = 1;
origin = (0,7);
target = (0,2);
type = Stem;
},
{
horizontal = 1;
origin = (0,5);
target = down;
type = TopGhost;
},
{
origin = (1,3);
target = (1,1);
type = Stem;
}
);
layerId = "D56600E4-3CB1-46B6-994E-4E22114E2E10";
shapes = (
{
closed = 1;
nodes = (
(442,69,l),
(442,150,l),
(223,150,l),
(245,124,l),
(345,357,l),
(252,357,l),
(158,147,l),
(158,69,l)
);
},
{
closed = 1;
nodes = (
(402,0,l),
(402,233,l),
(311,233,l),
(311,0,l)
);
}
);
userData = {
RMXScaler = {
adjustSpace = 7;
height = 51;
weight = -317;
width = 51;
};
};
width = 600;
},
{
layerId = "FF94DDBB-E62A-4F15-93F9-F4255DC66883";
shapes = (
{
closed = 1;
nodes = (
(425,91,l),
(425,113,l),
(194,113,l),
(199,108,l),
(326,350,l),
(300,350,l),
(175,112,l),
(175,91,l)
);
},
{
closed = 1;
nodes = (
(364,0,l),
(364,213,l),
(340,213,l),
(340,0,l)
);
}
);
userData = {
RMXScaler = {
adjustSpace = -7;
height = 50;
weight = 4;
width = 50;
};
};
width = 600;
}
);
userData = {
RMXScaler = {
source = four;
};
};
},
{
glyphname = five.dnom;
kernLeft = zero.dnom;
kernRight = zero.dnom;
lastChange = "2025-07-26 13:34:55 +0000";
layers = (
{
hints = (
{
horizontal = 1;
origin = (0,37);
target = (0,30);
type = Stem;
},
{
horizontal = 1;
origin = (0,24);
target = (0,5);
type = Stem;
},
{
horizontal = 1;
origin = (0,16);
target = (0,14);
type = Stem;
},
{
origin = (0,27);
target = (0,2);
type = Stem;
},
{
origin = (0,20);
target = (0,9);
type = Stem;
}
);
layerId = "D56600E4-3CB1-46B6-994E-4E22114E2E10";
shapes = (
{
closed = 1;
nodes = (
(372,-5,o),
(433,45,o),
(433,124,cs),
(433,186,o),
(395,224,o),
(344,224,cs),
(304,224,o),
(281,206,o),
(271,174,c),
(279,172,l),
(280,277,ls),
(280,277,o),
(279,277,o),
(279,277,cs),
(421,277,l),
(421,357,l),
(259,357,ls),
(223,357,o),
(194,332,o),
(194,296,cs),
(194,132,l),
(268,132,l),
(277,143,o),
(287,148,o),
(302,148,cs),
(326,148,o),
(340,135,o),
(340,114,cs),
(340,89,o),
(324,73,o),
(292,73,cs),
(267,73,o),
(244,83,o),
(220,108,c),
(168,45,l),
(203,11,o),
(242,-5,o),
(292,-5,cs)
);
}
);
userData = {
RMXScaler = {
adjustSpace = 1;
height = 51;
weight = -317;
width = 51;
};
};
width = 600;
},
{
layerId = "FF94DDBB-E62A-4F15-93F9-F4255DC66883";
shapes = (
{
closed = 1;
nodes = (
(365,-5,o),
(416,39,o),
(416,112,cs),
(416,174,o),
(378,218,o),
(316,218,cs),
(270,218,o),
(237,195,o),
(223,162,c),
(228,161,l),
(235,300,ls),
(236,317,o),
(250,328,o),
(266,328,cs),
(398,328,l),
(398,350,l),
(262,350,ls),
(235,350,o),
(212,331,o),
(211,303,cs),
(204,140,l),
(226,140,l),
(237,174,o),
(267,196,o),
(309,196,cs),
(362,196,o),
(392,160,o),
(392,110,cs),
(392,53,o),
(353,17,o),
(293,17,cs),
(248,17,o),
(218,36,o),
(200,53,c),
(185,36,l),
(206,15,o),
(243,-5,o),
(292,-5,cs)
);
}
);
userData = {
RMXScaler = {
adjustSpace = -11;
height = 50;
weight = 4;
width = 50;
};
};
width = 600;
}
);
userData = {
RMXScaler = {
source = five;
};
};
},
{
glyphname = six.dnom;
kernLeft = zero.dnom;
kernRight = zero.dnom;
lastChange = "2025-07-25 14:12:02 +0000";
layers = (
{
hints = (
{
horizontal = 1;
origin = (0,18);
target = (1,11);
type = Stem;
},
{
horizontal = 1;
origin = (1,5);
target = (0,5);
type = Stem;
},
{
horizontal = 1;
origin = (0,11);
target = down;
type = TopGhost;
},
{
origin = (0,15);
target = (1,2);
type = Stem;
},
{
origin = (1,8);
target = (0,2);
type = Stem;
}
);
layerId = "D56600E4-3CB1-46B6-994E-4E22114E2E10";
shapes = (
{
closed = 1;
nodes = (
(384,-5,o),
(441,41,o),
(441,118,cs),
(441,187,o),
(404,238,o),
(333,238,cs),
(305,238,o),
(280,226,o),
(257,202,c),
(272,207,l),
(397,357,l),
(285,357,l),
(209,244,ls),
(178,198,o),
(160,158,o),
(160,124,cs),
(160,45,o),
(214,-5,o),
(301,-5,cs)
);
},
{
closed = 1;
nodes = (
(274,67,o),
(256,87,o),
(256,117,cs),
(256,148,o),
(273,169,o),
(299,169,cs),
(326,169,o),
(344,149,o),
(344,117,cs),
(344,87,o),
(327,67,o),
(300,67,cs)
);
}
);
userData = {
RMXScaler = {
adjustSpace = 8;
height = 51;
weight = -317;
width = 51;
};
};
width = 600;
},
{
layerId = "FF94DDBB-E62A-4F15-93F9-F4255DC66883";
shapes = (
{
closed = 1;
nodes = (
(369,-5,o),
(417,41,o),
(417,110,cs),
(417,177,o),
(372,224,o),
(307,224,cs),
(281,224,o),
(255,217,o),
(234,198,c),
(239,197,l),
(353,350,l),
(322,350,l),
(211,193,ls),
(194,169,o),
(183,142,o),
(183,111,cs),
(183,40,o),
(228,-5,o),
(301,-5,cs)
);
},
{
closed = 1;
nodes = (
(244,16,o),
(208,53,o),
(208,110,cs),
(208,166,o),
(245,204,o),
(302,204,cs),
(355,204,o),
(393,165,o),
(393,110,cs),
(393,55,o),
(355,16,o),
(300,16,cs)
);
}
);
userData = {
RMXScaler = {
adjustSpace = -9;
height = 50;
weight = 4;
width = 50;
};
};
width = 600;
}
);
userData = {
RMXScaler = {
source = six;
};
};
},
{
glyphname = seven.dnom;
kernLeft = zero.dnom;
kernRight = zero.dnom;
lastChange = "2025-07-25 14:12:02 +0000";
layers = (
{
hints = (
{
horizontal = 1;
origin = (0,7);
target = up;
type = BottomGhost;
},
{
horizontal = 1;
origin = (0,3);
target = (0,5);
type = Stem;
}
);
layerId = "D56600E4-3CB1-46B6-994E-4E22114E2E10";
shapes = (
{
closed = 1;
nodes = (
(293,0,l),
(430,291,l),
(430,357,l),
(171,357,l),
(171,277,l),
(357,277,l),
(337,295,l),
(188,0,l)
);
}
);
userData = {
RMXScaler = {
adjustSpace = -9;
height = 51;
weight = -317;
width = 51;
};
};
width = 600;
},
{
layerId = "FF94DDBB-E62A-4F15-93F9-F4255DC66883";
shapes = (
{
closed = 1;
nodes = (
(249,0,l),
(418,333,l),
(418,350,l),
(182,350,l),
(182,328,l),
(399,328,l),
(394,334,l),
(221,0,l)
);
}
);
userData = {
RMXScaler = {
adjustSpace = -21;
height = 50;
weight = 4;
width = 50;
};
};
width = 600;
}
);
userData = {
RMXScaler = {
source = seven;
};
};
},
{
glyphname = eight.dnom;
kernLeft = zero.dnom;
kernRight = zero.dnom;
lastChange = "2025-07-25 14:12:02 +0000";
layers = (
{
hints = (
{
horizontal = 1;
origin = (0,25);
target = (1,11);
type = Stem;
},
{
horizontal = 1;
origin = (1,5);
target = (2,11);
type = Stem;
},
{
horizontal = 1;
origin = (0,12);
target = (2,5);
type = Stem;
},
{
origin = (2,2);
target = (0,15);
type = Stem;
},
{
origin = (2,8);
target = (0,9);
type = Stem;
}
);
layerId = "D56600E4-3CB1-46B6-994E-4E22114E2E10";
shapes = (
{
closed = 1;
nodes = (
(387,-5,o),
(442,35,o),
(442,102,cs),
(442,152,o),
(403,187,o),
(336,187,c),
(336,182,l),
(394,182,o),
(432,218,o),
(432,262,cs),
(432,323,o),
(380,362,o),
(300,362,cs),
(220,362,o),
(168,322,o),
(168,262,cs),
(168,218,o),
(206,182,o),
(265,182,c),
(265,187,l),
(198,187,o),
(159,152,o),
(159,101,cs),
(159,35,o),
(213,-5,o),
(300,-5,cs)
);
},
{
closed = 1;
nodes = (
(272,69,o),
(257,84,o),
(257,110,cs),
(257,136,o),
(273,151,o),
(301,151,cs),
(329,151,o),
(344,136,o),
(344,110,cs),
(344,84,o),
(329,69,o),
(300,69,cs)
);
},
{
closed = 1;
nodes = (
(276,210,o),
(261,224,o),
(261,248,cs),
(261,274,o),
(275,288,o),
(300,288,cs),
(325,288,o),
(339,274,o),
(339,248,cs),
(339,224,o),
(325,210,o),
(301,210,cs)
);
}
);
userData = {
RMXScaler = {
adjustSpace = 17;
height = 51;
weight = -317;
width = 51;
};
};
width = 600;
},
{
layerId = "FF94DDBB-E62A-4F15-93F9-F4255DC66883";
shapes = (
{
closed = 1;
nodes = (
(372,-5,o),
(423,35,o),
(423,94,cs),
(423,150,o),
(375,187,o),
(307,187,c),
(307,180,l),
(369,180,o),
(409,215,o),
(409,266,cs),
(409,319,o),
(366,355,o),
(300,355,cs),
(234,355,o),
(191,319,o),
(191,266,cs),
(191,215,o),
(232,180,o),
(293,180,c),
(293,187,l),
(225,187,o),
(177,150,o),
(177,94,cs),
(177,35,o),
(228,-5,o),
(300,-5,cs)
);
},
{
closed = 1;
nodes = (
(242,16,o),
(202,49,o),
(202,97,cs),
(202,144,o),
(243,174,o),
(300,174,cs),
(357,174,o),
(398,144,o),
(398,97,cs),
(398,49,o),
(357,16,o),
(300,16,cs)
);
},
{
closed = 1;
nodes = (
(249,193,o),
(216,221,o),
(216,263,cs),
(216,306,o),
(249,334,o),
(300,334,cs),
(352,334,o),
(385,305,o),
(385,263,cs),
(385,221,o),
(351,193,o),
(300,193,cs)
);
}
);
userData = {
RMXScaler = {
adjustSpace = 4;
height = 50;
weight = 4;
width = 50;
};
};
width = 600;
}
);
userData = {
RMXScaler = {
source = eight;
};
};
},
{
glyphname = nine.dnom;
kernLeft = zero.dnom;
kernRight = zero.dnom;
lastChange = "2025-07-26 13:35:31 +0000";
layers = (
{
hints = (
{
horizontal = 1;
place = (0,21);
target = up;
type = BottomGhost;
},
{
horizontal = 1;
place = (710,122);
type = Stem;
},
{
horizontal = 1;
origin = (1,5);
target = (0,7);
type = Stem;
},
{
horizontal = 1;
origin = (0,13);
target = (1,11);
type = Stem;
},
{
origin = (0,10);
target = (1,2);
type = Stem;
},
{
origin = (1,8);
target = (0,4);
type = Stem;
}
);
layerId = "D56600E4-3CB1-46B6-994E-4E22114E2E10";
shapes = (
{
closed = 1;
nodes = (
(316,0,l),
(391,112,ls),
(422,158,o),
(441,198,o),
(441,233,cs),
(441,312,o),
(387,362,o),
(300,362,cs),
(217,362,o),
(160,316,o),
(160,239,cs),
(160,171,o),
(196,119,o),
(268,119,cs),
(296,119,o),
(321,131,o),
(344,155,c),
(328,150,l),
(203,0,l)
);
},
{
closed = 1;
nodes = (
(274,188,o),
(257,209,o),
(257,240,cs),
(257,270,o),
(274,290,o),
(301,290,cs),
(326,290,o),
(344,270,o),
(344,240,cs),
(344,208,o),
(327,188,o),
(301,188,cs)
);
}
);
userData = {
RMXScaler = {
adjustSpace = 8;
height = 51;
weight = -317;
width = 51;
};
};
width = 600;
},
{
layerId = "FF94DDBB-E62A-4F15-93F9-F4255DC66883";
shapes = (
{
closed = 1;
nodes = (
(278,0,l),
(390,158,ls),
(407,182,o),
(417,209,o),
(417,239,cs),
(417,310,o),
(371,355,o),
(300,355,cs),
(231,355,o),
(183,308,o),
(183,240,cs),
(183,174,o),
(228,126,o),
(294,126,cs),
(320,126,o),
(345,133,o),
(366,152,c),
(361,153,l),
(248,0,l)
);
},
{
closed = 1;
nodes = (
(245,146,o),
(208,185,o),
(208,240,cs),
(208,296,o),
(246,334,o),
(301,334,cs),
(357,334,o),
(393,297,o),
(393,240,cs),
(393,185,o),
(356,146,o),
(299,146,cs)
);
}
);
userData = {
RMXScaler = {
adjustSpace = -9;
height = 50;
weight = 4;
width = 50;
};
};
width = 600;
}
);
userData = {
RMXScaler = {
source = nine;
};
};
},
{
glyphname = zero.numr;
kernLeft = zerosuperior;
kernRight = zerosuperior;
lastChange = "2025-07-25 14:12:02 +0000";
layers = (
{
hints = (
{
horizontal = 1;
origin = (0,11);
target = (1,11);
type = Stem;
},
{
horizontal = 1;
origin = (0,5);
target = (1,5);
type = Stem;
},
{
origin = (0,8);
target = (1,2);
type = Stem;
},
{
origin = (1,8);
target = (0,2);
type = Stem;
}
);
layerId = "D56600E4-3CB1-46B6-994E-4E22114E2E10";
shapes = (
{
closed = 1;
nodes = (
(391,338,o),
(444,403,o),
(444,520,cs),
(444,639,o),
(391,705,o),
(301,705,cs),
(210,705,o),
(157,638,o),
(157,520,cs),
(157,402,o),
(211,338,o),
(301,338,cs)
);
},
{
closed = 1;
nodes = (
(266,415,o),
(248,445,o),
(248,520,cs),
(248,596,o),
(265,628,o),
(301,628,cs),
(336,628,o),
(352,595,o),
(352,520,cs),
(352,445,o),
(335,415,o),
(301,415,cs)
);
},
{
closed = 1;
nodes = (
(395,553,l),
(380,619,l),
(213,496,l),
(230,430,l)
);
}
);
userData = {
RMXScaler = {
adjustSpace = 19;
height = 51;
verticalShift = 343;
weight = -317;
width = 51;
};
};
width = 600;
},
{
layerId = "FF94DDBB-E62A-4F15-93F9-F4255DC66883";
shapes = (
{
closed = 1;
nodes = (
(375,345,o),
(418,411,o),
(418,525,cs),
(418,640,o),
(374,705,o),
(300,705,cs),
(226,705,o),
(182,641,o),
(182,525,cs),
(182,413,o),
(224,345,o),
(300,345,cs)
);
},
{
closed = 1;
nodes = (
(237,367,o),
(206,429,o),
(206,525,cs),
(206,626,o),
(240,683,o),
(300,683,cs),
(360,683,o),
(394,626,o),
(394,525,cs),
(394,429,o),
(363,367,o),
(300,367,cs)
);
},
{
closed = 1;
nodes = (
(400,591,l),
(395,614,l),
(202,461,l),
(208,440,l)
);
}
);
userData = {
RMXScaler = {
adjustSpace = 9;
height = 50;
verticalShift = 350;
weight = 4;
width = 50;
};
};
width = 600;
}
);
userData = {
RMXScaler = {
source = zero;
};
};
},
{
glyphname = one.numr;
kernLeft = zerosuperior;
kernRight = zerosuperior;
lastChange = "2025-07-26 13:35:40 +0000";
layers = (
{
hints = (
{
horizontal = 1;
place = (343,74);
type = Stem;
},
{
place = (258,92);
type = Stem;
}
);
layerId = "D56600E4-3CB1-46B6-994E-4E22114E2E10";
shapes = (
{
closed = 1;
nodes = (
(350,376,l),
(350,636,ls),
(350,673,o),
(323,700,o),
(286,700,cs),
(180,700,l),
(180,626,l),
(245,626,ls),
(254,626,o),
(258,622,o),
(258,613,cs),
(258,376,l)
);
},
{
closed = 1;
nodes = (
(420,343,l),
(420,417,l),
(185,417,l),
(185,343,l)
);
}
);
userData = {
RMXScaler = {
adjustSpace = -15;
height = 51;
verticalShift = 343;
weight = -317;
width = 51;
};
};
width = 600;
},
{
layerId = "FF94DDBB-E62A-4F15-93F9-F4255DC66883";
shapes = (
{
closed = 1;
nodes = (
(313,360,l),
(313,647,ls),
(313,678,o),
(291,700,o),
(260,700,cs),
(192,700,l),
(192,679,l),
(255,679,ls),
(275,679,o),
(288,664,o),
(288,644,cs),
(288,360,l)
);
},
{
closed = 1;
nodes = (
(412,350,l),
(412,371,l),
(189,371,l),
(189,350,l)
);
}
);
userData = {
RMXScaler = {
adjustSpace = -27;
height = 50;
verticalShift = 350;
weight = 4;
width = 50;
};
};
width = 600;
}
);
userData = {
RMXScaler = {
source = one;
};
};
},
{
glyphname = two.numr;
kernLeft = zerosuperior;
kernRight = zerosuperior;
lastChange = "2025-07-25 14:12:02 +0000";
layers = (
{
hints = (
{
horizontal = 1;
origin = (0,25);
target = (0,2);
type = Stem;
},
{
horizontal = 1;
origin = (0,10);
target = (0,17);
type = Stem;
},
{
origin = (0,7);
target = (0,20);
type = Stem;
}
);
layerId = "D56600E4-3CB1-46B6-994E-4E22114E2E10";
shapes = (
{
closed = 1;
nodes = (
(434,343,l),
(434,415,l),
(281,415,l),
(285,402,l),
(358,475,ls),
(397,514,o),
(418,555,o),
(418,597,cs),
(418,660,o),
(365,705,o),
(293,705,cs),
(236,705,o),
(196,677,o),
(167,636,c),
(225,579,l),
(248,610,o),
(264,624,o),
(289,624,cs),
(309,624,o),
(322,609,o),
(322,587,cs),
(322,565,o),
(310,546,o),
(292,528,cs),
(177,413,l),
(177,343,l)
);
}
);
userData = {
RMXScaler = {
adjustSpace = 1;
height = 51;
verticalShift = 343;
weight = -317;
width = 51;
};
};
width = 600;
},
{
layerId = "FF94DDBB-E62A-4F15-93F9-F4255DC66883";
shapes = (
{
closed = 1;
nodes = (
(413,350,l),
(413,371,l),
(217,371,l),
(218,367,l),
(340,490,ls),
(389,539,o),
(400,573,o),
(400,604,cs),
(400,665,o),
(360,705,o),
(295,705,cs),
(252,705,o),
(212,681,o),
(188,642,c),
(205,627,l),
(227,662,o),
(260,682,o),
(295,682,cs),
(343,682,o),
(374,653,o),
(374,602,cs),
(374,576,o),
(365,547,o),
(323,505,cs),
(188,369,l),
(188,350,l)
);
}
);
userData = {
RMXScaler = {
adjustSpace = -15;
height = 50;
verticalShift = 350;
weight = 4;
width = 50;
};
};
width = 600;
}
);
userData = {
RMXScaler = {
source = two;
};
};
},
{
glyphname = three.numr;
kernLeft = zerosuperior;
kernRight = zerosuperior;
lastChange = "2025-07-25 14:12:02 +0000";
layers = (
{
hints = (
{
horizontal = 1;
origin = (0,41);
target = (0,34);
type = Stem;
},
{
horizontal = 1;
origin = (0,28);
target = (0,26);
type = Stem;
},
{
horizontal = 1;
origin = (0,12);
target = (0,19);
type = Stem;
},
{
origin = (0,31);
target = (0,2);
type = Stem;
}
);
layerId = "D56600E4-3CB1-46B6-994E-4E22114E2E10";
shapes = (
{
closed = 1;
nodes = (
(373,338,o),
(433,382,o),
(433,447,cs),
(433,493,o),
(397,533,o),
(309,533,c),
(309,513,l),
(382,513,o),
(425,551,o),
(425,602,cs),
(425,664,o),
(374,705,o),
(297,705,cs),
(251,705,o),
(204,687,o),
(170,652,c),
(223,588,l),
(245,613,o),
(267,625,o),
(294,625,cs),
(319,625,o),
(333,612,o),
(333,590,cs),
(333,571,o),
(317,560,o),
(299,560,cs),
(250,560,l),
(250,480,l),
(307,480,ls),
(325,480,o),
(340,470,o),
(340,451,cs),
(340,429,o),
(322,416,o),
(292,416,cs),
(267,416,o),
(244,426,o),
(220,451,c),
(168,388,l),
(203,354,o),
(243,338,o),
(292,338,cs)
);
}
);
userData = {
RMXScaler = {
adjustSpace = 1;
height = 51;
verticalShift = 343;
weight = -317;
width = 51;
};
};
width = 600;
},
{
layerId = "FF94DDBB-E62A-4F15-93F9-F4255DC66883";
shapes = (
{
closed = 1;
nodes = (
(366,345,o),
(415,384,o),
(415,441,cs),
(415,493,o),
(374,532,o),
(294,532,c),
(294,523,l),
(364,523,o),
(405,564,o),
(405,615,cs),
(405,671,o),
(360,705,o),
(296,705,cs),
(250,705,o),
(216,687,o),
(197,669,c),
(211,652,l),
(226,667,o),
(255,683,o),
(296,683,cs),
(346,683,o),
(381,656,o),
(381,613,cs),
(381,572,o),
(348,538,o),
(292,538,cs),
(246,538,l),
(246,515,l),
(293,515,ls),
(354,515,o),
(391,485,o),
(391,443,cs),
(391,398,o),
(352,367,o),
(297,367,cs),
(250,367,o),
(221,384,o),
(201,403,c),
(186,386,l),
(210,363,o),
(244,345,o),
(296,345,cs)
);
}
);
userData = {
RMXScaler = {
adjustSpace = -11;
height = 50;
verticalShift = 350;
weight = 4;
width = 50;
};
};
width = 600;
}
);
userData = {
RMXScaler = {
source = three;
};
};
},
{
glyphname = four.numr;
kernLeft = zerosuperior;
kernRight = zerosuperior;
lastChange = "2025-07-25 14:12:02 +0000";
layers = (
{
hints = (
{
horizontal = 1;
origin = (1,3);
target = up;
type = BottomGhost;
},
{
horizontal = 1;
origin = (0,7);
target = (0,2);
type = Stem;
},
{
horizontal = 1;
origin = (0,5);
target = down;
type = TopGhost;
},
{
origin = (1,3);
target = (1,1);
type = Stem;
}
);
layerId = "D56600E4-3CB1-46B6-994E-4E22114E2E10";
shapes = (
{
closed = 1;
nodes = (
(442,412,l),
(442,493,l),
(223,493,l),
(245,467,l),
(345,700,l),
(252,700,l),
(158,490,l),
(158,412,l)
);
},
{
closed = 1;
nodes = (
(402,343,l),
(402,576,l),
(311,576,l),
(311,343,l)
);
}
);
userData = {
RMXScaler = {
adjustSpace = 7;
height = 51;
verticalShift = 343;
weight = -317;
width = 51;
};
};
width = 600;
},
{
layerId = "FF94DDBB-E62A-4F15-93F9-F4255DC66883";
shapes = (
{
closed = 1;
nodes = (
(425,441,l),
(425,463,l),
(194,463,l),
(199,458,l),
(326,700,l),
(300,700,l),
(175,462,l),
(175,441,l)
);
},
{
closed = 1;
nodes = (
(364,350,l),
(364,563,l),
(340,563,l),
(340,350,l)
);
}
);
userData = {
RMXScaler = {
adjustSpace = -7;
height = 50;
verticalShift = 350;
weight = 4;
width = 50;
};
};
width = 600;
}
);
userData = {
RMXScaler = {
source = four;
};
};
},
{
glyphname = five.numr;
kernLeft = zerosuperior;
kernRight = zerosuperior;
lastChange = "2025-07-25 15:13:01 +0000";
layers = (
{
hints = (
{
horizontal = 1;
origin = (0,37);
target = (0,30);
type = Stem;
},
{
horizontal = 1;
origin = (0,24);
target = (0,5);
type = Stem;
},
{
horizontal = 1;
origin = (0,16);
target = (0,14);
type = Stem;
},
{
place = (240,145.5);
type = Stem;
},
{
origin = (0,27);
target = (0,2);
type = Stem;
}
);
layerId = "D56600E4-3CB1-46B6-994E-4E22114E2E10";
shapes = (
{
closed = 1;
nodes = (
(372,338,o),
(433,388,o),
(433,467,cs),
(433,529,o),
(396,567,o),
(344,567,cs),
(304,567,o),
(281,549,o),
(271,517,c),
(279,515,l),
(280,620,ls),
(280,620,o),
(279,620,o),
(279,620,cs),
(421,620,l),
(421,700,l),
(259,700,ls),
(223,700,o),
(194,675,o),
(194,639,cs),
(194,475,l),
(268,475,l),
(277,486,o),
(287,491,o),
(302,491,cs),
(326,491,o),
(340,478,o),
(340,457,cs),
(340,432,o),
(324,416,o),
(292,416,cs),
(267,416,o),
(244,426,o),
(220,451,c),
(168,388,l),
(203,354,o),
(242,338,o),
(292,338,cs)
);
}
);
userData = {
RMXScaler = {
adjustSpace = 1;
height = 51;
verticalShift = 343;
weight = -317;
width = 51;
};
};
width = 600;
},
{
layerId = "FF94DDBB-E62A-4F15-93F9-F4255DC66883";
shapes = (
{
closed = 1;
nodes = (
(365,345,o),
(416,389,o),
(416,462,cs),
(416,525,o),
(378,568,o),
(316,568,cs),
(270,568,o),
(237,545,o),
(223,512,c),
(228,511,l),
(235,650,ls),
(236,667,o),
(250,678,o),
(266,678,cs),
(398,678,l),
(398,700,l),
(262,700,ls),
(235,700,o),
(212,681,o),
(211,653,cs),
(204,490,l),
(226,490,l),
(237,524,o),
(267,546,o),
(309,546,cs),
(362,546,o),
(392,510,o),
(392,460,cs),
(392,403,o),
(353,367,o),
(293,367,cs),
(248,367,o),
(218,386,o),
(200,403,c),
(185,386,l),
(206,365,o),
(243,345,o),
(292,345,cs)
);
}
);
userData = {
RMXScaler = {
adjustSpace = -11;
height = 50;
verticalShift = 350;
weight = 4;
width = 50;
};
};
width = 600;
}
);
userData = {
RMXScaler = {
source = five;
};
};
},
{
glyphname = six.numr;
kernLeft = zerosuperior;
kernRight = zerosuperior;
lastChange = "2025-07-25 14:12:02 +0000";
layers = (
{
hints = (
{
horizontal = 1;
origin = (0,18);
target = (1,11);
type = Stem;
},
{
horizontal = 1;
origin = (1,5);
target = (0,5);
type = Stem;
},
{
horizontal = 1;
origin = (0,11);
target = down;
type = TopGhost;
},
{
origin = (0,15);
target = (1,2);
type = Stem;
},
{
origin = (1,8);
target = (0,2);
type = Stem;
}
);
layerId = "D56600E4-3CB1-46B6-994E-4E22114E2E10";
shapes = (
{
closed = 1;
nodes = (
(384,338,o),
(441,384,o),
(441,461,cs),
(441,530,o),
(405,581,o),
(333,581,cs),
(305,581,o),
(280,569,o),
(257,545,c),
(272,550,l),
(397,700,l),
(285,700,l),
(209,587,ls),
(178,541,o),
(160,501,o),
(160,467,cs),
(160,388,o),
(213,338,o),
(301,338,cs)
);
},
{
closed = 1;
nodes = (
(274,410,o),
(256,430,o),
(256,460,cs),
(256,491,o),
(273,512,o),
(299,512,cs),
(326,512,o),
(344,492,o),
(344,460,cs),
(344,430,o),
(327,410,o),
(300,410,cs)
);
}
);
userData = {
RMXScaler = {
adjustSpace = 8;
height = 51;
verticalShift = 343;
weight = -317;
width = 51;
};
};
width = 600;
},
{
layerId = "FF94DDBB-E62A-4F15-93F9-F4255DC66883";
shapes = (
{
closed = 1;
nodes = (
(369,345,o),
(417,392,o),
(417,460,cs),
(417,527,o),
(372,574,o),
(307,574,cs),
(281,574,o),
(255,567,o),
(234,548,c),
(239,547,l),
(353,700,l),
(322,700,l),
(211,543,ls),
(194,519,o),
(183,492,o),
(183,461,cs),
(183,390,o),
(228,345,o),
(301,345,cs)
);
},
{
closed = 1;
nodes = (
(244,366,o),
(208,402,o),
(208,460,cs),
(208,516,o),
(245,554,o),
(302,554,cs),
(355,554,o),
(393,515,o),
(393,460,cs),
(393,405,o),
(355,366,o),
(300,366,cs)
);
}
);
userData = {
RMXScaler = {
adjustSpace = -9;
height = 50;
verticalShift = 350;
weight = 4;
width = 50;
};
};
width = 600;
}
);
userData = {
RMXScaler = {
source = six;
};
};
},
{
glyphname = seven.numr;
kernLeft = zerosuperior;
kernRight = zerosuperior;
lastChange = "2025-07-25 14:12:02 +0000";
layers = (
{
hints = (
{
horizontal = 1;
origin = (0,7);
target = up;
type = BottomGhost;
},
{
horizontal = 1;
origin = (0,3);
target = (0,5);
type = Stem;
}
);
layerId = "D56600E4-3CB1-46B6-994E-4E22114E2E10";
shapes = (
{
closed = 1;
nodes = (
(293,343,l),
(430,634,l),
(430,700,l),
(171,700,l),
(171,620,l),
(357,620,l),
(337,638,l),
(188,343,l)
);
}
);
userData = {
RMXScaler = {
adjustSpace = -9;
height = 51;
verticalShift = 343;
weight = -317;
width = 51;
};
};
width = 600;
},
{
layerId = "FF94DDBB-E62A-4F15-93F9-F4255DC66883";
shapes = (
{
closed = 1;
nodes = (
(249,350,l),
(418,683,l),
(418,700,l),
(182,700,l),
(182,678,l),
(399,678,l),
(394,684,l),
(221,350,l)
);
}
);
userData = {
RMXScaler = {
adjustSpace = -21;
height = 50;
verticalShift = 350;
weight = 4;
width = 50;
};
};
width = 600;
}
);
userData = {
RMXScaler = {
source = seven;
};
};
},
{
glyphname = eight.numr;
kernLeft = zerosuperior;
kernRight = zerosuperior;
lastChange = "2025-07-25 14:12:02 +0000";
layers = (
{
hints = (
{
horizontal = 1;
origin = (0,25);
target = (1,11);
type = Stem;
},
{
horizontal = 1;
origin = (1,5);
target = (2,11);
type = Stem;
},
{
horizontal = 1;
origin = (0,12);
target = (2,5);
type = Stem;
},
{
origin = (2,2);
target = (0,15);
type = Stem;
},
{
origin = (2,8);
target = (0,9);
type = Stem;
}
);
layerId = "D56600E4-3CB1-46B6-994E-4E22114E2E10";
shapes = (
{
closed = 1;
nodes = (
(387,338,o),
(442,378,o),
(442,445,cs),
(442,495,o),
(403,530,o),
(336,530,c),
(336,525,l),
(394,525,o),
(432,561,o),
(432,605,cs),
(432,666,o),
(380,705,o),
(300,705,cs),
(220,705,o),
(168,665,o),
(168,605,cs),
(168,561,o),
(206,525,o),
(265,525,c),
(265,530,l),
(198,530,o),
(159,495,o),
(159,444,cs),
(159,378,o),
(213,338,o),
(300,338,cs)
);
},
{
closed = 1;
nodes = (
(272,412,o),
(257,427,o),
(257,453,cs),
(257,479,o),
(272,494,o),
(301,494,cs),
(329,494,o),
(344,479,o),
(344,453,cs),
(344,427,o),
(329,412,o),
(300,412,cs)
);
},
{
closed = 1;
nodes = (
(276,553,o),
(261,567,o),
(261,591,cs),
(261,617,o),
(275,631,o),
(300,631,cs),
(325,631,o),
(339,617,o),
(339,591,cs),
(339,567,o),
(325,553,o),
(301,553,cs)
);
}
);
userData = {
RMXScaler = {
adjustSpace = 17;
height = 51;
verticalShift = 343;
weight = -317;
width = 51;
};
};
width = 600;
},
{
layerId = "FF94DDBB-E62A-4F15-93F9-F4255DC66883";
shapes = (
{
closed = 1;
nodes = (
(372,345,o),
(423,385,o),
(423,444,cs),
(423,500,o),
(375,537,o),
(307,537,c),
(307,530,l),
(368,530,o),
(409,565,o),
(409,616,cs),
(409,669,o),
(366,705,o),
(300,705,cs),
(234,705,o),
(191,669,o),
(191,616,cs),
(191,565,o),
(231,530,o),
(293,530,c),
(293,537,l),
(225,537,o),
(177,500,o),
(177,444,cs),
(177,385,o),
(228,345,o),
(300,345,cs)
);
},
{
closed = 1;
nodes = (
(242,366,o),
(202,399,o),
(202,447,cs),
(202,494,o),
(243,524,o),
(300,524,cs),
(357,524,o),
(398,494,o),
(398,447,cs),
(398,398,o),
(357,366,o),
(300,366,cs)
);
},
{
closed = 1;
nodes = (
(249,543,o),
(216,571,o),
(216,613,cs),
(216,655,o),
(249,684,o),
(300,684,cs),
(352,684,o),
(385,655,o),
(385,613,cs),
(385,571,o),
(351,543,o),
(300,543,cs)
);
}
);
userData = {
RMXScaler = {
adjustSpace = 4;
height = 50;
verticalShift = 350;
weight = 4;
width = 50;
};
};
width = 600;
}
);
userData = {
RMXScaler = {
source = eight;
};
};
},
{
glyphname = nine.numr;
kernLeft = zerosuperior;
kernRight = zerosuperior;
lastChange = "2025-07-25 15:13:30 +0000";
layers = (
{
hints = (
{
horizontal = 1;
place = (0,21);
target = up;
type = BottomGhost;
},
{
horizontal = 1;
place = (237,117);
type = Stem;
},
{
horizontal = 1;
place = (710,122);
type = Stem;
},
{
place = (170,162);
type = Stem;
},
{
place = (543,161);
type = Stem;
}
);
layerId = "D56600E4-3CB1-46B6-994E-4E22114E2E10";
shapes = (
{
closed = 1;
nodes = (
(316,343,l),
(391,455,ls),
(422,501,o),
(441,541,o),
(441,576,cs),
(441,655,o),
(387,705,o),
(300,705,cs),
(217,705,o),
(160,659,o),
(160,582,cs),
(160,513,o),
(196,462,o),
(268,462,cs),
(296,462,o),
(321,474,o),
(344,498,c),
(328,493,l),
(203,343,l)
);
},
{
closed = 1;
nodes = (
(274,531,o),
(257,552,o),
(257,583,cs),
(257,613,o),
(274,633,o),
(301,633,cs),
(326,633,o),
(344,613,o),
(344,583,cs),
(344,552,o),
(327,531,o),
(301,531,cs)
);
}
);
userData = {
RMXScaler = {
adjustSpace = 8;
height = 51;
verticalShift = 343;
weight = -317;
width = 51;
};
};
width = 600;
},
{
layerId = "FF94DDBB-E62A-4F15-93F9-F4255DC66883";
shapes = (
{
closed = 1;
nodes = (
(278,350,l),
(390,508,ls),
(407,532,o),
(417,559,o),
(417,589,cs),
(417,660,o),
(371,705,o),
(300,705,cs),
(231,705,o),
(183,658,o),
(183,590,cs),
(183,523,o),
(228,476,o),
(294,476,cs),
(320,476,o),
(345,483,o),
(366,502,c),
(361,503,l),
(248,350,l)
);
},
{
closed = 1;
nodes = (
(245,496,o),
(208,535,o),
(208,590,cs),
(208,646,o),
(246,684,o),
(301,684,cs),
(357,684,o),
(393,647,o),
(393,590,cs),
(393,534,o),
(356,496,o),
(299,496,cs)
);
}
);
userData = {
RMXScaler = {
adjustSpace = -9;
height = 50;
verticalShift = 350;
weight = 4;
width = 50;
};
};
width = 600;
}
);
userData = {
RMXScaler = {
source = nine;
};
};
},
{
glyphname = fraction;
lastChange = "2025-07-25 14:12:02 +0000";
layers = (
{
layerId = "D56600E4-3CB1-46B6-994E-4E22114E2E10";
shapes = (
{
closed = 1;
nodes = (
(473,423,l),
(600,700,l),
(500,700,l),
(366,423,l)
);
},
{
closed = 1;
nodes = (
(122,0,l),
(249,277,l),
(149,277,l),
(15,0,l)
);
}
);
width = 600;
},
{
layerId = "FF94DDBB-E62A-4F15-93F9-F4255DC66883";
shapes = (
{
closed = 1;
nodes = (
(377,398,l),
(563,700,l),
(533,700,l),
(347,398,l)
);
},
{
closed = 1;
nodes = (
(70,0,l),
(254,300,l),
(225,300,l),
(40,0,l)
);
}
);
width = 600;
}
);
unicode = 8260;
},
{
category = Number;
glyphname = zeroinferior;
kernLeft = zeroinferior;
kernRight = zeroinferior;
lastChange = "2025-07-29 20:10:17 +0000";
layers = (
{
hints = (
{
horizontal = 1;
origin = (0,11);
target = (1,11);
type = Stem;
},
{
horizontal = 1;
origin = (0,5);
target = (1,5);
type = Stem;
},
{
origin = (0,8);
target = (1,2);
type = Stem;
},
{
origin = (1,8);
target = (0,2);
type = Stem;
}
);
layerId = "D56600E4-3CB1-46B6-994E-4E22114E2E10";
shapes = (
{
closed = 1;
nodes = (
(391,-185,o),
(444,-120,o),
(444,-3,cs),
(444,116,o),
(391,182,o),
(301,182,cs),
(210,182,o),
(157,115,o),
(157,-3,cs),
(157,-121,o),
(211,-185,o),
(301,-185,cs)
);
},
{
closed = 1;
nodes = (
(266,-108,o),
(248,-78,o),
(248,-3,cs),
(248,73,o),
(265,105,o),
(301,105,cs),
(336,105,o),
(352,72,o),
(352,-3,cs),
(352,-78,o),
(335,-108,o),
(301,-108,cs)
);
},
{
closed = 1;
nodes = (
(395,30,l),
(380,96,l),
(213,-27,l),
(230,-93,l)
);
}
);
userData = {
RMXScaler = {
adjustSpace = 19;
height = 51;
verticalShift = -180;
weight = -317;
width = 51;
};
};
width = 600;
},
{
layerId = "FF94DDBB-E62A-4F15-93F9-F4255DC66883";
shapes = (
{
closed = 1;
nodes = (
(375,-185,o),
(418,-119,o),
(418,-5,cs),
(418,110,o),
(374,175,o),
(300,175,cs),
(226,175,o),
(182,111,o),
(182,-5,cs),
(182,-118,o),
(224,-185,o),
(300,-185,cs)
);
},
{
closed = 1;
nodes = (
(237,-163,o),
(206,-101,o),
(206,-5,cs),
(206,96,o),
(240,153,o),
(300,153,cs),
(360,153,o),
(394,96,o),
(394,-5,cs),
(394,-101,o),
(363,-163,o),
(300,-163,cs)
);
},
{
closed = 1;
nodes = (
(400,61,l),
(395,84,l),
(202,-69,l),
(208,-90,l)
);
}
);
userData = {
RMXScaler = {
adjustSpace = 9;
height = 50;
verticalShift = -180;
weight = 4;
width = 50;
};
};
width = 600;
}
);
unicode = 8320;
userData = {
RMXScaler = {
source = zero;
};
};
},
{
category = Number;
glyphname = oneinferior;
kernLeft = zeroinferior;
kernRight = zeroinferior;
lastChange = "2025-07-29 20:10:17 +0000";
layers = (
{
hints = (
{
horizontal = 1;
place = (-180,74);
type = Stem;
},
{
horizontal = 1;
place = (177,74);
type = Stem;
},
{
place = (258,92);
type = Stem;
}
);
layerId = "D56600E4-3CB1-46B6-994E-4E22114E2E10";
shapes = (
{
closed = 1;
nodes = (
(350,-147,l),
(350,113,ls),
(350,150,o),
(323,177,o),
(286,177,cs),
(180,177,l),
(180,103,l),
(245,103,ls),
(254,103,o),
(258,99,o),
(258,90,cs),
(258,-147,l)
);
},
{
closed = 1;
nodes = (
(420,-180,l),
(420,-106,l),
(185,-106,l),
(185,-180,l)
);
}
);
userData = {
RMXScaler = {
adjustSpace = -15;
height = 51;
verticalShift = -180;
weight = -317;
width = 51;
};
};
width = 600;
},
{
layerId = "FF94DDBB-E62A-4F15-93F9-F4255DC66883";
shapes = (
{
closed = 1;
nodes = (
(313,-170,l),
(313,117,ls),
(313,148,o),
(291,170,o),
(260,170,cs),
(192,170,l),
(192,149,l),
(255,149,ls),
(275,149,o),
(288,134,o),
(288,114,cs),
(288,-170,l)
);
},
{
closed = 1;
nodes = (
(412,-180,l),
(412,-159,l),
(189,-159,l),
(189,-180,l)
);
}
);
userData = {
RMXScaler = {
adjustSpace = -27;
height = 50;
verticalShift = -180;
weight = 4;
width = 50;
};
};
width = 600;
}
);
unicode = 8321;
userData = {
RMXScaler = {
source = one;
};
};
},
{
category = Number;
glyphname = twoinferior;
kernLeft = zeroinferior;
kernRight = zeroinferior;
lastChange = "2025-07-29 20:10:17 +0000";
layers = (
{
hints = (
{
horizontal = 1;
origin = (0,25);
target = (0,2);
type = Stem;
},
{
horizontal = 1;
origin = (0,10);
target = (0,17);
type = Stem;
},
{
origin = (0,7);
target = (0,20);
type = Stem;
}
);
layerId = "D56600E4-3CB1-46B6-994E-4E22114E2E10";
shapes = (
{
closed = 1;
nodes = (
(434,-180,l),
(434,-108,l),
(281,-108,l),
(285,-121,l),
(358,-48,ls),
(397,-9,o),
(418,32,o),
(418,74,cs),
(418,137,o),
(364,182,o),
(293,182,cs),
(236,182,o),
(196,154,o),
(167,113,c),
(225,56,l),
(248,87,o),
(264,101,o),
(289,101,cs),
(309,101,o),
(322,86,o),
(322,64,cs),
(322,42,o),
(310,23,o),
(292,5,cs),
(177,-110,l),
(177,-180,l)
);
}
);
userData = {
RMXScaler = {
adjustSpace = 1;
height = 51;
verticalShift = -180;
weight = -317;
width = 51;
};
};
width = 600;
},
{
layerId = "FF94DDBB-E62A-4F15-93F9-F4255DC66883";
shapes = (
{
closed = 1;
nodes = (
(413,-180,l),
(413,-159,l),
(217,-159,l),
(218,-163,l),
(340,-40,ls),
(389,9,o),
(400,43,o),
(400,74,cs),
(400,135,o),
(360,175,o),
(295,175,cs),
(252,175,o),
(212,151,o),
(188,112,c),
(205,97,l),
(227,132,o),
(260,152,o),
(295,152,cs),
(343,152,o),
(374,123,o),
(374,72,cs),
(374,46,o),
(365,17,o),
(323,-25,cs),
(188,-161,l),
(188,-180,l)
);
}
);
userData = {
RMXScaler = {
adjustSpace = -15;
height = 50;
verticalShift = -180;
weight = 4;
width = 50;
};
};
width = 600;
}
);
unicode = 8322;
userData = {
RMXScaler = {
source = two;
};
};
},
{
category = Number;
glyphname = threeinferior;
kernLeft = zeroinferior;
kernRight = zeroinferior;
lastChange = "2025-07-29 20:10:17 +0000";
layers = (
{
hints = (
{
horizontal = 1;
origin = (0,41);
target = (0,34);
type = Stem;
},
{
horizontal = 1;
origin = (0,28);
target = (0,26);
type = Stem;
},
{
horizontal = 1;
origin = (0,12);
target = (0,19);
type = Stem;
},
{
origin = (0,31);
target = (0,2);
type = Stem;
}
);
layerId = "D56600E4-3CB1-46B6-994E-4E22114E2E10";
shapes = (
{
closed = 1;
nodes = (
(373,-185,o),
(433,-141,o),
(433,-76,cs),
(433,-30,o),
(397,10,o),
(309,10,c),
(309,-10,l),
(382,-10,o),
(425,28,o),
(425,79,cs),
(425,140,o),
(374,182,o),
(297,182,cs),
(251,182,o),
(204,164,o),
(170,129,c),
(223,65,l),
(245,90,o),
(267,102,o),
(294,102,cs),
(319,102,o),
(333,89,o),
(333,67,cs),
(333,48,o),
(318,37,o),
(299,37,cs),
(250,37,l),
(250,-43,l),
(307,-43,ls),
(325,-43,o),
(340,-53,o),
(340,-72,cs),
(340,-94,o),
(322,-107,o),
(292,-107,cs),
(267,-107,o),
(244,-97,o),
(220,-72,c),
(168,-135,l),
(203,-169,o),
(243,-185,o),
(292,-185,cs)
);
}
);
userData = {
RMXScaler = {
adjustSpace = 1;
height = 51;
verticalShift = -180;
weight = -317;
width = 51;
};
};
width = 600;
},
{
layerId = "FF94DDBB-E62A-4F15-93F9-F4255DC66883";
shapes = (
{
closed = 1;
nodes = (
(365,-185,o),
(415,-146,o),
(415,-89,cs),
(415,-37,o),
(374,2,o),
(294,2,c),
(294,-7,l),
(364,-7,o),
(405,34,o),
(405,85,cs),
(405,141,o),
(360,175,o),
(296,175,cs),
(250,175,o),
(216,157,o),
(197,139,c),
(211,122,l),
(226,137,o),
(255,153,o),
(296,153,cs),
(346,153,o),
(381,126,o),
(381,83,cs),
(381,42,o),
(348,8,o),
(292,8,cs),
(246,8,l),
(246,-15,l),
(293,-15,ls),
(354,-15,o),
(391,-45,o),
(391,-87,cs),
(391,-132,o),
(352,-163,o),
(297,-163,cs),
(250,-163,o),
(221,-146,o),
(201,-127,c),
(186,-144,l),
(210,-167,o),
(244,-185,o),
(296,-185,cs)
);
}
);
userData = {
RMXScaler = {
adjustSpace = -11;
height = 50;
verticalShift = -180;
weight = 4;
width = 50;
};
};
width = 600;
}
);
unicode = 8323;
userData = {
RMXScaler = {
source = three;
};
};
},
{
category = Number;
glyphname = fourinferior;
kernLeft = zeroinferior;
kernRight = zeroinferior;
lastChange = "2025-07-29 20:10:17 +0000";
layers = (
{
hints = (
{
horizontal = 1;
origin = (1,3);
target = up;
type = BottomGhost;
},
{
horizontal = 1;
origin = (0,7);
target = (0,2);
type = Stem;
},
{
horizontal = 1;
origin = (0,5);
target = down;
type = TopGhost;
},
{
origin = (1,3);
target = (1,1);
type = Stem;
}
);
layerId = "D56600E4-3CB1-46B6-994E-4E22114E2E10";
shapes = (
{
closed = 1;
nodes = (
(442,-111,l),
(442,-30,l),
(223,-30,l),
(245,-56,l),
(345,177,l),
(252,177,l),
(158,-33,l),
(158,-111,l)
);
},
{
closed = 1;
nodes = (
(402,-180,l),
(402,53,l),
(311,53,l),
(311,-180,l)
);
}
);
userData = {
RMXScaler = {
adjustSpace = 7;
height = 51;
verticalShift = -180;
weight = -317;
width = 51;
};
};
width = 600;
},
{
layerId = "FF94DDBB-E62A-4F15-93F9-F4255DC66883";
shapes = (
{
closed = 1;
nodes = (
(425,-89,l),
(425,-67,l),
(194,-67,l),
(199,-72,l),
(326,170,l),
(300,170,l),
(175,-68,l),
(175,-89,l)
);
},
{
closed = 1;
nodes = (
(364,-180,l),
(364,33,l),
(340,33,l),
(340,-180,l)
);
}
);
userData = {
RMXScaler = {
adjustSpace = -7;
height = 50;
verticalShift = -180;
weight = 4;
width = 50;
};
};
width = 600;
}
);
unicode = 8324;
userData = {
RMXScaler = {
source = four;
};
};
},
{
category = Number;
glyphname = fiveinferior;
kernLeft = zeroinferior;
kernRight = zeroinferior;
lastChange = "2025-07-29 20:10:17 +0000";
layers = (
{
hints = (
{
horizontal = 1;
origin = (0,37);
target = (0,30);
type = Stem;
},
{
horizontal = 1;
origin = (0,24);
target = (0,5);
type = Stem;
},
{
horizontal = 1;
origin = (0,16);
target = (0,14);
type = Stem;
},
{
place = (240,145.5);
type = Stem;
},
{
origin = (0,27);
target = (0,2);
type = Stem;
}
);
layerId = "D56600E4-3CB1-46B6-994E-4E22114E2E10";
shapes = (
{
closed = 1;
nodes = (
(372,-185,o),
(433,-135,o),
(433,-56,cs),
(433,6,o),
(395,44,o),
(344,44,cs),
(304,44,o),
(281,26,o),
(271,-6,c),
(279,-8,l),
(280,97,ls),
(280,97,o),
(279,97,o),
(279,97,cs),
(421,97,l),
(421,177,l),
(259,177,ls),
(223,177,o),
(194,152,o),
(194,116,cs),
(194,-48,l),
(268,-48,l),
(277,-37,o),
(287,-32,o),
(302,-32,cs),
(326,-32,o),
(340,-45,o),
(340,-66,cs),
(340,-91,o),
(324,-107,o),
(292,-107,cs),
(267,-107,o),
(244,-97,o),
(220,-72,c),
(168,-135,l),
(203,-169,o),
(242,-185,o),
(292,-185,cs)
);
}
);
userData = {
RMXScaler = {
adjustSpace = 1;
height = 51;
verticalShift = -180;
weight = -317;
width = 51;
};
};
width = 600;
},
{
layerId = "FF94DDBB-E62A-4F15-93F9-F4255DC66883";
shapes = (
{
closed = 1;
nodes = (
(365,-185,o),
(416,-141,o),
(416,-68,cs),
(416,-6,o),
(378,38,o),
(316,38,cs),
(270,38,o),
(237,15,o),
(223,-18,c),
(228,-19,l),
(235,120,ls),
(236,137,o),
(250,148,o),
(266,148,cs),
(398,148,l),
(398,170,l),
(262,170,ls),
(235,170,o),
(212,151,o),
(211,123,cs),
(204,-40,l),
(226,-40,l),
(237,-6,o),
(267,16,o),
(309,16,cs),
(362,16,o),
(392,-20,o),
(392,-70,cs),
(392,-127,o),
(353,-163,o),
(293,-163,cs),
(248,-163,o),
(218,-144,o),
(200,-127,c),
(185,-144,l),
(206,-165,o),
(243,-185,o),
(292,-185,cs)
);
}
);
userData = {
RMXScaler = {
adjustSpace = -11;
height = 50;
verticalShift = -180;
weight = 4;
width = 50;
};
};
width = 600;
}
);
unicode = 8325;
userData = {
RMXScaler = {
source = five;
};
};
},
{
category = Number;
glyphname = sixinferior;
kernLeft = zeroinferior;
kernRight = zeroinferior;
lastChange = "2025-07-29 20:10:17 +0000";
layers = (
{
hints = (
{
horizontal = 1;
origin = (0,18);
target = (1,11);
type = Stem;
},
{
horizontal = 1;
origin = (1,5);
target = (0,5);
type = Stem;
},
{
horizontal = 1;
origin = (0,11);
target = down;
type = TopGhost;
},
{
origin = (0,15);
target = (1,2);
type = Stem;
},
{
origin = (1,8);
target = (0,2);
type = Stem;
}
);
layerId = "D56600E4-3CB1-46B6-994E-4E22114E2E10";
shapes = (
{
closed = 1;
nodes = (
(384,-185,o),
(441,-139,o),
(441,-62,cs),
(441,7,o),
(404,58,o),
(333,58,cs),
(305,58,o),
(280,46,o),
(257,22,c),
(272,27,l),
(397,177,l),
(285,177,l),
(209,64,ls),
(178,18,o),
(160,-22,o),
(160,-56,cs),
(160,-135,o),
(214,-185,o),
(301,-185,cs)
);
},
{
closed = 1;
nodes = (
(274,-113,o),
(256,-94,o),
(256,-63,cs),
(256,-32,o),
(273,-11,o),
(299,-11,cs),
(326,-11,o),
(344,-31,o),
(344,-63,cs),
(344,-93,o),
(327,-113,o),
(300,-113,cs)
);
}
);
userData = {
RMXScaler = {
adjustSpace = 8;
height = 51;
verticalShift = -180;
weight = -317;
width = 51;
};
};
width = 600;
},
{
layerId = "FF94DDBB-E62A-4F15-93F9-F4255DC66883";
shapes = (
{
closed = 1;
nodes = (
(369,-185,o),
(417,-138,o),
(417,-70,cs),
(417,-3,o),
(372,44,o),
(307,44,cs),
(281,44,o),
(255,37,o),
(234,18,c),
(239,17,l),
(353,170,l),
(322,170,l),
(211,13,ls),
(194,-11,o),
(183,-38,o),
(183,-69,cs),
(183,-140,o),
(229,-185,o),
(301,-185,cs)
);
},
{
closed = 1;
nodes = (
(244,-164,o),
(208,-127,o),
(208,-70,cs),
(208,-15,o),
(245,24,o),
(302,24,cs),
(355,24,o),
(393,-15,o),
(393,-70,cs),
(393,-125,o),
(355,-164,o),
(300,-164,cs)
);
}
);
userData = {
RMXScaler = {
adjustSpace = -9;
height = 50;
verticalShift = -180;
weight = 4;
width = 50;
};
};
width = 600;
}
);
unicode = 8326;
userData = {
RMXScaler = {
source = six;
};
};
},
{
category = Number;
glyphname = seveninferior;
kernLeft = zeroinferior;
kernRight = zeroinferior;
lastChange = "2025-07-29 20:10:17 +0000";
layers = (
{
hints = (
{
horizontal = 1;
origin = (0,7);
target = up;
type = BottomGhost;
},
{
horizontal = 1;
origin = (0,3);
target = (0,5);
type = Stem;
}
);
layerId = "D56600E4-3CB1-46B6-994E-4E22114E2E10";
shapes = (
{
closed = 1;
nodes = (
(293,-180,l),
(430,111,l),
(430,177,l),
(171,177,l),
(171,97,l),
(357,97,l),
(337,115,l),
(188,-180,l)
);
}
);
userData = {
RMXScaler = {
adjustSpace = -9;
height = 51;
verticalShift = -180;
weight = -317;
width = 51;
};
};
width = 600;
},
{
layerId = "FF94DDBB-E62A-4F15-93F9-F4255DC66883";
shapes = (
{
closed = 1;
nodes = (
(249,-180,l),
(418,153,l),
(418,170,l),
(182,170,l),
(182,148,l),
(399,148,l),
(394,154,l),
(221,-180,l)
);
}
);
userData = {
RMXScaler = {
adjustSpace = -21;
height = 50;
verticalShift = -180;
weight = 4;
width = 50;
};
};
width = 600;
}
);
unicode = 8327;
userData = {
RMXScaler = {
source = seven;
};
};
},
{
category = Number;
glyphname = eightinferior;
kernLeft = zeroinferior;
kernRight = zeroinferior;
lastChange = "2025-07-29 20:10:17 +0000";
layers = (
{
hints = (
{
horizontal = 1;
origin = (0,25);
target = (1,11);
type = Stem;
},
{
horizontal = 1;
origin = (1,5);
target = (2,11);
type = Stem;
},
{
horizontal = 1;
origin = (0,12);
target = (2,5);
type = Stem;
},
{
origin = (2,2);
target = (0,15);
type = Stem;
},
{
origin = (2,8);
target = (0,9);
type = Stem;
}
);
layerId = "D56600E4-3CB1-46B6-994E-4E22114E2E10";
shapes = (
{
closed = 1;
nodes = (
(387,-185,o),
(442,-145,o),
(442,-78,cs),
(442,-28,o),
(403,7,o),
(336,7,c),
(336,2,l),
(394,2,o),
(432,38,o),
(432,82,cs),
(432,143,o),
(380,182,o),
(300,182,cs),
(220,182,o),
(168,142,o),
(168,82,cs),
(168,38,o),
(206,2,o),
(265,2,c),
(265,7,l),
(198,7,o),
(159,-28,o),
(159,-79,cs),
(159,-145,o),
(213,-185,o),
(300,-185,cs)
);
},
{
closed = 1;
nodes = (
(272,-111,o),
(257,-96,o),
(257,-70,cs),
(257,-44,o),
(273,-29,o),
(301,-29,cs),
(329,-29,o),
(344,-44,o),
(344,-70,cs),
(344,-96,o),
(329,-111,o),
(300,-111,cs)
);
},
{
closed = 1;
nodes = (
(276,30,o),
(261,44,o),
(261,68,cs),
(261,94,o),
(275,108,o),
(300,108,cs),
(326,108,o),
(339,94,o),
(339,68,cs),
(339,44,o),
(326,30,o),
(301,30,cs)
);
}
);
userData = {
RMXScaler = {
adjustSpace = 17;
height = 51;
verticalShift = -180;
weight = -317;
width = 51;
};
};
width = 600;
},
{
layerId = "FF94DDBB-E62A-4F15-93F9-F4255DC66883";
shapes = (
{
closed = 1;
nodes = (
(372,-185,o),
(423,-145,o),
(423,-86,cs),
(423,-30,o),
(376,7,o),
(307,7,c),
(307,0,l),
(368,0,o),
(409,35,o),
(409,86,cs),
(409,139,o),
(366,175,o),
(300,175,cs),
(234,175,o),
(191,139,o),
(191,86,cs),
(191,35,o),
(232,0,o),
(293,0,c),
(293,7,l),
(225,7,o),
(177,-30,o),
(177,-86,cs),
(177,-145,o),
(228,-185,o),
(300,-185,cs)
);
},
{
closed = 1;
nodes = (
(242,-164,o),
(202,-131,o),
(202,-83,cs),
(202,-36,o),
(243,-6,o),
(300,-6,cs),
(357,-6,o),
(398,-36,o),
(398,-83,cs),
(398,-131,o),
(357,-164,o),
(300,-164,cs)
);
},
{
closed = 1;
nodes = (
(249,13,o),
(216,41,o),
(216,83,cs),
(216,125,o),
(249,154,o),
(300,154,cs),
(352,154,o),
(385,125,o),
(385,83,cs),
(385,41,o),
(351,13,o),
(300,13,cs)
);
}
);
userData = {
RMXScaler = {
adjustSpace = 4;
height = 50;
verticalShift = -180;
weight = 4;
width = 50;
};
};
width = 600;
}
);
unicode = 8328;
userData = {
RMXScaler = {
source = eight;
};
};
},
